<?xml version="1.0" encoding="UTF-8"?>
<!DOCTYPE svg PUBLIC "-//W3C//DTD SVG 1.1//EN" "http://www.w3.org/Graphics/SVG/1.1/DTD/svg11.dtd">
<svg xmlns="http://www.w3.org/2000/svg" version="1.1" width="512px" height="512px" style="shape-rendering:geometricPrecision; text-rendering:geometricPrecision; image-rendering:optimizeQuality; fill-rule:evenodd; clip-rule:evenodd" xmlns:xlink="http://www.w3.org/1999/xlink">
<g><path style="opacity:0.952" fill="#000000" d="M 115.5,-0.5 C 220.5,-0.5 325.5,-0.5 430.5,-0.5C 439.247,3.08302 445.08,9.41636 448,18.5C 448.667,41.8333 448.667,65.1667 448,88.5C 446.471,91.516 443.971,92.8494 440.5,92.5C 436.823,92.6639 434.323,90.9972 433,87.5C 432.667,65.5 432.333,43.5 432,21.5C 430.301,17.795 427.467,15.6283 423.5,15C 323.167,14.3333 222.833,14.3333 122.5,15C 119.542,15.2293 117.042,16.396 115,18.5C 112.968,23.2837 112.134,28.2837 112.5,33.5C 205.834,33.3333 299.167,33.5 392.5,34C 405.249,36.7478 412.415,44.5812 414,57.5C 414.5,192.166 414.667,326.833 414.5,461.5C 419.777,462.069 424.777,461.235 429.5,459C 430.211,457.745 431.044,456.579 432,455.5C 432.333,342.833 432.667,230.167 433,117.5C 436.274,112.262 440.774,111.096 446.5,114C 447.126,114.75 447.626,115.584 448,116.5C 448.667,230.5 448.667,344.5 448,458.5C 444.771,469.204 437.604,475.37 426.5,477C 422.514,477.499 418.514,477.666 414.5,477.5C 416.378,493.771 410.044,505.104 395.5,511.5C 290.5,511.5 185.5,511.5 80.5,511.5C 71.7528,507.917 65.9195,501.584 63,492.5C 62.3333,465.5 62.3333,438.5 63,411.5C 68.8623,405.806 73.8623,406.473 78,413.5C 78.3333,438.833 78.6667,464.167 79,489.5C 80.6994,493.205 83.5328,495.372 87.5,496C 187.833,496.667 288.167,496.667 388.5,496C 394.238,495.385 397.404,492.218 398,486.5C 398.667,343.833 398.667,201.167 398,58.5C 397.27,54.1037 394.77,51.2704 390.5,50C 288.833,49.3333 187.167,49.3333 85.5,50C 82.4173,50.786 80.2506,52.6193 79,55.5C 78.6667,164.5 78.3333,273.5 78,382.5C 76.0197,387.906 72.1864,389.739 66.5,388C 65.3333,386.833 64.1667,385.667 63,384.5C 62.3333,273.833 62.3333,163.167 63,52.5C 66.0221,42.146 72.8554,35.9794 83.5,34C 87.8206,33.501 92.1539,33.3343 96.5,33.5C 94.6135,17.2486 100.947,5.91531 115.5,-0.5 Z M 160.5,88.5 C 161.5,88.5 162.5,88.5 163.5,88.5C 163.333,107.503 163.5,126.503 164,145.5C 164.406,148.494 165.906,150.661 168.5,152C 188.164,152.5 207.831,152.667 227.5,152.5C 222.205,180.294 205.538,196.461 177.5,201C 144.985,201.331 124.485,185.831 116,154.5C 113.227,120.467 128.061,98.4667 160.5,88.5 Z M 179.5,88.5 C 206.516,93.5161 222.516,109.516 227.5,136.5C 211.5,136.5 195.5,136.5 179.5,136.5C 179.5,120.5 179.5,104.5 179.5,88.5 Z M 251.5,247.5 C 288.167,247.5 324.833,247.5 361.5,247.5C 361.5,267.833 361.5,288.167 361.5,308.5C 324.833,308.5 288.167,308.5 251.5,308.5C 251.5,288.167 251.5,267.833 251.5,247.5 Z M 225.5,410.5 C 230.167,410.5 234.833,410.5 239.5,410.5C 239.5,422.5 239.5,434.5 239.5,446.5C 234.833,446.5 230.167,446.5 225.5,446.5C 225.5,434.5 225.5,422.5 225.5,410.5 Z"/></g>
<g><path style="opacity:0.93" fill="#000000" d="M 165.5,71.5 C 205.697,71.2213 231.53,90.2213 243,128.5C 248.924,167.157 234.424,194.99 199.5,212C 162.64,224.136 132.807,214.636 110,183.5C 91.4744,147.717 96.641,115.884 125.5,88C 137.415,78.8668 150.749,73.3668 165.5,71.5 Z M 160.5,88.5 C 128.061,98.4667 113.227,120.467 116,154.5C 124.485,185.831 144.985,201.331 177.5,201C 205.538,196.461 222.205,180.294 227.5,152.5C 207.831,152.667 188.164,152.5 168.5,152C 165.906,150.661 164.406,148.494 164,145.5C 163.5,126.503 163.333,107.503 163.5,88.5C 162.5,88.5 161.5,88.5 160.5,88.5 Z M 179.5,88.5 C 179.5,104.5 179.5,120.5 179.5,136.5C 195.5,136.5 211.5,136.5 227.5,136.5C 222.516,109.516 206.516,93.5161 179.5,88.5 Z"/></g>
<g><path style="opacity:0.922" fill="#000000" d="M 261.5,107.5 C 296.168,107.333 330.835,107.5 365.5,108C 369.212,110.513 370.378,114.013 369,118.5C 367.786,120.049 366.286,121.215 364.5,122C 330.5,122.667 296.5,122.667 262.5,122C 256.367,117.613 256.033,112.78 261.5,107.5 Z"/></g>
<g><path style="opacity:0.98" fill="#000000" d="M 261.5,140.5 C 296.502,140.333 331.502,140.5 366.5,141C 370.5,145.333 370.5,149.667 366.5,154C 331.5,154.667 296.5,154.667 261.5,154C 256.266,149.46 256.266,144.96 261.5,140.5 Z"/></g>
<g><path style="opacity:0.923" fill="#000000" d="M 262.5,172.5 C 296.502,172.333 330.502,172.5 364.5,173C 369.689,175.913 370.856,180.08 368,185.5C 367.25,186.126 366.416,186.626 365.5,187C 331.167,187.667 296.833,187.667 262.5,187C 256.064,182.217 256.064,177.384 262.5,172.5 Z"/></g>
<g><path style="opacity:0.953" fill="#000000" d="M 245.5,231.5 C 286.168,231.333 326.835,231.5 367.5,232C 372.667,233.167 375.833,236.333 377,241.5C 377.667,265.5 377.667,289.5 377,313.5C 375.99,317.843 373.49,321.01 369.5,323C 327.167,323.667 284.833,323.667 242.5,323C 239.272,321.437 237.105,318.937 236,315.5C 235.333,290.5 235.333,265.5 236,240.5C 237.775,235.888 240.942,232.888 245.5,231.5 Z M 251.5,247.5 C 251.5,267.833 251.5,288.167 251.5,308.5C 288.167,308.5 324.833,308.5 361.5,308.5C 361.5,288.167 361.5,267.833 361.5,247.5C 324.833,247.5 288.167,247.5 251.5,247.5 Z"/></g>
<g><path style="opacity:0.979" fill="#000000" d="M 110.5,254.5 C 145.168,254.333 179.835,254.5 214.5,255C 218.696,257.981 219.529,261.814 217,266.5C 216.25,267.126 215.416,267.626 214.5,268C 179.833,268.667 145.167,268.667 110.5,268C 106.304,265.019 105.471,261.186 108,256.5C 108.995,255.934 109.828,255.267 110.5,254.5 Z"/></g>
<g><path style="opacity:0.919" fill="#000000" d="M 111.5,286.5 C 145.502,286.333 179.502,286.5 213.5,287C 219.653,291.252 219.986,295.919 214.5,301C 179.833,301.667 145.167,301.667 110.5,301C 105.003,295.683 105.336,290.85 111.5,286.5 Z"/></g>
<g><path style="opacity:0.938" fill="#000000" d="M 106.5,335.5 C 116.839,335.334 127.172,335.5 137.5,336C 140.728,337.563 142.895,340.063 144,343.5C 144.667,380.167 144.667,416.833 144,453.5C 142.308,458.522 138.808,461.355 133.5,462C 125.833,462.667 118.167,462.667 110.5,462C 105.611,461.444 102.111,458.944 100,454.5C 99.3333,417.167 99.3333,379.833 100,342.5C 101.694,339.642 103.861,337.309 106.5,335.5 Z M 115.5,351.5 C 119.833,351.5 124.167,351.5 128.5,351.5C 128.5,383.167 128.5,414.833 128.5,446.5C 124.167,446.5 119.833,446.5 115.5,446.5C 115.5,414.833 115.5,383.167 115.5,351.5 Z"/></g>
<g><path style="opacity:0.922" fill="#000000" d="M 269.5,354.5 C 301.168,354.333 332.835,354.5 364.5,355C 369.689,357.913 370.856,362.08 368,367.5C 367.25,368.126 366.416,368.626 365.5,369C 333.167,369.667 300.833,369.667 268.5,369C 263.003,363.683 263.336,358.85 269.5,354.5 Z"/></g>
<g><path style="opacity:0.934" fill="#000000" d="M 164.5,361.5 C 172.84,361.334 181.173,361.5 189.5,362C 193.617,362.806 196.784,364.973 199,368.5C 200.632,396.118 200.966,423.785 200,451.5C 198.99,455.843 196.49,459.01 192.5,461C 183.562,462.548 174.562,462.881 165.5,462C 160.217,461.385 156.717,458.551 155,453.5C 154.333,425.833 154.333,398.167 155,370.5C 156.775,365.888 159.942,362.888 164.5,361.5 Z M 170.5,377.5 C 175.167,377.5 179.833,377.5 184.5,377.5C 184.5,400.5 184.5,423.5 184.5,446.5C 179.833,446.5 175.167,446.5 170.5,446.5C 170.5,423.5 170.5,400.5 170.5,377.5 Z"/></g>
<g><path style="opacity:0.982" fill="#000000" d="M 268.5,389.5 C 301.168,389.333 333.835,389.5 366.5,390C 370.5,394.333 370.5,398.667 366.5,403C 333.833,403.667 301.167,403.667 268.5,403C 264.304,400.019 263.471,396.186 266,391.5C 266.995,390.934 267.828,390.267 268.5,389.5 Z"/></g>
<g><path style="opacity:0.941" fill="#000000" d="M 217.5,395.5 C 227.506,395.334 237.506,395.5 247.5,396C 250.583,396.786 252.749,398.619 254,401.5C 255.624,418.767 255.958,436.1 255,453.5C 253.895,456.937 251.728,459.437 248.5,461C 239.562,462.548 230.562,462.881 221.5,462C 216.585,461.41 213.085,458.91 211,454.5C 209.378,438.234 209.045,421.9 210,405.5C 211.213,401.131 213.713,397.797 217.5,395.5 Z M 225.5,410.5 C 225.5,422.5 225.5,434.5 225.5,446.5C 230.167,446.5 234.833,446.5 239.5,446.5C 239.5,434.5 239.5,422.5 239.5,410.5C 234.833,410.5 230.167,410.5 225.5,410.5 Z"/></g>
<g><path style="opacity:0.918" fill="#000000" d="M 268.5,423.5 C 300.835,423.333 333.168,423.5 365.5,424C 369.212,426.513 370.378,430.013 369,434.5C 367.786,436.049 366.286,437.215 364.5,438C 332.833,438.667 301.167,438.667 269.5,438C 263.205,433.663 262.872,428.829 268.5,423.5 Z"/></g>
</svg>
