<?xml version="1.0" encoding="UTF-8"?>
<!DOCTYPE svg PUBLIC "-//W3C//DTD SVG 1.1//EN" "http://www.w3.org/Graphics/SVG/1.1/DTD/svg11.dtd">
<svg xmlns="http://www.w3.org/2000/svg" version="1.1" width="512px" height="512px" style="shape-rendering:geometricPrecision; text-rendering:geometricPrecision; image-rendering:optimizeQuality; fill-rule:evenodd; clip-rule:evenodd" xmlns:xlink="http://www.w3.org/1999/xlink">
<g><path style="opacity:0.961" fill="#000000" d="M 261.5,-0.5 C 270.167,-0.5 278.833,-0.5 287.5,-0.5C 363.698,8.24617 424.198,43.5795 469,105.5C 493.195,141.254 507.362,180.588 511.5,223.5C 511.5,232.167 511.5,240.833 511.5,249.5C 510.023,251.807 508.023,253.64 505.5,255C 423.419,255.994 341.419,255.661 259.5,254C 257.951,252.786 256.785,251.286 256,249.5C 255.333,168.167 255.333,86.8333 256,5.5C 257.36,2.97739 259.193,0.977392 261.5,-0.5 Z M 277.5,21.5 C 367.334,29.97 431.834,74.6367 471,155.5C 481.569,180.445 487.736,206.445 489.5,233.5C 418.833,233.5 348.167,233.5 277.5,233.5C 277.5,162.833 277.5,92.1667 277.5,21.5 Z"/></g>
<g><path style="opacity:0.951" fill="#000000" d="M 271.5,511.5 C 255.5,511.5 239.5,511.5 223.5,511.5C 147.302,502.754 86.802,467.42 42,405.5C 17.8049,369.746 3.63824,330.412 -0.5,287.5C -0.5,272.833 -0.5,258.167 -0.5,243.5C 7.21061,164.719 42.8773,102.219 106.5,56C 140.135,33.8375 177.135,22.0042 217.5,20.5C 224.853,18.7764 230.353,21.1097 234,27.5C 234.333,105.833 234.667,184.167 235,262.5C 284.716,325.881 334.049,389.548 383,453.5C 383.837,457.295 383.504,460.961 382,464.5C 350.747,493.208 313.914,508.874 271.5,511.5 Z M 201.5,43.5 C 205.167,43.5 208.833,43.5 212.5,43.5C 212.333,119.167 212.5,194.834 213,270.5C 260.642,332.31 308.476,393.976 356.5,455.5C 334.457,474.511 308.79,485.344 279.5,488C 190.72,497.168 118.887,467.002 64,397.5C 22.808,337.52 11.4746,272.186 30,201.5C 47.807,139.315 84.9736,92.8151 141.5,62C 160.705,52.8735 180.705,46.7068 201.5,43.5 Z"/></g>
<g><path style="opacity:0.953" fill="#000000" d="M 511.5,282.5 C 511.5,291.167 511.5,299.833 511.5,308.5C 504.974,370.717 479.307,423.551 434.5,467C 426.296,472.387 419.463,470.887 414,462.5C 369.333,407.167 324.667,351.833 280,296.5C 274.45,288.713 275.616,282.213 283.5,277C 357.167,276.333 430.833,276.333 504.5,277C 507.621,277.967 509.954,279.8 511.5,282.5 Z M 311.5,299.5 C 370.664,298.501 429.998,298.168 489.5,298.5C 485.803,354.138 464.97,402.138 427,442.5C 388.636,394.645 350.136,346.978 311.5,299.5 Z"/></g>
</svg>
