<?xml version="1.0" encoding="UTF-8"?>
<!DOCTYPE svg PUBLIC "-//W3C//DTD SVG 1.1//EN" "http://www.w3.org/Graphics/SVG/1.1/DTD/svg11.dtd">
<svg xmlns="http://www.w3.org/2000/svg" version="1.1" width="900px" height="200px" style="shape-rendering:geometricPrecision; text-rendering:geometricPrecision; image-rendering:optimizeQuality; fill-rule:evenodd; clip-rule:evenodd" xmlns:xlink="http://www.w3.org/1999/xlink">
<g><path style="opacity:0.412" fill="#c6c6c6" d="M 99.5,26.5 C 96.9455,27.388 94.2788,27.7214 91.5,27.5C 93.4872,26.6568 95.6539,25.9902 98,25.5C 98.7648,25.5699 99.2648,25.9033 99.5,26.5 Z"/></g>
<g><path style="opacity:0.165" fill="#c5c5c5" d="M 132.5,30.5 C 127.006,29.326 121.673,27.9927 116.5,26.5C 120.096,25.7308 123.596,26.3975 127,28.5C 127.333,28.1667 127.667,27.8333 128,27.5C 129.652,28.3994 131.152,29.3994 132.5,30.5 Z"/></g>
<g><path style="opacity:0.031" fill="#d9d9d9" d="M 91.5,27.5 C 89.7857,28.7384 87.7857,29.405 85.5,29.5C 87.1016,27.9261 89.1016,27.2594 91.5,27.5 Z"/></g>
<g><path style="opacity:0.999" fill="#131313" d="M 116.5,26.5 C 121.673,27.9927 127.006,29.326 132.5,30.5C 135.515,32.6744 138.849,34.3411 142.5,35.5C 143.492,35.3284 144.158,35.6618 144.5,36.5C 144.973,37.9063 145.973,38.573 147.5,38.5C 148.167,38.8333 148.833,39.1667 149.5,39.5C 152.888,43.5542 156.554,47.2209 160.5,50.5C 161.08,52.7488 162.413,54.4154 164.5,55.5C 164.427,57.0269 165.094,58.0269 166.5,58.5C 166.427,60.0269 167.094,61.0269 168.5,61.5C 168.932,62.7095 169.599,63.7095 170.5,64.5C 171.075,67.9116 172.408,70.9116 174.5,73.5C 174.5,73.8333 174.5,74.1667 174.5,74.5C 174.259,76.8984 174.926,78.8984 176.5,80.5C 177.265,83.0961 177.599,85.7628 177.5,88.5C 178.01,98.999 177.01,109.332 174.5,119.5C 174.737,120.791 174.404,121.791 173.5,122.5C 172.069,123.78 171.402,125.447 171.5,127.5C 171.34,129.153 170.674,130.486 169.5,131.5C 168.094,131.973 167.427,132.973 167.5,134.5C 166.89,136.434 165.89,138.101 164.5,139.5C 162.413,140.585 161.08,142.251 160.5,144.5C 158.833,146.833 156.833,148.833 154.5,150.5C 152.596,150.738 151.262,151.738 150.5,153.5C 148.371,155.95 145.704,157.617 142.5,158.5C 139.52,159.323 136.853,160.657 134.5,162.5C 133.22,163.931 131.553,164.598 129.5,164.5C 119.313,166.866 108.98,167.866 98.5,167.5C 95.9407,167.802 93.6074,167.468 91.5,166.5C 88.4954,164.723 85.1621,163.723 81.5,163.5C 80.2196,162.069 78.5529,161.402 76.5,161.5C 75.5084,161.672 74.8417,161.338 74.5,160.5C 73.7095,159.599 72.7095,158.932 71.5,158.5C 70.5084,158.672 69.8417,158.338 69.5,157.5C 68.7377,155.738 67.4044,154.738 65.5,154.5C 64.4154,152.413 62.7488,151.08 60.5,150.5C 56.8051,146.474 53.1384,142.474 49.5,138.5C 49.4456,136.368 48.4456,135.035 46.5,134.5C 43.7105,130.584 41.7105,126.251 40.5,121.5C 40.1007,117.884 39.1007,114.55 37.5,111.5C 37.8016,108.941 37.4682,106.607 36.5,104.5C 36.0495,96.0398 36.7162,87.7065 38.5,79.5C 38.2322,77.901 38.5655,76.5676 39.5,75.5C 40.4878,72.9239 41.4878,70.2572 42.5,67.5C 43.3382,67.1583 43.6716,66.4916 43.5,65.5C 45.0828,63.3374 46.4161,61.0041 47.5,58.5C 49.2624,57.7377 50.2624,56.4044 50.5,54.5C 52.5869,53.4154 53.9202,51.7488 54.5,49.5C 55.8333,47.5 57.5,45.8333 59.5,44.5C 61.5398,42.823 63.5398,41.1563 65.5,39.5C 67.0269,39.573 68.0269,38.9063 68.5,37.5C 68.8417,36.6618 69.5084,36.3284 70.5,36.5C 72.0269,36.573 73.0269,35.9063 73.5,34.5C 74.5137,33.3263 75.847,32.6596 77.5,32.5C 80.2406,32.2927 82.5739,31.2927 84.5,29.5C 84.8333,29.5 85.1667,29.5 85.5,29.5C 87.7857,29.405 89.7857,28.7384 91.5,27.5C 94.2788,27.7214 96.9455,27.388 99.5,26.5C 105.167,25.1667 110.833,25.1667 116.5,26.5 Z M 113.5,34.5 C 115.379,35.3414 117.379,35.6747 119.5,35.5C 123.613,37.2825 127.946,38.6159 132.5,39.5C 134.181,41.0075 136.181,42.0075 138.5,42.5C 138.973,43.9063 139.973,44.573 141.5,44.5C 144.539,47.5398 147.873,50.2065 151.5,52.5C 152.436,55.7676 154.436,58.101 157.5,59.5C 157.833,60.1667 158.167,60.8333 158.5,61.5C 158.833,61.5 159.167,61.5 159.5,61.5C 159.343,62.8734 159.51,64.2068 160,65.5C 163.849,70.7726 166.682,76.4393 168.5,82.5C 168.5,82.8333 168.5,83.1667 168.5,83.5C 169.969,94.5797 168.969,105.413 165.5,116C 166.056,116.383 166.389,116.883 166.5,117.5C 164.519,118.105 164.185,119.105 165.5,120.5C 164.814,121.848 163.814,123.015 162.5,124C 163.056,124.383 163.389,124.883 163.5,125.5C 161.606,126.601 160.939,127.934 161.5,129.5C 160.279,130.028 159.113,130.695 158,131.5C 155.1,137.231 151.267,142.231 146.5,146.5C 144.973,146.427 143.973,147.094 143.5,148.5C 141.973,148.427 140.973,149.094 140.5,150.5C 139.075,148.969 138.409,149.302 138.5,151.5C 136.181,151.992 134.181,152.992 132.5,154.5C 131.508,154.328 130.842,154.662 130.5,155.5C 125.645,156.544 120.978,157.877 116.5,159.5C 115.5,159.5 114.5,159.5 113.5,159.5C 106.809,159.546 100.143,159.212 93.5,158.5C 90.3811,157.13 87.0477,156.13 83.5,155.5C 82.0655,153.622 80.3989,152.955 78.5,153.5C 77.1007,152.11 75.4341,151.11 73.5,150.5C 72.5637,149.026 71.2303,148.026 69.5,147.5C 69.0269,146.094 68.0269,145.427 66.5,145.5C 66.1667,144.5 65.5,143.833 64.5,143.5C 64.1898,141.856 63.1898,140.856 61.5,140.5C 61.5,138.5 60.5,137.5 58.5,137.5C 58.2624,135.596 57.2624,134.262 55.5,133.5C 55.6716,132.508 55.3382,131.842 54.5,131.5C 54.573,129.973 53.9063,128.973 52.5,128.5C 51.4388,125.378 50.1054,122.378 48.5,119.5C 48.9382,119.565 49.2716,119.399 49.5,119C 47.3457,112.523 45.679,106.023 44.5,99.5C 44.4872,93.0619 45.3205,86.7285 47,80.5C 48.0674,79.8095 49.2341,79.3095 50.5,79C 49.6919,78.6924 49.0253,78.1924 48.5,77.5C 50.8391,72.1424 53.1724,66.8091 55.5,61.5C 56.9063,61.0269 57.573,60.0269 57.5,58.5C 58.1667,58.5 58.5,58.1667 58.5,57.5C 61.8333,54.8333 64.8333,51.8333 67.5,48.5C 68.8333,48.5 69.5,47.8333 69.5,46.5C 71.674,46.2503 73.3406,45.2503 74.5,43.5C 76.674,43.2503 78.3406,42.2503 79.5,40.5C 80.4916,40.6716 81.1583,40.3382 81.5,39.5C 86.6755,38.3869 91.6755,37.0535 96.5,35.5C 102.121,34.6463 107.788,34.313 113.5,34.5 Z M 135.5,85.5 C 135.5,85.8333 135.5,86.1667 135.5,86.5C 132.664,86.7978 132.164,86.1311 134,84.5C 134.383,85.056 134.883,85.3893 135.5,85.5 Z M 139.5,90.5 C 136.833,91.1667 134.167,91.8333 131.5,92.5C 130.833,92.5 130.167,92.5 129.5,92.5C 129.611,91.8826 129.944,91.3826 130.5,91C 133.482,90.502 136.482,90.3354 139.5,90.5 Z"/></g>
<g><path style="opacity:0.129" fill="#c9c9c9" d="M 84.5,29.5 C 82.5739,31.2927 80.2406,32.2927 77.5,32.5C 79.3545,31.3104 81.1879,29.9771 83,28.5C 83.3826,29.056 83.8826,29.3893 84.5,29.5 Z"/></g>
<g><path style="opacity:0.294" fill="#adadad" d="M 132.5,30.5 C 136.674,30.6586 140.008,32.3253 142.5,35.5C 138.849,34.3411 135.515,32.6744 132.5,30.5 Z"/></g>
<g><path style="opacity:0.325" fill="#939393" d="M 113.5,34.5 C 107.788,34.313 102.121,34.6463 96.5,35.5C 95.1667,35.5 93.8333,35.5 92.5,35.5C 96.5739,34.0456 100.907,33.3789 105.5,33.5C 108.355,33.5025 111.022,33.8359 113.5,34.5 Z"/></g>
<g><path style="opacity:0.6" fill="#9f9f9f" d="M 73.5,34.5 C 73.0269,35.9063 72.0269,36.573 70.5,36.5C 70.9731,35.0937 71.9731,34.427 73.5,34.5 Z"/></g>
<g><path style="opacity:0.057" fill="#cfcfcf" d="M 119.5,35.5 C 124.264,35.7689 128.597,37.1022 132.5,39.5C 127.946,38.6159 123.613,37.2825 119.5,35.5 Z"/></g>
<g><path style="opacity:0.11" fill="#cacaca" d="M 144.5,36.5 C 146.027,36.427 147.027,37.0937 147.5,38.5C 145.973,38.573 144.973,37.9063 144.5,36.5 Z"/></g>
<g><path style="opacity:0.471" fill="#b5b5b5" d="M 68.5,37.5 C 68.0269,38.9063 67.0269,39.573 65.5,39.5C 65.9731,38.0937 66.9731,37.427 68.5,37.5 Z"/></g>
<g><path style="opacity:0.02" fill="#dbdbdb" d="M 92.5,35.5 C 93.8333,35.5 95.1667,35.5 96.5,35.5C 91.6755,37.0535 86.6755,38.3869 81.5,39.5C 84.7966,37.3987 88.4632,36.0653 92.5,35.5 Z"/></g>
<g><path style="opacity:0.059" fill="#dedede" d="M 65.5,39.5 C 63.5398,41.1563 61.5398,42.823 59.5,44.5C 60.2678,41.4384 62.2678,39.7717 65.5,39.5 Z"/></g>
<g><path style="opacity:0.114" fill="#cccccc" d="M 79.5,40.5 C 78.3406,42.2503 76.674,43.2503 74.5,43.5C 75.6594,41.7497 77.326,40.7497 79.5,40.5 Z"/></g>
<g><path style="opacity:0.184" fill="#c4c4c4" d="M 138.5,42.5 C 140.027,42.427 141.027,43.0937 141.5,44.5C 139.973,44.573 138.973,43.9063 138.5,42.5 Z"/></g>
<g><path style="opacity:0.153" fill="#bfbfbf" d="M 74.5,43.5 C 73.3406,45.2503 71.674,46.2503 69.5,46.5C 70.6594,44.7497 72.326,43.7497 74.5,43.5 Z"/></g>
<g><path style="opacity:0.067" fill="#dadada" d="M 149.5,39.5 C 154.737,41.6143 158.404,45.281 160.5,50.5C 156.554,47.2209 152.888,43.5542 149.5,39.5 Z"/></g>
<g><path style="opacity:0.012" fill="#e3e3e3" d="M 69.5,46.5 C 69.5,47.8333 68.8333,48.5 67.5,48.5C 67.8333,47.5 68.5,46.8333 69.5,46.5 Z"/></g>
<g><path style="opacity:0.251" fill="#cecece" d="M 141.5,44.5 C 145.704,46.0332 149.037,48.6998 151.5,52.5C 147.873,50.2065 144.539,47.5398 141.5,44.5 Z"/></g>
<g><path style="opacity:0.137" fill="#b9b9b9" d="M 455.5,49.5 C 455.5,49.8333 455.5,50.1667 455.5,50.5C 447.833,50.5 440.167,50.5 432.5,50.5C 433.912,49.4675 435.578,48.8008 437.5,48.5C 443.459,49.4141 449.459,49.7474 455.5,49.5 Z"/></g>
<g><path style="opacity:1" fill="#000000" d="M 295.5,50.5 C 295.5,75.5 295.5,100.5 295.5,125.5C 308.323,126.495 321.323,126.829 334.5,126.5C 334.5,132.167 334.5,137.833 334.5,143.5C 313.833,143.5 293.167,143.5 272.5,143.5C 272.5,112.5 272.5,81.5 272.5,50.5C 280.167,50.5 287.833,50.5 295.5,50.5 Z"/></g>
<g><path style="opacity:1" fill="#030303" d="M 432.5,50.5 C 440.167,50.5 447.833,50.5 455.5,50.5C 455.5,55.1667 455.5,59.8333 455.5,64.5C 452.482,64.3354 449.482,64.502 446.5,65C 445.584,65.2784 444.918,65.7784 444.5,66.5C 444.5,67.1667 444.167,67.5 443.5,67.5C 442.883,67.6107 442.383,67.944 442,68.5C 441.503,71.146 441.336,73.8127 441.5,76.5C 445.833,76.5 450.167,76.5 454.5,76.5C 454.5,81.5 454.5,86.5 454.5,91.5C 450.167,91.5 445.833,91.5 441.5,91.5C 440.503,108.659 440.17,125.992 440.5,143.5C 433.5,143.5 426.5,143.5 419.5,143.5C 419.5,126.167 419.5,108.833 419.5,91.5C 416.167,91.5 412.833,91.5 409.5,91.5C 409.5,86.5 409.5,81.5 409.5,76.5C 412.833,76.5 416.167,76.5 419.5,76.5C 419.353,71.7858 419.686,67.1191 420.5,62.5C 420.5,62.1667 420.5,61.8333 420.5,61.5C 423.223,56.4441 427.223,52.7774 432.5,50.5 Z"/></g>
<g><path style="opacity:1" fill="#020202" d="M 532.5,80.5 C 533.833,79.8333 534.833,78.8333 535.5,77.5C 537.38,77.7709 538.713,77.1042 539.5,75.5C 540.568,74.5655 541.901,74.2322 543.5,74.5C 548.193,74.5401 552.859,74.8734 557.5,75.5C 561.681,77.3316 565.348,79.9983 568.5,83.5C 568.427,85.0269 569.094,86.0269 570.5,86.5C 572.074,88.1016 572.741,90.1016 572.5,92.5C 572.5,109.5 572.5,126.5 572.5,143.5C 565.5,143.5 558.5,143.5 551.5,143.5C 551.829,129.323 551.496,115.323 550.5,101.5C 550.723,96.9308 548.723,93.9308 544.5,92.5C 544.167,92.5 543.833,92.5 543.5,92.5C 541.5,91.1667 539.5,91.1667 537.5,92.5C 537.158,93.3382 536.492,93.6716 535.5,93.5C 534.167,93.5 533.5,94.1667 533.5,95.5C 533.068,96.7095 532.401,97.7095 531.5,98.5C 530.662,98.8417 530.328,99.5084 530.5,100.5C 529.504,114.657 529.171,128.99 529.5,143.5C 522.5,143.5 515.5,143.5 508.5,143.5C 508.5,112.5 508.5,81.5 508.5,50.5C 515.5,50.5 522.5,50.5 529.5,50.5C 529.168,61.5202 529.501,72.5202 530.5,83.5C 531.919,82.9953 532.585,81.9953 532.5,80.5 Z M 530.5,79.5 C 531.492,79.3284 532.158,79.6618 532.5,80.5C 531.075,82.0311 530.409,81.6977 530.5,79.5 Z"/></g>
<g><path style="opacity:0.843" fill="#7b7b7b" d="M 160.5,50.5 C 162.587,51.5846 163.92,53.2512 164.5,55.5C 162.413,54.4154 161.08,52.7488 160.5,50.5 Z"/></g>
<g><path style="opacity:0.569" fill="#9c9c9c" d="M 54.5,49.5 C 53.9202,51.7488 52.5869,53.4154 50.5,54.5C 51.0798,52.2512 52.4131,50.5846 54.5,49.5 Z"/></g>
<g><path style="opacity:0.027" fill="#c4c4c4" d="M 67.5,48.5 C 64.8333,51.8333 61.8333,54.8333 58.5,57.5C 60.5,53.5 63.5,50.5 67.5,48.5 Z"/></g>
<g><path style="opacity:0.012" fill="#d8d8d8" d="M 432.5,50.5 C 427.223,52.7774 423.223,56.4441 420.5,61.5C 420.253,58.495 421.253,55.995 423.5,54C 426.249,52.8773 428.749,51.3773 431,49.5C 431.383,50.056 431.883,50.3893 432.5,50.5 Z"/></g>
<g><path style="opacity:0.276" fill="#b1b1b1" d="M 489.5,54.5 C 489.5,54.8333 489.5,55.1667 489.5,55.5C 482.167,55.5 474.833,55.5 467.5,55.5C 467.825,62.6866 467.491,69.6866 466.5,76.5C 466.5,76.1667 466.5,75.8333 466.5,75.5C 466.768,69.6182 466.434,63.7849 465.5,58C 465.946,56.2741 466.779,54.7741 468,53.5C 475.168,53.5124 482.335,53.8457 489.5,54.5 Z"/></g>
<g><path style="opacity:0.013" fill="#e9e9e9" d="M 151.5,52.5 C 154.243,54.2393 156.243,56.5726 157.5,59.5C 154.436,58.101 152.436,55.7676 151.5,52.5 Z"/></g>
<g><path style="opacity:1" fill="#050505" d="M 489.5,55.5 C 489.5,62.5 489.5,69.5 489.5,76.5C 493.5,76.5 497.5,76.5 501.5,76.5C 501.5,81.5 501.5,86.5 501.5,91.5C 497.5,91.5 493.5,91.5 489.5,91.5C 489.172,103.012 489.505,114.346 490.5,125.5C 490.414,126.496 490.748,127.329 491.5,128C 493.473,128.495 495.473,128.662 497.5,128.5C 498.167,128.5 498.833,128.5 499.5,128.5C 500.5,128.5 501.5,128.5 502.5,128.5C 502.5,133.833 502.5,139.167 502.5,144.5C 493.357,144.971 484.357,144.304 475.5,142.5C 475.027,141.094 474.027,140.427 472.5,140.5C 470.03,137.226 468.364,133.559 467.5,129.5C 467.829,116.656 467.495,103.989 466.5,91.5C 463.5,91.5 460.5,91.5 457.5,91.5C 457.5,87.5 457.5,83.5 457.5,79.5C 457.5,78.5 457.5,77.5 457.5,76.5C 460.5,76.5 463.5,76.5 466.5,76.5C 467.491,69.6866 467.825,62.6866 467.5,55.5C 474.833,55.5 482.167,55.5 489.5,55.5 Z"/></g>
<g><path style="opacity:0.525" fill="#9a9a9a" d="M 50.5,54.5 C 50.2624,56.4044 49.2624,57.7377 47.5,58.5C 47.7376,56.5956 48.7376,55.2623 50.5,54.5 Z"/></g>
<g><path style="opacity:0.478" fill="#939393" d="M 164.5,55.5 C 165.906,55.9731 166.573,56.9731 166.5,58.5C 165.094,58.0269 164.427,57.0269 164.5,55.5 Z"/></g>
<g><path style="opacity:0.039" fill="#c9c9c9" d="M 57.5,58.5 C 57.573,60.0269 56.9063,61.0269 55.5,61.5C 55.427,59.9731 56.0937,58.9731 57.5,58.5 Z"/></g>
<g><path style="opacity:0.053" fill="#b1b1b1" d="M 166.5,58.5 C 168.824,58.8773 169.491,59.8773 168.5,61.5C 167.094,61.0269 166.427,60.0269 166.5,58.5 Z"/></g>
<g><path style="opacity:0.018" fill="#fdfdfd" d="M 530.5,59.5 C 531.196,63.2315 531.862,67.0648 532.5,71C 531.289,72.1131 531.289,73.2798 532.5,74.5C 532.145,75.5223 531.478,76.189 530.5,76.5C 530.5,70.8333 530.5,65.1667 530.5,59.5 Z"/></g>
<g><path style="opacity:0.014" fill="#d5d5d5" d="M 47.5,58.5 C 46.4161,61.0041 45.0828,63.3374 43.5,65.5C 43.149,62.1884 44.4823,59.855 47.5,58.5 Z"/></g>
<g><path style="opacity:0.012" fill="#eaeaea" d="M 168.5,61.5 C 170.048,61.8212 170.715,62.8212 170.5,64.5C 169.599,63.7095 168.932,62.7095 168.5,61.5 Z"/></g>
<g><path style="opacity:0.217" fill="#d7d7d7" d="M 295.5,49.5 C 297.819,62.6287 298.153,75.962 296.5,89.5C 296.837,99.4138 297.503,109.247 298.5,119C 296.808,120.401 296.141,122.234 296.5,124.5C 304.11,124.8 311.61,124.466 319,123.5C 324.267,124.145 329.433,124.812 334.5,125.5C 321.5,125.5 308.5,125.5 295.5,125.5C 295.5,100.5 295.5,75.5 295.5,50.5C 295.5,50.1667 295.5,49.8333 295.5,49.5 Z"/></g>
<g><path style="opacity:0.069" fill="#efefef" d="M 455.5,49.5 C 456.357,53.6599 457.024,57.9932 457.5,62.5C 457.36,64.0296 456.693,65.0296 455.5,65.5C 455.5,65.1667 455.5,64.8333 455.5,64.5C 455.5,59.8333 455.5,55.1667 455.5,50.5C 455.5,50.1667 455.5,49.8333 455.5,49.5 Z"/></g>
<g><path style="opacity:0.492" fill="#939393" d="M 455.5,64.5 C 455.5,64.8333 455.5,65.1667 455.5,65.5C 452.01,65.3741 448.343,65.7075 444.5,66.5C 444.918,65.7784 445.584,65.2784 446.5,65C 449.482,64.502 452.482,64.3354 455.5,64.5 Z"/></g>
<g><path style="opacity:0.071" fill="#d7d7d7" d="M 43.5,65.5 C 43.6716,66.4916 43.3382,67.1583 42.5,67.5C 40.9689,66.0755 41.3023,65.4088 43.5,65.5 Z"/></g>
<g><path style="opacity:0.169" fill="#d6d6d6" d="M 170.5,64.5 C 172.607,67.0567 173.941,70.0567 174.5,73.5C 172.408,70.9116 171.075,67.9116 170.5,64.5 Z"/></g>
<g><path style="opacity:0.173" fill="#bfbfbf" d="M 159.5,61.5 C 164.386,67.6145 167.386,74.6145 168.5,82.5C 166.682,76.4393 163.849,70.7726 160,65.5C 159.51,64.2068 159.343,62.8734 159.5,61.5 Z"/></g>
<g><path style="opacity:0.035" fill="#dcdcdc" d="M 42.5,67.5 C 41.4878,70.2572 40.4878,72.9239 39.5,75.5C 38.8283,72.0581 39.8283,69.3914 42.5,67.5 Z"/></g>
<g><path style="opacity:0.004" fill="#fefffe" d="M 456.5,71.5 C 457.833,72.1667 457.833,72.1667 456.5,71.5 Z"/></g>
<g><path style="opacity:0.004" fill="#fefffe" d="M 408.5,74.5 C 407.833,73.1667 407.833,73.1667 408.5,74.5 Z"/></g>
<g><path style="opacity:0.004" fill="#fefffe" d="M 409.5,73.5 C 410.833,74.1667 410.833,74.1667 409.5,73.5 Z"/></g>
<g><path style="opacity:0.075" fill="#d9d9d9" d="M 543.5,74.5 C 548.262,73.1087 552.928,73.442 557.5,75.5C 552.859,74.8734 548.193,74.5401 543.5,74.5 Z"/></g>
<g><path style="opacity:0.545" fill="#bfbfbf" d="M 619.5,73.5 C 612.736,73.3874 606.07,74.0541 599.5,75.5C 600.622,74.0527 602.122,73.0527 604,72.5C 609.206,72.2913 614.372,72.6247 619.5,73.5 Z"/></g>
<g><path style="opacity:0.053" fill="#e0e0e0" d="M 699.5,74.5 C 695.833,74.5 692.167,74.5 688.5,74.5C 691.228,73.7948 694.061,73.1281 697,72.5C 697.995,73.0659 698.828,73.7326 699.5,74.5 Z"/></g>
<g><path style="opacity:0.765" fill="#5b5b5b" d="M 753.5,73.5 C 757.702,73.1832 761.702,73.5166 765.5,74.5C 757.372,74.0617 749.372,74.7284 741.5,76.5C 741.5,76.1667 741.5,75.8333 741.5,75.5C 745.295,73.8572 749.295,73.1906 753.5,73.5 Z"/></g>
<g><path style="opacity:0.078" fill="#dbdbdb" d="M 753.5,73.5 C 761.619,71.7464 769.619,72.5797 777.5,76C 778.756,76.4169 779.423,77.2502 779.5,78.5C 775.137,76.1574 770.47,74.8241 765.5,74.5C 761.702,73.5166 757.702,73.1832 753.5,73.5 Z"/></g>
<g><path style="opacity:0.569" fill="#a3a3a3" d="M 825.5,73.5 C 823.393,74.4682 821.059,74.8016 818.5,74.5C 818.369,73.7611 818.536,73.0944 819,72.5C 821.041,73.4231 823.208,73.7564 825.5,73.5 Z"/></g>
<g><path style="opacity:0.071" fill="#c9c9c9" d="M 846.5,75.5 C 843.273,75.3239 840.273,74.6572 837.5,73.5C 840.837,72.4983 843.837,73.165 846.5,75.5 Z"/></g>
<g><path style="opacity:0.012" fill="#bebebe" d="M 55.5,61.5 C 53.1724,66.8091 50.8391,72.1424 48.5,77.5C 49.0253,78.1924 49.6919,78.6924 50.5,79C 49.2341,79.3095 48.0674,79.8095 47,80.5C 45.3205,86.7285 44.4872,93.0619 44.5,99.5C 44.5,101.5 44.5,103.5 44.5,105.5C 41.8852,89.2927 45.5518,74.626 55.5,61.5 Z"/></g>
<g><path style="opacity:1" fill="#080808" d="M 619.5,73.5 C 622.059,73.1984 624.393,73.5318 626.5,74.5C 628.214,75.7384 630.214,76.405 632.5,76.5C 634.674,76.7497 636.341,77.7497 637.5,79.5C 638.5,81.1667 639.833,82.5 641.5,83.5C 641.427,85.0269 642.094,86.0269 643.5,86.5C 643.523,88.9267 644.023,91.26 645,93.5C 645.169,109.339 645.669,125.005 646.5,140.5C 646.5,141.167 646.5,141.833 646.5,142.5C 643.518,143.165 640.352,143.498 637,143.5C 633.238,143.415 629.738,142.748 626.5,141.5C 626.289,139.576 625.623,139.243 624.5,140.5C 622.853,142.326 620.853,143.66 618.5,144.5C 615.306,145.758 611.973,146.424 608.5,146.5C 603.13,146.608 597.797,146.275 592.5,145.5C 592.167,145.5 591.833,145.5 591.5,145.5C 591.027,144.094 590.027,143.427 588.5,143.5C 587.738,141.738 586.404,140.738 584.5,140.5C 581.767,137.925 579.767,134.925 578.5,131.5C 577.167,127.5 577.167,123.5 578.5,119.5C 579.401,118.71 580.068,117.71 580.5,116.5C 581.906,116.027 582.573,115.027 582.5,113.5C 583.833,112.833 584.833,111.833 585.5,110.5C 587.027,110.573 588.027,109.906 588.5,108.5C 590.967,108.245 592.967,107.245 594.5,105.5C 595.568,104.566 596.901,104.232 598.5,104.5C 605.824,103.003 613.157,101.503 620.5,100C 621.416,99.6258 622.25,99.1258 623,98.5C 623.789,96.2884 623.622,94.2884 622.5,92.5C 621.738,90.7376 620.404,89.7376 618.5,89.5C 614.766,89.3227 611.099,89.6561 607.5,90.5C 605.167,90.8333 603.833,92.1667 603.5,94.5C 602.596,95.209 602.263,96.209 602.5,97.5C 595.833,97.5 589.167,97.5 582.5,97.5C 582.348,89.8039 585.348,83.8039 591.5,79.5C 593.027,79.573 594.027,78.9063 594.5,77.5C 596.153,77.3404 597.486,76.6737 598.5,75.5C 598.833,75.5 599.167,75.5 599.5,75.5C 606.07,74.0541 612.736,73.3874 619.5,73.5 Z M 619.5,128.5 C 618.508,128.328 617.842,128.662 617.5,129.5C 613.215,130.295 608.881,130.628 604.5,130.5C 603.71,129.599 602.71,128.932 601.5,128.5C 600.048,125.306 600.381,122.306 602.5,119.5C 609.205,117.613 616.205,115.613 623.5,113.5C 623.559,118.934 622.226,123.934 619.5,128.5 Z"/></g>
<g><path style="opacity:0.02" fill="#c8c8c8" d="M 626.5,74.5 C 628.898,74.2594 630.898,74.9261 632.5,76.5C 630.214,76.405 628.214,75.7384 626.5,74.5 Z"/></g>
<g><path style="opacity:0.016" fill="#c4c4c4" d="M 699.5,74.5 C 701.898,74.2594 703.898,74.9261 705.5,76.5C 703.214,76.405 701.214,75.7384 699.5,74.5 Z"/></g>
<g><path style="opacity:1" fill="#080808" d="M 765.5,74.5 C 770.47,74.8241 775.137,76.1574 779.5,78.5C 780.167,78.8333 780.833,79.1667 781.5,79.5C 783.507,82.5051 785.507,85.5051 787.5,88.5C 787.5,91.5 787.5,94.5 787.5,97.5C 780.833,97.5 774.167,97.5 767.5,97.5C 767.88,95.302 767.213,93.6354 765.5,92.5C 765.5,91.1667 764.833,90.5 763.5,90.5C 762.508,90.6716 761.842,90.3382 761.5,89.5C 756.758,87.6234 752.591,88.6234 749,92.5C 748.935,97.9307 751.768,100.597 757.5,100.5C 758.167,100.5 758.833,100.5 759.5,100.5C 760.919,101.451 762.585,101.784 764.5,101.5C 767.219,102.913 770.219,103.58 773.5,103.5C 774.791,103.263 775.791,103.596 776.5,104.5C 777.514,105.674 778.847,106.34 780.5,106.5C 782.477,108.844 784.81,110.844 787.5,112.5C 787.427,114.027 788.094,115.027 789.5,115.5C 790.234,116.708 790.567,118.041 790.5,119.5C 790.973,127.753 788.307,134.753 782.5,140.5C 782.027,141.906 781.027,142.573 779.5,142.5C 776.228,143.758 772.894,144.925 769.5,146C 762.174,146.5 754.841,146.666 747.5,146.5C 747.167,146.5 746.833,146.5 746.5,146.5C 743.495,144.723 740.162,143.723 736.5,143.5C 736.027,142.094 735.027,141.427 733.5,141.5C 732.508,141.672 731.842,141.338 731.5,140.5C 730.503,137.845 728.836,135.845 726.5,134.5C 725.069,133.22 724.402,131.553 724.5,129.5C 724.5,127.167 724.5,124.833 724.5,122.5C 731.588,122.205 738.588,122.538 745.5,123.5C 745.229,125.38 745.896,126.713 747.5,127.5C 748.5,127.833 749.167,128.5 749.5,129.5C 749.918,130.222 750.584,130.722 751.5,131C 755.833,131.667 760.167,131.667 764.5,131C 765.056,130.617 765.389,130.117 765.5,129.5C 767.439,128.986 768.439,127.653 768.5,125.5C 768.547,123.962 767.88,122.962 766.5,122.5C 764.632,121.737 762.965,120.737 761.5,119.5C 760.791,118.596 759.791,118.263 758.5,118.5C 752.38,118.147 746.38,117.147 740.5,115.5C 738.103,113.805 735.437,112.472 732.5,111.5C 731.167,109.5 729.5,107.833 727.5,106.5C 727.204,104.597 726.537,102.93 725.5,101.5C 724.172,95.8021 725.172,90.4688 728.5,85.5C 730.963,83.5389 733.297,81.3722 735.5,79C 737.217,77.4412 739.217,76.6079 741.5,76.5C 749.372,74.7284 757.372,74.0617 765.5,74.5 Z"/></g>
<g><path style="opacity:1" fill="#070707" d="M 837.5,73.5 C 840.273,74.6572 843.273,75.3239 846.5,75.5C 847.791,75.2627 848.791,75.596 849.5,76.5C 849.973,77.9063 850.973,78.573 852.5,78.5C 852.973,79.9063 853.973,80.573 855.5,80.5C 855.738,82.4044 856.738,83.7377 858.5,84.5C 860.274,87.9265 861.274,91.5931 861.5,95.5C 861.171,110.676 861.504,125.676 862.5,140.5C 862.5,141.167 862.5,141.833 862.5,142.5C 856.355,143.49 850.022,143.823 843.5,143.5C 843.167,143.5 842.833,143.5 842.5,143.5C 842.5,143.167 842.5,142.833 842.5,142.5C 842.719,141.325 842.386,140.325 841.5,139.5C 839.739,140.035 838.406,141.035 837.5,142.5C 837.027,143.906 836.027,144.573 834.5,144.5C 832.447,144.402 830.78,145.069 829.5,146.5C 822.457,146.72 815.457,146.386 808.5,145.5C 807.209,145.737 806.209,145.404 805.5,144.5C 805.027,143.094 804.027,142.427 802.5,142.5C 801.833,141.167 800.833,140.167 799.5,139.5C 797.819,136.797 796.153,134.131 794.5,131.5C 794.294,127.102 794.627,122.768 795.5,118.5C 795.5,118.167 795.5,117.833 795.5,117.5C 797.262,116.738 798.262,115.404 798.5,113.5C 800.858,111.471 803.192,109.471 805.5,107.5C 806.492,107.672 807.158,107.338 807.5,106.5C 808.791,106.737 809.791,106.404 810.5,105.5C 813.152,105.59 815.485,104.924 817.5,103.5C 823.023,101.863 828.69,100.863 834.5,100.5C 839.177,99.8775 840.844,97.5442 839.5,93.5C 838.781,91.1119 837.115,89.6119 834.5,89C 831.5,88.3333 828.5,88.3333 825.5,89C 824.058,89.3768 823.058,90.2101 822.5,91.5C 820.018,92.6627 818.684,94.6627 818.5,97.5C 811.833,97.5 805.167,97.5 798.5,97.5C 798.5,96.1667 798.5,94.8333 798.5,93.5C 800.074,91.8984 800.741,89.8984 800.5,87.5C 801.906,87.0269 802.573,86.0269 802.5,84.5C 804.167,83.5 805.5,82.1667 806.5,80.5C 807.872,79.4884 809.205,78.4884 810.5,77.5C 813.018,76.7362 815.351,75.7362 817.5,74.5C 817.833,74.5 818.167,74.5 818.5,74.5C 821.059,74.8016 823.393,74.4682 825.5,73.5C 829.452,72.3216 833.452,72.3216 837.5,73.5 Z M 839.5,122.5 C 838.89,123.391 838.557,124.391 838.5,125.5C 837.167,126.167 836.167,127.167 835.5,128.5C 833.447,128.402 831.78,129.069 830.5,130.5C 830.167,130.5 829.833,130.5 829.5,130.5C 826.989,130.162 824.655,130.162 822.5,130.5C 821.522,130.023 820.689,129.357 820,128.5C 819.601,128.728 819.435,129.062 819.5,129.5C 816.782,127.618 816.115,125.285 817.5,122.5C 817.557,121.391 817.89,120.391 818.5,119.5C 819.222,119.918 819.722,120.584 820,121.5C 820.921,120.292 821.421,118.958 821.5,117.5C 823.786,117.405 825.786,116.738 827.5,115.5C 829.292,115.634 830.958,115.301 832.5,114.5C 834.861,114.326 837.194,113.993 839.5,113.5C 839.5,116.5 839.5,119.5 839.5,122.5 Z"/></g>
<g><path style="opacity:0.106" fill="#bbbbbb" d="M 362.5,99.5 C 362.5,106.5 362.5,113.5 362.5,120.5C 361.504,106.01 361.171,91.3428 361.5,76.5C 354.167,76.5 346.833,76.5 339.5,76.5C 339.5,77.5 339.5,78.5 339.5,79.5C 338.624,79.6309 337.957,79.2975 337.5,78.5C 338.098,77.2054 338.598,75.8721 339,74.5C 346.808,75.5851 354.641,75.7517 362.5,75C 362.661,83.0544 362.661,91.2211 362.5,99.5 Z"/></g>
<g><path style="opacity:0.097" fill="#e0e0e0" d="M 406.5,75.5 C 405.833,75.5 405.5,75.8333 405.5,76.5C 405.167,76.5 404.833,76.5 404.5,76.5C 397.5,76.5 390.5,76.5 383.5,76.5C 383.167,76.5 382.833,76.5 382.5,76.5C 382.369,75.7611 382.536,75.0944 383,74.5C 389.121,75.4328 395.121,75.7661 401,75.5C 402.99,72.9298 404.823,72.9298 406.5,75.5 Z"/></g>
<g><path style="opacity:0.145" fill="#dfdfdf" d="M 443.5,67.5 C 442.735,70.0961 442.401,72.7628 442.5,75.5C 445.382,74.7201 448.048,74.3868 450.5,74.5C 453.75,72.7095 455.583,73.7095 456,77.5C 456.245,75.3367 457.245,73.67 459,72.5C 459.617,73.4491 459.451,74.2825 458.5,75C 461.146,75.4974 463.813,75.6641 466.5,75.5C 466.5,75.8333 466.5,76.1667 466.5,76.5C 463.5,76.5 460.5,76.5 457.5,76.5C 457.5,77.5 457.5,78.5 457.5,79.5C 455.869,83.2325 454.869,87.2325 454.5,91.5C 454.5,86.5 454.5,81.5 454.5,76.5C 450.167,76.5 445.833,76.5 441.5,76.5C 441.336,73.8127 441.503,71.146 442,68.5C 442.383,67.944 442.883,67.6107 443.5,67.5 Z"/></g>
<g><path style="opacity:0.004" fill="#fefffe" d="M 450.5,74.5 C 449.833,73.1667 449.833,73.1667 450.5,74.5 Z"/></g>
<g><path style="opacity:0.145" fill="#dadada" d="M 489.5,54.5 C 490.343,56.4872 491.01,58.6539 491.5,61C 490.833,65.5775 490.499,70.4109 490.5,75.5C 493.448,75.7771 496.281,75.4438 499,74.5C 500.302,75.0848 501.469,75.7515 502.5,76.5C 502.167,76.5 501.833,76.5 501.5,76.5C 497.5,76.5 493.5,76.5 489.5,76.5C 489.5,69.5 489.5,62.5 489.5,55.5C 489.5,55.1667 489.5,54.8333 489.5,54.5 Z"/></g>
<g><path style="opacity:0.111" fill="#dedede" d="M 674.5,76.5 C 667.833,76.5 661.167,76.5 654.5,76.5C 653.596,77.209 653.263,78.209 653.5,79.5C 651.775,79.1575 651.275,78.1575 652,76.5C 653.009,75.3418 654.342,74.6752 656,74.5C 662.333,75.016 668.499,75.6827 674.5,76.5 Z"/></g>
<g><path style="opacity:0.02" fill="#ececec" d="M 687.5,74.5 C 685.574,75.4861 683.574,76.4861 681.5,77.5C 681.369,76.6236 681.702,75.9569 682.5,75.5C 684.059,74.9264 685.559,74.2598 687,73.5C 687.399,73.7284 687.565,74.0618 687.5,74.5 Z"/></g>
<g><path style="opacity:1" fill="#030303" d="M 687.5,74.5 C 687.833,74.5 688.167,74.5 688.5,74.5C 692.167,74.5 695.833,74.5 699.5,74.5C 701.214,75.7384 703.214,76.405 705.5,76.5C 707.153,76.6596 708.486,77.3263 709.5,78.5C 711.118,80.785 713.118,82.785 715.5,84.5C 715.66,86.153 716.326,87.4863 717.5,88.5C 718.461,106.799 718.794,125.132 718.5,143.5C 711.5,143.5 704.5,143.5 697.5,143.5C 697.829,129.99 697.496,116.656 696.5,103.5C 697.075,99.8453 696.075,96.8453 693.5,94.5C 689.648,92.3518 685.648,92.0184 681.5,93.5C 680.504,93.4142 679.671,93.7476 679,94.5C 677.441,96.2166 676.608,98.2166 676.5,100.5C 675.504,114.657 675.171,128.99 675.5,143.5C 668.5,143.5 661.5,143.5 654.5,143.5C 654.5,121.167 654.5,98.8333 654.5,76.5C 661.167,76.5 667.833,76.5 674.5,76.5C 674.5,77.1667 674.5,77.8333 674.5,78.5C 674.05,84.6525 675.384,84.9858 678.5,79.5C 679.833,79.5 680.5,78.8333 680.5,77.5C 680.833,77.5 681.167,77.5 681.5,77.5C 683.574,76.4861 685.574,75.4861 687.5,74.5 Z"/></g>
<g><path style="opacity:0.039" fill="#dfdfdf" d="M 817.5,74.5 C 815.351,75.7362 813.018,76.7362 810.5,77.5C 810.577,76.2502 811.244,75.4169 812.5,75C 814.101,74.7266 815.601,74.2266 817,73.5C 817.399,73.7284 817.565,74.0618 817.5,74.5 Z"/></g>
<g><path style="opacity:0.78" fill="#8c8c8c" d="M 539.5,75.5 C 538.713,77.1042 537.38,77.7709 535.5,77.5C 535.369,76.7611 535.536,76.0944 536,75.5C 536.986,76.1712 538.153,76.1712 539.5,75.5 Z"/></g>
<g><path style="opacity:0.42" fill="#c0c0c0" d="M 598.5,75.5 C 597.486,76.6737 596.153,77.3404 594.5,77.5C 595.287,75.8958 596.62,75.2291 598.5,75.5 Z"/></g>
<g><path style="opacity:1" fill="#040404" d="M 362.5,120.5 C 362.232,122.099 362.566,123.432 363.5,124.5C 363.427,126.027 364.094,127.027 365.5,127.5C 365.611,128.117 365.944,128.617 366.5,129C 370.027,129.808 373.36,129.641 376.5,128.5C 376.842,127.662 377.508,127.328 378.5,127.5C 380.873,125.421 382.206,122.754 382.5,119.5C 383.496,105.343 383.829,91.0097 383.5,76.5C 390.5,76.5 397.5,76.5 404.5,76.5C 404.5,98.8333 404.5,121.167 404.5,143.5C 397.549,144.066 390.882,143.399 384.5,141.5C 384.719,140.325 384.386,139.325 383.5,138.5C 382.893,138.624 382.56,138.957 382.5,139.5C 382.5,139.833 382.5,140.167 382.5,140.5C 381.833,140.833 381.167,141.167 380.5,141.5C 378.973,141.427 377.973,142.094 377.5,143.5C 370.967,145.206 364.301,145.872 357.5,145.5C 355.898,143.926 353.898,143.259 351.5,143.5C 351.027,142.094 350.027,141.427 348.5,141.5C 343.91,136.98 340.91,131.647 339.5,125.5C 339.5,123.5 339.5,121.5 339.5,119.5C 339.5,112.833 339.5,106.167 339.5,99.5C 339.5,92.8333 339.5,86.1667 339.5,79.5C 339.5,78.5 339.5,77.5 339.5,76.5C 346.833,76.5 354.167,76.5 361.5,76.5C 361.171,91.3428 361.504,106.01 362.5,120.5 Z"/></g>
<g><path style="opacity:0.102" fill="#d6d6d6" d="M 420.5,62.5 C 419.686,67.1191 419.353,71.7858 419.5,76.5C 416.167,76.5 412.833,76.5 409.5,76.5C 409.5,81.5 409.5,86.5 409.5,91.5C 408.517,87.7016 408.183,83.7016 408.5,79.5C 407.5,79.5 406.5,79.5 405.5,79.5C 405.5,78.5 405.5,77.5 405.5,76.5C 406.167,76.5 406.5,76.1667 406.5,75.5C 407.492,75.6716 408.158,75.3382 408.5,74.5C 408.833,74.5 409.167,74.5 409.5,74.5C 412.304,75.6378 415.304,75.8045 418.5,75C 418.167,74.6667 417.833,74.3333 417.5,74C 418.288,70.9243 418.788,67.7577 419,64.5C 419.278,63.5842 419.778,62.9175 420.5,62.5 Z"/></g>
<g><path style="opacity:0.015" fill="#e8e8e8" d="M 530.5,77.5 C 532.167,78.8333 533.833,78.8333 535.5,77.5C 534.833,78.8333 533.833,79.8333 532.5,80.5C 532.158,79.6618 531.492,79.3284 530.5,79.5C 530.5,78.8333 530.5,78.1667 530.5,77.5 Z"/></g>
<g><path style="opacity:0.051" fill="#dedede" d="M 810.5,77.5 C 809.205,78.4884 807.872,79.4884 806.5,80.5C 806.389,79.8826 806.056,79.3826 805.5,79C 807.025,77.9914 808.692,77.4914 810.5,77.5 Z"/></g>
<g><path style="opacity:0.157" fill="#bcbcbc" d="M 849.5,76.5 C 851.179,76.2852 852.179,76.9519 852.5,78.5C 850.973,78.573 849.973,77.9063 849.5,76.5 Z"/></g>
<g><path style="opacity:0.086" fill="#bdbdbd" d="M 174.5,74.5 C 175.219,76.0913 176.219,77.5913 177.5,79C 176.944,79.3826 176.611,79.8826 176.5,80.5C 174.926,78.8984 174.259,76.8984 174.5,74.5 Z"/></g>
<g><path style="opacity:0.039" fill="#cecece" d="M 557.5,75.5 C 563.164,75.5062 566.831,78.1729 568.5,83.5C 565.348,79.9983 561.681,77.3316 557.5,75.5 Z"/></g>
<g><path style="opacity:0.733" fill="#7a7a7a" d="M 594.5,77.5 C 594.027,78.9063 593.027,79.573 591.5,79.5C 591.973,78.0937 592.973,77.427 594.5,77.5 Z"/></g>
<g><path style="opacity:0.639" fill="#a4a4a4" d="M 680.5,77.5 C 680.5,78.8333 679.833,79.5 678.5,79.5C 678.987,78.5266 679.487,77.5266 680,76.5C 680.399,76.7284 680.565,77.0618 680.5,77.5 Z"/></g>
<g><path style="opacity:0.039" fill="#c0c0c0" d="M 852.5,78.5 C 854.027,78.427 855.027,79.0937 855.5,80.5C 853.973,80.573 852.973,79.9063 852.5,78.5 Z"/></g>
<g><path style="opacity:0.022" fill="#f8f8f8" d="M 159.5,79.5 C 159.5,79.8333 159.5,80.1667 159.5,80.5C 156.833,80.5 154.167,80.5 151.5,80.5C 145.833,80.5 140.167,80.5 134.5,80.5C 132.708,79.6909 130.708,79.1909 128.5,79C 132.089,78.7931 135.589,78.2931 139,77.5C 145.548,79.438 152.382,80.1046 159.5,79.5 Z"/></g>
<g><path style="opacity:0.05" fill="#f1f1f1" d="M 382.5,79.5 C 382.5,86.1667 382.5,92.8333 382.5,99.5C 381.471,97.0524 380.804,94.3857 380.5,91.5C 381.367,88.936 381.367,86.2693 380.5,83.5C 380.585,81.6672 381.252,80.3339 382.5,79.5 Z"/></g>
<g><path style="opacity:0.602" fill="#747474" d="M 530.5,59.5 C 530.5,65.1667 530.5,70.8333 530.5,76.5C 530.5,76.8333 530.5,77.1667 530.5,77.5C 530.5,78.1667 530.5,78.8333 530.5,79.5C 530.409,81.6977 531.075,82.0311 532.5,80.5C 532.585,81.9953 531.919,82.9953 530.5,83.5C 529.501,72.5202 529.168,61.5202 529.5,50.5C 522.5,50.5 515.5,50.5 508.5,50.5C 508.5,81.5 508.5,112.5 508.5,143.5C 515.5,143.5 522.5,143.5 529.5,143.5C 529.171,128.99 529.504,114.657 530.5,100.5C 530.5,106.833 530.5,113.167 530.5,119.5C 530.687,128.035 530.687,136.368 530.5,144.5C 522.833,144.5 515.167,144.5 507.5,144.5C 507.5,142.833 507.5,141.167 507.5,139.5C 507.5,138.5 507.5,137.5 507.5,136.5C 507.5,134.5 507.5,132.5 507.5,130.5C 507.5,126.833 507.5,123.167 507.5,119.5C 507.5,112.833 507.5,106.167 507.5,99.5C 507.5,96.1667 507.5,92.8333 507.5,89.5C 507.652,76.2952 507.485,62.9619 507,49.5C 514.76,48.7378 522.593,48.7378 530.5,49.5C 531.368,52.9355 531.368,56.2688 530.5,59.5 Z"/></g>
<g><path style="opacity:0.063" fill="#c1c1c1" d="M 637.5,79.5 C 639.833,79.8333 641.167,81.1667 641.5,83.5C 639.833,82.5 638.5,81.1667 637.5,79.5 Z"/></g>
<g><path style="opacity:0.039" fill="#bdbdbd" d="M 709.5,78.5 C 712.839,79.19 714.839,81.19 715.5,84.5C 713.118,82.785 711.118,80.785 709.5,78.5 Z"/></g>
<g><path style="opacity:0.173" fill="#dbdbdb" d="M 62.5,81.5 C 61.5,81.5 60.5,81.5 59.5,81.5C 59.9567,79.4433 60.9567,79.4433 62.5,81.5 Z"/></g>
<g><path style="opacity:0.475" fill="#8f8f8f" d="M 501.5,76.5 C 501.833,76.5 502.167,76.5 502.5,76.5C 502.587,81.4853 502.587,86.4853 502.5,91.5C 502.167,91.5 501.833,91.5 501.5,91.5C 501.5,86.5 501.5,81.5 501.5,76.5 Z"/></g>
<g><path style="opacity:0.031" fill="#dadada" d="M 119.5,81.5 C 118.761,81.369 118.094,81.5357 117.5,82C 116.023,83.8121 114.69,85.6455 113.5,87.5C 113.142,82.5152 115.142,80.5152 119.5,81.5 Z"/></g>
<g><path style="opacity:0.999" fill="#131313" d="M 134.5,80.5 C 140.167,80.5 145.833,80.5 151.5,80.5C 156.019,81.3633 160.685,82.1966 165.5,83C 161.703,84.4239 157.703,84.9239 153.5,84.5C 146.679,83.3454 139.679,83.1787 132.5,84C 131.663,85.0113 131.33,86.1779 131.5,87.5C 140.167,87.5 148.833,87.5 157.5,87.5C 159.099,87.2322 160.432,87.5655 161.5,88.5C 160.833,88.8333 160.167,89.1667 159.5,89.5C 149.494,89.3335 139.494,89.5002 129.5,90C 128.226,90.9772 128.226,91.8106 129.5,92.5C 130.167,92.5 130.833,92.5 131.5,92.5C 140.173,92.3336 148.84,92.5002 157.5,93C 156.934,93.9947 156.267,94.828 155.5,95.5C 145.81,95.1682 136.144,95.5016 126.5,96.5C 126.291,97.086 125.957,97.586 125.5,98C 128.146,98.4974 130.813,98.6641 133.5,98.5C 158.396,98.6074 158.396,99.6074 133.5,101.5C 127.71,101.438 122.376,102.771 117.5,105.5C 115.703,106.393 114.37,107.726 113.5,109.5C 113.973,110.906 114.973,111.573 116.5,111.5C 118.51,114.027 121.177,115.861 124.5,117C 128.307,118.881 132.307,120.047 136.5,120.5C 140.312,121.324 144.312,121.824 148.5,122C 146.478,125.534 143.478,127.034 139.5,126.5C 136.733,126.142 134.067,125.475 131.5,124.5C 129.898,122.926 127.898,122.259 125.5,122.5C 123.162,120.96 120.495,120.294 117.5,120.5C 116.329,119.655 114.995,118.989 113.5,118.5C 113.167,118.5 112.833,118.5 112.5,118.5C 111.365,116.787 109.698,116.12 107.5,116.5C 105.181,116.008 103.181,115.008 101.5,113.5C 99.1515,111.659 96.4848,110.326 93.5,109.5C 92.5084,109.672 91.8417,109.338 91.5,108.5C 87.342,105.586 83.0086,102.919 78.5,100.5C 77.5084,100.672 76.8417,100.338 76.5,99.5C 75.4863,98.3263 74.153,97.6596 72.5,97.5C 71.7095,96.5987 70.7095,95.9321 69.5,95.5C 67.1815,95.0075 65.1815,94.0075 63.5,92.5C 62.4863,91.3263 61.153,90.6596 59.5,90.5C 58.391,90.4431 57.391,90.1098 56.5,89.5C 55.8166,87.8235 54.4832,87.1568 52.5,87.5C 52.1667,87.5 51.8333,87.5 51.5,87.5C 50.2112,86.3634 49.2112,85.0301 48.5,83.5C 48.4701,82.5028 48.9701,81.8361 50,81.5C 52.0299,81.9537 53.8632,82.6204 55.5,83.5C 55.9169,84.1239 56.5836,84.4573 57.5,84.5C 58.7133,84.2528 59.38,83.5862 59.5,82.5C 59.5,82.1667 59.5,81.8333 59.5,81.5C 60.5,81.5 61.5,81.5 62.5,81.5C 64.153,81.6596 65.4863,82.3263 66.5,83.5C 70.8662,86.0116 75.5329,88.0116 80.5,89.5C 84.116,90.3143 87.4493,91.6477 90.5,93.5C 90.1788,95.0481 89.1788,95.7148 87.5,95.5C 87.1667,95.5 86.8333,95.5 86.5,95.5C 86.1583,94.6618 85.4916,94.3284 84.5,94.5C 84.1667,94.5 83.8333,94.5 83.5,94.5C 83.1583,93.6618 82.4916,93.3284 81.5,93.5C 79.604,92.5195 77.604,91.5195 75.5,90.5C 74.1667,91.1667 74.1667,91.8333 75.5,92.5C 77.0754,93.4565 78.742,94.1231 80.5,94.5C 81.287,96.1042 82.6203,96.7709 84.5,96.5C 86.78,98.2227 89.4467,98.8893 92.5,98.5C 93.5,98.5 94.5,98.5 95.5,98.5C 104.045,98.8853 110.045,95.2187 113.5,87.5C 114.69,85.6455 116.023,83.8121 117.5,82C 118.094,81.5357 118.761,81.369 119.5,81.5C 124.438,80.6076 129.438,80.2743 134.5,80.5 Z"/></g>
<g><path style="opacity:0.102" fill="#d4d4d4" d="M 674.5,78.5 C 675.708,79.2341 677.041,79.5674 678.5,79.5C 675.384,84.9858 674.05,84.6525 674.5,78.5 Z"/></g>
<g><path style="opacity:0.004" fill="#dddddd" d="M 781.5,79.5 C 785.224,81.263 787.224,84.263 787.5,88.5C 785.507,85.5051 783.507,82.5051 781.5,79.5 Z"/></g>
<g><path style="opacity:0.604" fill="#a1a1a1" d="M 855.5,80.5 C 857.262,81.2623 858.262,82.5956 858.5,84.5C 856.738,83.7377 855.738,82.4044 855.5,80.5 Z"/></g>
<g><path style="opacity:0.667" fill="#a9a9a9" d="M 741.5,75.5 C 741.5,75.8333 741.5,76.1667 741.5,76.5C 739.217,76.6079 737.217,77.4412 735.5,79C 733.297,81.3722 730.963,83.5389 728.5,85.5C 731.115,79.8801 735.448,76.5468 741.5,75.5 Z"/></g>
<g><path style="opacity:0.502" fill="#a8a8a8" d="M 806.5,80.5 C 805.5,82.1667 804.167,83.5 802.5,84.5C 802.833,82.1667 804.167,80.8333 806.5,80.5 Z"/></g>
<g><path style="opacity:0.514" fill="#a6a6a6" d="M 59.5,82.5 C 59.38,83.5862 58.7133,84.2528 57.5,84.5C 56.5836,84.4573 55.9169,84.1239 55.5,83.5C 56.9587,83.5674 58.2921,83.2341 59.5,82.5 Z"/></g>
<g><path style="opacity:0.808" fill="#828282" d="M 48.5,83.5 C 49.2112,85.0301 50.2112,86.3634 51.5,87.5C 48.3657,87.2934 47.3657,85.9601 48.5,83.5 Z"/></g>
<g><path style="opacity:0.037" fill="#cccccc" d="M 151.5,80.5 C 154.167,80.5 156.833,80.5 159.5,80.5C 161.806,80.9926 164.139,81.3259 166.5,81.5C 166.67,82.8221 166.337,83.9887 165.5,85C 163.5,85.3333 161.5,85.6667 159.5,86C 160.624,86.2492 161.624,86.7492 162.5,87.5C 162.376,88.1067 162.043,88.44 161.5,88.5C 160.432,87.5655 159.099,87.2322 157.5,87.5C 150.352,86.5084 143.019,86.175 135.5,86.5C 135.5,86.1667 135.5,85.8333 135.5,85.5C 137.099,85.7678 138.432,85.4345 139.5,84.5C 144.167,84.5 148.833,84.5 153.5,84.5C 157.703,84.9239 161.703,84.4239 165.5,83C 160.685,82.1966 156.019,81.3633 151.5,80.5 Z"/></g>
<g><path style="opacity:0.259" fill="#bbbbbb" d="M 568.5,83.5 C 569.906,83.9731 570.573,84.9731 570.5,86.5C 569.094,86.0269 568.427,85.0269 568.5,83.5 Z"/></g>
<g><path style="opacity:0.329" fill="#aaaaaa" d="M 641.5,83.5 C 642.906,83.9731 643.573,84.9731 643.5,86.5C 642.094,86.0269 641.427,85.0269 641.5,83.5 Z"/></g>
<g><path style="opacity:0.017" fill="#d1d1d1" d="M 66.5,83.5 C 69.6738,83.6644 72.5071,84.6644 75,86.5C 77.5431,85.7308 79.3764,86.7308 80.5,89.5C 75.5329,88.0116 70.8662,86.0116 66.5,83.5 Z"/></g>
<g><path style="opacity:0.802" fill="#4d4d4d" d="M 153.5,84.5 C 148.833,84.5 144.167,84.5 139.5,84.5C 137.901,84.2322 136.568,84.5655 135.5,85.5C 134.883,85.3893 134.383,85.056 134,84.5C 132.164,86.1311 132.664,86.7978 135.5,86.5C 143.019,86.175 150.352,86.5084 157.5,87.5C 148.833,87.5 140.167,87.5 131.5,87.5C 131.33,86.1779 131.663,85.0113 132.5,84C 139.679,83.1787 146.679,83.3454 153.5,84.5 Z"/></g>
<g><path style="opacity:0.031" fill="#e4e4e4" d="M 715.5,84.5 C 717.762,85.3449 718.429,86.6783 717.5,88.5C 716.326,87.4863 715.66,86.153 715.5,84.5 Z"/></g>
<g><path style="opacity:0.376" fill="#a2a2a2" d="M 802.5,84.5 C 802.573,86.0269 801.906,87.0269 800.5,87.5C 800.427,85.9731 801.094,84.9731 802.5,84.5 Z"/></g>
<g><path style="opacity:0.953" fill="#6b6b6b" d="M 52.5,87.5 C 54.4832,87.1568 55.8166,87.8235 56.5,89.5C 54.847,89.3404 53.5137,88.6737 52.5,87.5 Z"/></g>
<g><path style="opacity:0.528" fill="#606060" d="M 159.5,89.5 C 153.021,90.4907 146.354,90.824 139.5,90.5C 136.482,90.3354 133.482,90.502 130.5,91C 129.944,91.3826 129.611,91.8826 129.5,92.5C 128.226,91.8106 128.226,90.9772 129.5,90C 139.494,89.5002 149.494,89.3335 159.5,89.5 Z"/></g>
<g><path style="opacity:0.011" fill="#fefffe" d="M 507.5,89.5 C 507.5,92.8333 507.5,96.1667 507.5,99.5C 506.761,99.631 506.094,99.4643 505.5,99C 506.132,95.7296 506.799,92.5629 507.5,89.5 Z"/></g>
<g><path style="opacity:0.028" fill="#e2e2e2" d="M 161.5,88.5 C 160.109,90.921 159.275,93.5877 159,96.5C 157.993,94.2584 157.159,94.5918 156.5,97.5C 157.376,97.3691 158.043,97.7025 158.5,98.5C 156.955,99.4519 155.288,99.7852 153.5,99.5C 149.285,97.5636 144.619,96.8969 139.5,97.5C 139.5,97.1667 139.5,96.8333 139.5,96.5C 145.026,96.8214 150.36,96.4881 155.5,95.5C 156.267,94.828 156.934,93.9947 157.5,93C 148.84,92.5002 140.173,92.3336 131.5,92.5C 134.167,91.8333 136.833,91.1667 139.5,90.5C 146.354,90.824 153.021,90.4907 159.5,89.5C 160.167,89.1667 160.833,88.8333 161.5,88.5 Z"/></g>
<g><path style="opacity:0.014" fill="#e9e9e9" d="M 618.5,89.5 C 620.404,89.7376 621.738,90.7376 622.5,92.5C 621.833,92.5 621.5,92.8333 621.5,93.5C 620.026,92.5637 619.026,91.2303 618.5,89.5 Z"/></g>
<g><path style="opacity:0.561" fill="#adadad" d="M 763.5,90.5 C 764.833,90.5 765.5,91.1667 765.5,92.5C 764.5,92.1667 763.833,91.5 763.5,90.5 Z"/></g>
<g><path style="opacity:0.114" fill="#cbcbcb" d="M 59.5,90.5 C 61.153,90.6596 62.4863,91.3263 63.5,92.5C 61.5168,92.8432 60.1834,92.1765 59.5,90.5 Z"/></g>
<g><path style="opacity:0.106" fill="#e3e3e3" d="M 457.5,91.5 C 460.5,91.5 463.5,91.5 466.5,91.5C 466.5,92.5 466.5,93.5 466.5,94.5C 463.189,94.117 460.189,93.117 457.5,91.5 Z"/></g>
<g><path style="opacity:0.282" fill="#a9a9a9" d="M 537.5,92.5 C 539.5,91.1667 541.5,91.1667 543.5,92.5C 541.389,93.3799 539.389,93.3799 537.5,92.5 Z"/></g>
<g><path style="opacity:0.004" fill="#d5d5d5" d="M 607.5,90.5 C 606.5,92.1667 605.167,93.5 603.5,94.5C 603.833,92.1667 605.167,90.8333 607.5,90.5 Z"/></g>
<g><path style="opacity:0.047" fill="#c2c2c2" d="M 839.5,93.5 C 837.033,93.1419 834.866,91.8086 833,89.5C 831.887,90.7111 830.72,90.7111 829.5,89.5C 828.295,91.1376 826.962,91.4709 825.5,90.5C 824.787,92.435 823.787,92.7683 822.5,91.5C 823.058,90.2101 824.058,89.3768 825.5,89C 828.5,88.3333 831.5,88.3333 834.5,89C 837.115,89.6119 838.781,91.1119 839.5,93.5 Z"/></g>
<g><path style="opacity:0.072" fill="#cfcfcf" d="M 81.5,93.5 C 80.8333,93.5 80.5,93.8333 80.5,94.5C 78.742,94.1231 77.0754,93.4565 75.5,92.5C 74.1667,91.8333 74.1667,91.1667 75.5,90.5C 77.604,91.5195 79.604,92.5195 81.5,93.5 Z"/></g>
<g><path style="opacity:0.057" fill="#dadada" d="M 591.5,79.5 C 585.348,83.8039 582.348,89.8039 582.5,97.5C 582.5,97.8333 582.5,98.1667 582.5,98.5C 581.761,98.631 581.094,98.4643 580.5,98C 580.79,91.1905 583.457,85.1905 588.5,80C 589.448,79.5172 590.448,79.3505 591.5,79.5 Z"/></g>
<g><path style="opacity:0.525" fill="#838383" d="M 800.5,87.5 C 800.741,89.8984 800.074,91.8984 798.5,93.5C 798.5,93.1667 798.5,92.8333 798.5,92.5C 798.402,90.4471 799.069,88.7804 800.5,87.5 Z"/></g>
<g><path style="opacity:0.057" fill="#c2c2c2" d="M 822.5,91.5 C 821.603,94.2127 820.27,96.546 818.5,98.5C 818.5,98.1667 818.5,97.8333 818.5,97.5C 818.684,94.6627 820.018,92.6627 822.5,91.5 Z"/></g>
<g><path style="opacity:0.011" fill="#e6e6e6" d="M 858.5,84.5 C 859.376,84.3691 860.043,84.7025 860.5,85.5C 863.236,90.3956 863.903,95.3956 862.5,100.5C 862.784,98.5853 862.451,96.9187 861.5,95.5C 861.274,91.5931 860.274,87.9265 858.5,84.5 Z"/></g>
<g><path style="opacity:0.102" fill="#e0e0e0" d="M 38.5,79.5 C 36.7162,87.7065 36.0495,96.0398 36.5,104.5C 35.3454,97.6791 35.1787,90.6791 36,83.5C 36.2004,81.6803 37.0337,80.347 38.5,79.5 Z"/></g>
<g><path style="opacity:0.082" fill="#cecece" d="M 535.5,93.5 C 535.167,94.5 534.5,95.1667 533.5,95.5C 533.5,94.1667 534.167,93.5 535.5,93.5 Z"/></g>
<g><path style="opacity:0.043" fill="#cccccc" d="M 81.5,93.5 C 82.4916,93.3284 83.1583,93.6618 83.5,94.5C 82.4427,95.206 82.7761,95.5393 84.5,95.5C 84.5,95.8333 84.5,96.1667 84.5,96.5C 82.6203,96.7709 81.287,96.1042 80.5,94.5C 81.1667,94.5 81.5,94.1667 81.5,93.5 Z"/></g>
<g><path style="opacity:0.424" fill="#a7a7a7" d="M 765.5,92.5 C 767.213,93.6354 767.88,95.302 767.5,97.5C 766.463,96.0697 765.796,94.403 765.5,92.5 Z"/></g>
<g><path style="opacity:0.247" fill="#a9a9a9" d="M 155.5,95.5 C 150.36,96.4881 145.026,96.8214 139.5,96.5C 135.818,96.3347 132.152,96.5014 128.5,97C 130.134,97.4935 131.801,97.6602 133.5,97.5C 133.5,97.8333 133.5,98.1667 133.5,98.5C 130.813,98.6641 128.146,98.4974 125.5,98C 125.957,97.586 126.291,97.086 126.5,96.5C 136.144,95.5016 145.81,95.1682 155.5,95.5 Z"/></g>
<g><path style="opacity:0.004" fill="#e1e1e1" d="M 69.5,95.5 C 70.7095,95.9321 71.7095,96.5987 72.5,97.5C 70.8212,97.7148 69.8212,97.0481 69.5,95.5 Z"/></g>
<g><path style="opacity:0.133" fill="#cecece" d="M 90.5,93.5 C 91.9063,93.9731 92.573,94.9731 92.5,96.5C 91.1667,96.8333 91.1667,97.1667 92.5,97.5C 92.5,97.8333 92.5,98.1667 92.5,98.5C 89.4467,98.8893 86.78,98.2227 84.5,96.5C 85.8333,96.1667 85.8333,95.8333 84.5,95.5C 84.5,95.1667 84.5,94.8333 84.5,94.5C 85.4916,94.3284 86.1583,94.6618 86.5,95.5C 86.8333,96.8333 87.1667,96.8333 87.5,95.5C 89.1788,95.7148 90.1788,95.0481 90.5,93.5 Z"/></g>
<g><path style="opacity:0.069" fill="#cfcfcf" d="M 761.5,89.5 C 759.287,90.6053 757.12,90.6053 755,89.5C 752.15,91.0059 750.317,92.8392 749.5,95C 752.093,97.1137 754.76,98.947 757.5,100.5C 751.768,100.597 748.935,97.9307 749,92.5C 752.591,88.6234 756.758,87.6234 761.5,89.5 Z"/></g>
<g><path style="opacity:0.008" fill="#fefffe" d="M 790.5,96.5 C 791.833,97.1667 791.833,97.1667 790.5,96.5 Z"/></g>
<g><path style="opacity:0.165" fill="#e0e0e0" d="M 798.5,92.5 C 798.5,92.8333 798.5,93.1667 798.5,93.5C 798.5,94.8333 798.5,96.1667 798.5,97.5C 798.5,97.8333 798.5,98.1667 798.5,98.5C 797.637,99.463 796.97,99.463 796.5,98.5C 797.05,96.3432 797.717,94.3432 798.5,92.5 Z"/></g>
<g><path style="opacity:0.012" fill="#fefffe" d="M 837.5,97.5 C 836.833,96.1667 836.833,96.1667 837.5,97.5 Z"/></g>
<g><path style="opacity:0.129" fill="#d8d8d8" d="M 113.5,87.5 C 110.045,95.2187 104.045,98.8853 95.5,98.5C 102.458,97.5769 107.792,94.0769 111.5,88C 112.094,87.5357 112.761,87.369 113.5,87.5 Z"/></g>
<g><path style="opacity:0.584" fill="#919191" d="M 603.5,94.5 C 603.5,95.8333 603.5,97.1667 603.5,98.5C 601.901,98.2322 600.568,98.5655 599.5,99.5C 593.642,99.8222 587.975,99.4889 582.5,98.5C 582.5,98.1667 582.5,97.8333 582.5,97.5C 589.167,97.5 595.833,97.5 602.5,97.5C 602.263,96.209 602.596,95.209 603.5,94.5 Z"/></g>
<g><path style="opacity:0.025" fill="#e1e1e1" d="M 681.5,93.5 C 680.084,96.6682 678.417,99.6682 676.5,102.5C 676.5,101.833 676.5,101.167 676.5,100.5C 676.608,98.2166 677.441,96.2166 679,94.5C 679.671,93.7476 680.504,93.4142 681.5,93.5 Z"/></g>
<g><path style="opacity:0.012" fill="#fefffe" d="M 758.5,97.5 C 759.833,98.1667 759.833,98.1667 758.5,97.5 Z"/></g>
<g><path style="opacity:0.221" fill="#c6c6c6" d="M 787.5,88.5 C 788.539,91.1412 789.539,93.8078 790.5,96.5C 789.167,96.8333 789.167,97.1667 790.5,97.5C 791.859,99.0093 791.359,99.676 789,99.5C 781.826,99.2681 774.659,98.6015 767.5,97.5C 774.167,97.5 780.833,97.5 787.5,97.5C 787.5,94.5 787.5,91.5 787.5,88.5 Z"/></g>
<g><path style="opacity:0.556" fill="#727272" d="M 798.5,97.5 C 805.167,97.5 811.833,97.5 818.5,97.5C 818.5,97.8333 818.5,98.1667 818.5,98.5C 811.978,98.1765 805.645,98.5098 799.5,99.5C 798.833,99.5 798.5,99.1667 798.5,98.5C 798.5,98.1667 798.5,97.8333 798.5,97.5 Z"/></g>
<g><path style="opacity:0.016" fill="#f4f4f4" d="M 834.5,99.5 C 831.999,99.4891 831.832,98.8224 834,97.5C 834.464,98.0944 834.631,98.7611 834.5,99.5 Z"/></g>
<g><path style="opacity:0.267" fill="#bababa" d="M 839.5,93.5 C 840.844,97.5442 839.177,99.8775 834.5,100.5C 834.5,100.167 834.5,99.8333 834.5,99.5C 835.71,99.0679 836.71,98.4013 837.5,97.5C 838.674,96.4863 839.34,95.153 839.5,93.5 Z"/></g>
<g><path style="opacity:0.071" fill="#d7d7d7" d="M 72.5,97.5 C 74.153,97.6596 75.4863,98.3263 76.5,99.5C 74.6203,99.7709 73.287,99.1042 72.5,97.5 Z"/></g>
<g><path style="opacity:0.459" fill="#9c9c9c" d="M 295.5,49.5 C 295.5,49.8333 295.5,50.1667 295.5,50.5C 287.833,50.5 280.167,50.5 272.5,50.5C 272.5,81.5 272.5,112.5 272.5,143.5C 272.5,143.833 272.5,144.167 272.5,144.5C 271.001,139.755 270.334,134.755 270.5,129.5C 271.16,104.113 271.327,78.7802 271,53.5C 271.216,51.6161 271.883,49.9494 273,48.5C 279.989,49.1887 287.489,49.522 295.5,49.5 Z"/></g>
<g><path style="opacity:0.016" fill="#fdfdfd" d="M 339.5,99.5 C 339.5,106.167 339.5,112.833 339.5,119.5C 338.761,119.631 338.094,119.464 337.5,119C 338.15,112.401 338.816,105.901 339.5,99.5 Z"/></g>
<g><path style="opacity:0.011" fill="#fdfdfd" d="M 418.5,99.5 C 418.5,106.167 418.5,112.833 418.5,119.5C 417.761,119.631 417.094,119.464 416.5,119C 417.15,112.401 417.816,105.901 418.5,99.5 Z"/></g>
<g><path style="opacity:0.09" fill="#e6e6e6" d="M 501.5,91.5 C 501.833,91.5 502.167,91.5 502.5,91.5C 503.463,92.3635 503.463,93.0302 502.5,93.5C 498.835,92.7671 494.835,92.4338 490.5,92.5C 491.8,103.502 491.8,114.502 490.5,125.5C 489.505,114.346 489.172,103.012 489.5,91.5C 493.5,91.5 497.5,91.5 501.5,91.5 Z"/></g>
<g><path style="opacity:0.011" fill="#fefffe" d="M 573.5,99.5 C 574.231,104.855 574.898,110.355 575.5,116C 574.576,117.15 574.576,118.15 575.5,119C 574.906,119.464 574.239,119.631 573.5,119.5C 573.5,112.833 573.5,106.167 573.5,99.5 Z"/></g>
<g><path style="opacity:0.015" fill="#e6e6e6" d="M 622.5,92.5 C 623.622,94.2884 623.789,96.2884 623,98.5C 622.25,99.1258 621.416,99.6258 620.5,100C 613.157,101.503 605.824,103.003 598.5,104.5C 599.301,102.958 599.634,101.292 599.5,99.5C 601.451,99.2267 602.951,99.8934 604,101.5C 604.333,100.833 604.667,100.167 605,99.5C 605.689,100.357 606.522,101.023 607.5,101.5C 611.423,100.349 615.423,99.5154 619.5,99C 620.126,98.2496 620.626,97.4162 621,96.5C 621.333,96.8333 621.667,97.1667 622,97.5C 622.579,96.0715 622.412,94.7382 621.5,93.5C 622.167,93.5 622.5,93.1667 622.5,92.5 Z"/></g>
<g><path style="opacity:0.008" fill="#fefffe" d="M 646.5,99.5 C 647.239,99.369 647.906,99.5357 648.5,100C 647.183,106.136 647.183,112.303 648.5,118.5C 648.043,119.298 647.376,119.631 646.5,119.5C 646.5,112.833 646.5,106.167 646.5,99.5 Z"/></g>
<g><path style="opacity:0.738" fill="#6c6c6c" d="M 654.5,76.5 C 654.5,98.8333 654.5,121.167 654.5,143.5C 661.5,143.5 668.5,143.5 675.5,143.5C 675.171,128.99 675.504,114.657 676.5,100.5C 676.5,101.167 676.5,101.833 676.5,102.5C 676.5,108.167 676.5,113.833 676.5,119.5C 676.5,126.167 676.5,132.833 676.5,139.5C 676.784,141.415 676.451,143.081 675.5,144.5C 668.167,144.5 660.833,144.5 653.5,144.5C 653.5,142.167 653.5,139.833 653.5,137.5C 652.167,131.5 652.167,125.5 653.5,119.5C 653.5,112.833 653.5,106.167 653.5,99.5C 652.217,92.8409 652.217,86.1742 653.5,79.5C 653.263,78.209 653.596,77.209 654.5,76.5 Z"/></g>
<g><path style="opacity:0.008" fill="#fefffe" d="M 775.5,99.5 C 776.833,100.167 776.833,100.167 775.5,99.5 Z"/></g>
<g><path style="opacity:0.014" fill="#fefffe" d="M 799.5,99.5 C 804.844,99.334 810.177,99.5006 815.5,100C 810.037,99.9132 804.87,100.746 800,102.5C 799.517,101.552 799.351,100.552 799.5,99.5 Z"/></g>
<g><path style="opacity:0.012" fill="#fefffe" d="M 816.5,99.5 C 817.833,100.167 817.833,100.167 816.5,99.5 Z"/></g>
<g><path style="opacity:0.004" fill="#fefffe" d="M 818.5,99.5 C 819.833,100.167 819.833,100.167 818.5,99.5 Z"/></g>
<g><path style="opacity:0.573" fill="#737373" d="M 133.5,98.5 C 133.5,98.1667 133.5,97.8333 133.5,97.5C 135.5,97.5 137.5,97.5 139.5,97.5C 144.619,96.8969 149.285,97.5636 153.5,99.5C 152.809,101.022 151.642,102.022 150,102.5C 146.559,101.618 143.059,101.284 139.5,101.5C 137.5,101.5 135.5,101.5 133.5,101.5C 158.396,99.6074 158.396,98.6074 133.5,98.5 Z"/></g>
<g><path style="opacity:0.427" fill="#c9c9c9" d="M 764.5,101.5 C 762.585,101.784 760.919,101.451 759.5,100.5C 760.63,100.531 761.963,100.198 763.5,99.5C 764.298,99.9569 764.631,100.624 764.5,101.5 Z"/></g>
<g><path style="opacity:0.073" fill="#c3c3c3" d="M 133.5,101.5 C 135.5,101.5 137.5,101.5 139.5,101.5C 132.234,102.474 124.901,103.808 117.5,105.5C 122.376,102.771 127.71,101.438 133.5,101.5 Z"/></g>
<g><path style="opacity:0.651" fill="#626262" d="M 382.5,76.5 C 382.833,76.5 383.167,76.5 383.5,76.5C 383.829,91.0097 383.496,105.343 382.5,119.5C 382.5,117.833 382.5,116.167 382.5,114.5C 382.341,109.199 382.341,104.199 382.5,99.5C 382.5,92.8333 382.5,86.1667 382.5,79.5C 381.375,78.3478 381.375,77.3478 382.5,76.5 Z"/></g>
<g><path style="opacity:0.471" fill="#858585" d="M 643.5,86.5 C 645.876,90.3934 646.876,94.7268 646.5,99.5C 646.5,106.167 646.5,112.833 646.5,119.5C 646.5,126.167 646.5,132.833 646.5,139.5C 646.5,139.833 646.5,140.167 646.5,140.5C 645.669,125.005 645.169,109.339 645,93.5C 644.023,91.26 643.523,88.9267 643.5,86.5 Z"/></g>
<g><path style="opacity:0.098" fill="#c9c9c9" d="M 773.5,102.5 C 773.5,102.833 773.5,103.167 773.5,103.5C 770.219,103.58 767.219,102.913 764.5,101.5C 765.222,101.082 765.722,100.416 766,99.5C 767.13,100.114 768.463,100.114 770,99.5C 770.833,99.8333 771.667,100.167 772.5,100.5C 771.609,101.59 770.609,101.59 769.5,100.5C 768.304,100.846 768.304,101.346 769.5,102C 770.793,102.49 772.127,102.657 773.5,102.5 Z"/></g>
<g><path style="opacity:0.004" fill="#fefffe" d="M 773.5,102.5 C 773.897,101.475 774.563,101.308 775.5,102C 774.906,102.464 774.239,102.631 773.5,102.5 Z"/></g>
<g><path style="opacity:0.759" fill="#3b3b3b" d="M 441.5,91.5 C 441.5,109.167 441.5,126.833 441.5,144.5C 434.167,144.5 426.833,144.5 419.5,144.5C 419.5,144.167 419.5,143.833 419.5,143.5C 426.5,143.5 433.5,143.5 440.5,143.5C 440.17,125.992 440.503,108.659 441.5,91.5 Z"/></g>
<g><path style="opacity:0.329" fill="#a9a9a9" d="M 466.5,91.5 C 467.495,103.989 467.829,116.656 467.5,129.5C 466.521,126.375 466.187,123.042 466.5,119.5C 467.105,112.382 466.438,105.548 464.5,99C 465.582,97.6703 466.249,96.1703 466.5,94.5C 466.5,93.5 466.5,92.5 466.5,91.5 Z"/></g>
<g><path style="opacity:0.019" fill="#f3f3f3" d="M 531.5,98.5 C 531.245,105.21 531.578,112.043 532.5,119C 531.906,119.464 531.239,119.631 530.5,119.5C 530.5,113.167 530.5,106.833 530.5,100.5C 530.328,99.5084 530.662,98.8417 531.5,98.5 Z"/></g>
<g><path style="opacity:0.007" fill="#ededed" d="M 544.5,92.5 C 548.723,93.9308 550.723,96.9308 550.5,101.5C 550.5,107.167 550.5,112.833 550.5,118.5C 549.672,112.347 549.172,106.013 549,99.5C 547.988,96.7982 546.488,94.4649 544.5,92.5 Z"/></g>
<g><path style="opacity:0.233" fill="#c4c4c4" d="M 717.5,88.5 C 719.222,92.4274 720.222,96.7608 720.5,101.5C 720.069,106.721 719.902,112.055 720,117.5C 720.5,118 721,118.5 721.5,119C 720.214,122.233 719.547,125.733 719.5,129.5C 719.584,133.692 719.918,137.859 720.5,142C 720.316,143.376 719.649,144.209 718.5,144.5C 718.5,144.167 718.5,143.833 718.5,143.5C 718.794,125.132 718.461,106.799 717.5,88.5 Z"/></g>
<g><path style="opacity:0.013" fill="#dbdbdb" d="M 78.5,100.5 C 83.0086,102.919 87.342,105.586 91.5,108.5C 86.2247,107.304 81.8914,104.638 78.5,100.5 Z"/></g>
<g><path style="opacity:0.018" fill="#d9d9d9" d="M 177.5,88.5 C 180.16,98.0853 179.994,107.752 177,117.5C 176.583,118.756 175.75,119.423 174.5,119.5C 177.01,109.332 178.01,98.999 177.5,88.5 Z"/></g>
<g><path style="opacity:0.5" fill="#a6a6a6" d="M 404.5,76.5 C 404.833,76.5 405.167,76.5 405.5,76.5C 405.5,77.5 405.5,78.5 405.5,79.5C 406.496,101.199 406.663,122.865 406,144.5C 398.735,145.827 391.568,145.827 384.5,144.5C 391.354,144.824 398.021,144.491 404.5,143.5C 404.5,121.167 404.5,98.8333 404.5,76.5 Z"/></g>
<g><path style="opacity:0.395" fill="#9f9f9f" d="M 409.5,91.5 C 412.833,91.5 416.167,91.5 419.5,91.5C 419.5,108.833 419.5,126.167 419.5,143.5C 419.5,143.833 419.5,144.167 419.5,144.5C 419.167,144.5 418.833,144.5 418.5,144.5C 418.324,136.262 418.324,127.929 418.5,119.5C 418.5,112.833 418.5,106.167 418.5,99.5C 418.5,97.1667 418.5,94.8333 418.5,92.5C 415.287,92.81 412.287,92.4767 409.5,91.5 Z"/></g>
<g><path style="opacity:0.031" fill="#e2e2e2" d="M 653.5,99.5 C 653.5,106.167 653.5,112.833 653.5,119.5C 652.761,119.631 652.094,119.464 651.5,119C 652.15,112.401 652.816,105.901 653.5,99.5 Z"/></g>
<g><path style="opacity:0.832" fill="#2e2e2e" d="M 696.5,103.5 C 697.496,116.656 697.829,129.99 697.5,143.5C 704.5,143.5 711.5,143.5 718.5,143.5C 718.5,143.833 718.5,144.167 718.5,144.5C 711.167,144.5 703.833,144.5 696.5,144.5C 696.5,130.833 696.5,117.167 696.5,103.5 Z"/></g>
<g><path style="opacity:0.004" fill="#d3d3d3" d="M 725.5,101.5 C 726.537,102.93 727.204,104.597 727.5,106.5C 725.787,105.365 725.12,103.698 725.5,101.5 Z"/></g>
<g><path style="opacity:0.027" fill="#c4c4c4" d="M 780.5,106.5 C 778.847,106.34 777.514,105.674 776.5,104.5C 778.756,102.903 780.09,103.569 780.5,106.5 Z"/></g>
<g><path style="opacity:0.639" fill="#a1a1a1" d="M 817.5,103.5 C 815.485,104.924 813.152,105.59 810.5,105.5C 810.369,104.761 810.536,104.094 811,103.5C 813.342,103.717 815.508,103.717 817.5,103.5 Z"/></g>
<g><path style="opacity:0.009" fill="#e1e1e1" d="M 44.5,99.5 C 45.679,106.023 47.3457,112.523 49.5,119C 49.2716,119.399 48.9382,119.565 48.5,119.5C 46.2562,115.207 44.9229,110.54 44.5,105.5C 44.5,103.5 44.5,101.5 44.5,99.5 Z"/></g>
<g><path style="opacity:0.027" fill="#e2e2e2" d="M 804.5,106.5 C 804.842,105.662 805.508,105.328 806.5,105.5C 806.5,106.167 806.833,106.5 807.5,106.5C 807.158,107.338 806.492,107.672 805.5,107.5C 805.5,106.833 805.167,106.5 804.5,106.5 Z"/></g>
<g><path style="opacity:0.137" fill="#d2d2d2" d="M 806.5,105.5 C 807.705,104.314 809.039,104.314 810.5,105.5C 809.791,106.404 808.791,106.737 807.5,106.5C 806.833,106.5 806.5,106.167 806.5,105.5 Z"/></g>
<g><path style="opacity:0.11" fill="#d0d0d0" d="M 168.5,83.5 C 170.048,87.034 170.714,90.8673 170.5,95C 170.351,100.532 169.851,106.032 169,111.5C 168.434,113.723 167.6,115.723 166.5,117.5C 166.389,116.883 166.056,116.383 165.5,116C 168.969,105.413 169.969,94.5797 168.5,83.5 Z"/></g>
<g><path style="opacity:0.596" fill="#909090" d="M 594.5,105.5 C 592.967,107.245 590.967,108.245 588.5,108.5C 589.911,106.461 591.911,105.461 594.5,105.5 Z"/></g>
<g><path style="opacity:0.004" fill="#c2c2c2" d="M 727.5,106.5 C 729.5,107.833 731.167,109.5 732.5,111.5C 729.833,110.833 728.167,109.167 727.5,106.5 Z"/></g>
<g><path style="opacity:0.102" fill="#d5d5d5" d="M 804.5,106.5 C 805.167,106.5 805.5,106.833 805.5,107.5C 803.192,109.471 800.858,111.471 798.5,113.5C 798.892,111.821 799.392,110.154 800,108.5C 801.073,109.28 802.24,109.113 803.5,108C 801.068,106.913 801.402,106.413 804.5,106.5 Z"/></g>
<g><path style="opacity:0.051" fill="#d7d7d7" d="M 36.5,104.5 C 37.4682,106.607 37.8016,108.941 37.5,111.5C 35.2576,109.548 34.9243,107.215 36.5,104.5 Z"/></g>
<g><path style="opacity:0.047" fill="#b7b7b7" d="M 113.5,109.5 C 115.027,109.427 116.027,110.094 116.5,111.5C 114.973,111.573 113.973,110.906 113.5,109.5 Z"/></g>
<g><path style="opacity:0.737" fill="#797979" d="M 588.5,108.5 C 588.027,109.906 587.027,110.573 585.5,110.5C 585.973,109.094 586.973,108.427 588.5,108.5 Z"/></g>
<g><path style="opacity:0.569" fill="#8c8c8c" d="M 780.5,106.5 C 783.888,107.348 786.221,109.348 787.5,112.5C 784.81,110.844 782.477,108.844 780.5,106.5 Z"/></g>
<g><path style="opacity:0.059" fill="#d5d5d5" d="M 93.5,109.5 C 96.4848,110.326 99.1515,111.659 101.5,113.5C 98.1485,113.47 95.4818,112.137 93.5,109.5 Z"/></g>
<g><path style="opacity:0.455" fill="#aaaaaa" d="M 585.5,110.5 C 584.833,111.833 583.833,112.833 582.5,113.5C 582.5,111.5 583.5,110.5 585.5,110.5 Z"/></g>
<g><path style="opacity:0.013" fill="#fefffe" d="M 732.5,112.5 C 732.5,113.167 732.833,113.5 733.5,113.5C 733.44,114.043 733.107,114.376 732.5,114.5C 731.227,113.743 731.227,113.077 732.5,112.5 Z"/></g>
<g><path style="opacity:0.616" fill="#505050" d="M 838.5,112.5 C 839.209,111.596 840.209,111.263 841.5,111.5C 841.81,114.713 841.477,117.713 840.5,120.5C 841.036,117.302 840.369,114.635 838.5,112.5 Z"/></g>
<g><path style="opacity:0.014" fill="#e6e6e6" d="M 732.5,112.5 C 732.5,112.167 732.5,111.833 732.5,111.5C 735.437,112.472 738.103,113.805 740.5,115.5C 739.849,116.091 739.182,116.757 738.5,117.5C 737.304,117.154 737.304,116.654 738.5,116C 736.497,115.665 734.83,114.832 733.5,113.5C 732.833,113.5 732.5,113.167 732.5,112.5 Z"/></g>
<g><path style="opacity:0.059" fill="#d5d5d5" d="M 619.5,128.5 C 622.226,123.934 623.559,118.934 623.5,113.5C 616.205,115.613 609.205,117.613 602.5,119.5C 603.749,117.864 605.416,116.697 607.5,116C 613.084,114.353 618.751,113.187 624.5,112.5C 624.665,115.85 624.498,119.183 624,122.5C 623.208,125.106 621.708,127.106 619.5,128.5 Z"/></g>
<g><path style="opacity:0.227" fill="#b7b7b7" d="M 787.5,112.5 C 788.906,112.973 789.573,113.973 789.5,115.5C 788.094,115.027 787.427,114.027 787.5,112.5 Z"/></g>
<g><path style="opacity:0.022" fill="#eeeeee" d="M 362.5,99.5 C 363.203,105.703 363.869,112.036 364.5,118.5C 363.652,120.409 363.318,122.409 363.5,124.5C 362.566,123.432 362.232,122.099 362.5,120.5C 362.5,113.5 362.5,106.5 362.5,99.5 Z"/></g>
<g><path style="opacity:0.016" fill="#e6e6e6" d="M 580.5,115.5 C 580.5,115.833 580.5,116.167 580.5,116.5C 580.068,117.71 579.401,118.71 578.5,119.5C 577.761,119.631 577.094,119.464 576.5,119C 577.736,117.612 579.069,116.446 580.5,115.5 Z"/></g>
<g><path style="opacity:0.643" fill="#6b6b6b" d="M 582.5,113.5 C 582.573,115.027 581.906,116.027 580.5,116.5C 580.5,116.167 580.5,115.833 580.5,115.5C 580.833,114.5 581.5,113.833 582.5,113.5 Z"/></g>
<g><path style="opacity:0.584" fill="#8b8b8b" d="M 798.5,113.5 C 798.262,115.404 797.262,116.738 795.5,117.5C 795.738,115.596 796.738,114.262 798.5,113.5 Z"/></g>
<g><path style="opacity:0.765" fill="#929292" d="M 107.5,116.5 C 109.698,116.12 111.365,116.787 112.5,118.5C 110.597,118.204 108.93,117.537 107.5,116.5 Z"/></g>
<g><path style="opacity:0.169" fill="#b3b3b3" d="M 827.5,115.5 C 825.786,116.738 823.786,117.405 821.5,117.5C 823.102,115.926 825.102,115.259 827.5,115.5 Z"/></g>
<g><path style="opacity:0.05" fill="#dbdbdb" d="M 838.5,112.5 C 840.369,114.635 841.036,117.302 840.5,120.5C 840.672,121.492 840.338,122.158 839.5,122.5C 839.5,119.5 839.5,116.5 839.5,113.5C 837.194,113.993 834.861,114.326 832.5,114.5C 834.214,113.262 836.214,112.595 838.5,112.5 Z"/></g>
<g><path style="opacity:0.082" fill="#c6c6c6" d="M 37.5,111.5 C 39.1007,114.55 40.1007,117.884 40.5,121.5C 39.3065,121.03 38.6399,120.03 38.5,118.5C 38.0029,116.182 37.6695,113.848 37.5,111.5 Z"/></g>
<g><path style="opacity:0.118" fill="#c1c1c1" d="M 116.5,111.5 C 117.391,112.11 118.391,112.443 119.5,112.5C 125.321,115.621 130.988,118.288 136.5,120.5C 132.307,120.047 128.307,118.881 124.5,117C 121.177,115.861 118.51,114.027 116.5,111.5 Z"/></g>
<g><path style="opacity:0.114" fill="#dbdbdb" d="M 166.5,117.5 C 166.737,118.791 166.404,119.791 165.5,120.5C 164.185,119.105 164.519,118.105 166.5,117.5 Z"/></g>
<g><path style="opacity:0.008" fill="#fefffe" d="M 739.5,119.5 C 738.833,118.167 738.833,118.167 739.5,119.5 Z"/></g>
<g><path style="opacity:0.011" fill="#e0e0e0" d="M 821.5,117.5 C 821.421,118.958 820.921,120.292 820,121.5C 819.722,120.584 819.222,119.918 818.5,119.5C 818.973,118.094 819.973,117.427 821.5,117.5 Z"/></g>
<g><path style="opacity:0.01" fill="#e9e9e9" d="M 113.5,118.5 C 114.995,118.989 116.329,119.655 117.5,120.5C 115.517,120.843 114.183,120.176 113.5,118.5 Z"/></g>
<g><path style="opacity:0.011" fill="#fdfdfd" d="M 507.5,119.5 C 507.5,123.167 507.5,126.833 507.5,130.5C 506.167,132.5 506.167,134.5 507.5,136.5C 507.5,137.5 507.5,138.5 507.5,139.5C 506.167,139.5 504.833,139.5 503.5,139.5C 503.5,135.833 503.5,132.167 503.5,128.5C 504.496,128.586 505.329,128.252 506,127.5C 506.769,124.901 506.602,122.401 505.5,120C 506.094,119.536 506.761,119.369 507.5,119.5 Z"/></g>
<g><path style="opacity:0.632" fill="#747474" d="M 550.5,101.5 C 551.496,115.323 551.829,129.323 551.5,143.5C 558.5,143.5 565.5,143.5 572.5,143.5C 565.352,144.492 558.019,144.825 550.5,144.5C 549.319,136.024 549.319,127.358 550.5,118.5C 550.5,112.833 550.5,107.167 550.5,101.5 Z"/></g>
<g><path style="opacity:0.4" fill="#adadad" d="M 572.5,92.5 C 573.468,94.6074 573.802,96.9407 573.5,99.5C 573.5,106.167 573.5,112.833 573.5,119.5C 573.675,127.916 573.675,136.249 573.5,144.5C 565.677,145.82 558.01,145.82 550.5,144.5C 558.019,144.825 565.352,144.492 572.5,143.5C 572.5,126.5 572.5,109.5 572.5,92.5 Z"/></g>
<g><path style="opacity:0.022" fill="#fefffe" d="M 676.5,119.5 C 677.239,119.369 677.906,119.536 678.5,120C 677.85,126.599 677.184,133.099 676.5,139.5C 676.5,132.833 676.5,126.167 676.5,119.5 Z"/></g>
<g><path style="opacity:0.007" fill="#e3e3e3" d="M 758.5,118.5 C 759.791,118.263 760.791,118.596 761.5,119.5C 759.218,120.39 756.885,120.556 754.5,120C 756.058,119.79 757.391,119.29 758.5,118.5 Z"/></g>
<g><path style="opacity:0.013" fill="#e2e2e2" d="M 795.5,118.5 C 794.627,122.768 794.294,127.102 794.5,131.5C 793.842,130.602 793.176,129.602 792.5,128.5C 790.747,131.005 789.247,133.671 788,136.5C 786.549,138.464 784.716,139.797 782.5,140.5C 788.307,134.753 790.973,127.753 790.5,119.5C 792.292,119.634 793.958,119.301 795.5,118.5 Z"/></g>
<g><path style="opacity:0.661" fill="#6b6b6b" d="M 861.5,95.5 C 862.451,96.9187 862.784,98.5853 862.5,100.5C 862.607,106.821 862.607,113.154 862.5,119.5C 862.5,126.5 862.5,133.5 862.5,140.5C 861.504,125.676 861.171,110.676 861.5,95.5 Z"/></g>
<g><path style="opacity:0.015" fill="#f8f8f8" d="M 862.5,119.5 C 863.809,121.571 864.475,124.071 864.5,127C 864.001,132.351 863.668,137.518 863.5,142.5C 863.167,142.5 862.833,142.5 862.5,142.5C 862.5,141.833 862.5,141.167 862.5,140.5C 862.5,133.5 862.5,126.5 862.5,119.5 Z"/></g>
<g><path style="opacity:0.667" fill="#9c9c9c" d="M 117.5,120.5 C 120.495,120.294 123.162,120.96 125.5,122.5C 122.572,122.435 119.905,121.768 117.5,120.5 Z"/></g>
<g><path style="opacity:0.122" fill="#cecece" d="M 139.5,126.5 C 143.478,127.034 146.478,125.534 148.5,122C 144.312,121.824 140.312,121.324 136.5,120.5C 139.976,119.871 143.309,119.538 146.5,119.5C 148.208,119.703 149.541,120.536 150.5,122C 147.967,126.777 144.3,128.277 139.5,126.5 Z"/></g>
<g><path style="opacity:0.015" fill="#e9e9e9" d="M 466.5,119.5 C 466.187,123.042 466.521,126.375 467.5,129.5C 468.364,133.559 470.03,137.226 472.5,140.5C 469.548,139.641 467.715,137.641 467,134.5C 465.39,129.39 465.223,124.39 466.5,119.5 Z"/></g>
<g><path style="opacity:0.012" fill="#f9f9f9" d="M 739.5,119.5 C 742.187,119.336 744.854,119.503 747.5,120C 746.584,120.278 745.918,120.778 745.5,121.5C 738.5,121.5 731.5,121.5 724.5,121.5C 729.5,120.833 734.5,120.167 739.5,119.5 Z"/></g>
<g><path style="opacity:0.051" fill="#e0e0e0" d="M 382.5,114.5 C 382.5,116.167 382.5,117.833 382.5,119.5C 382.206,122.754 380.873,125.421 378.5,127.5C 379.61,122.985 380.944,118.652 382.5,114.5 Z"/></g>
<g><path style="opacity:0.72" fill="#4e4e4e" d="M 724.5,121.5 C 731.5,121.5 738.5,121.5 745.5,121.5C 745.5,122.167 745.5,122.833 745.5,123.5C 738.588,122.538 731.588,122.205 724.5,122.5C 724.5,124.833 724.5,127.167 724.5,129.5C 723.167,126.833 723.167,124.167 724.5,121.5 Z"/></g>
<g><path style="opacity:0.71" fill="#939393" d="M 125.5,122.5 C 127.898,122.259 129.898,122.926 131.5,124.5C 129.214,124.405 127.214,123.738 125.5,122.5 Z"/></g>
<g><path style="opacity:0.827" fill="#919191" d="M 165.5,120.5 C 165.88,122.698 165.213,124.365 163.5,125.5C 163.389,124.883 163.056,124.383 162.5,124C 163.814,123.015 164.814,121.848 165.5,120.5 Z"/></g>
<g><path style="opacity:0.086" fill="#dbdbdb" d="M 693.5,94.5 C 696.075,96.8453 697.075,99.8453 696.5,103.5C 696.5,117.167 696.5,130.833 696.5,144.5C 695.82,136.098 695.154,127.598 694.5,119C 695.365,112.294 695.699,105.628 695.5,99C 694.418,97.6703 693.751,96.1703 693.5,94.5 Z"/></g>
<g><path style="opacity:0.009" fill="#e1e1e1" d="M 745.5,121.5 C 747.805,123.08 748.472,125.08 747.5,127.5C 745.896,126.713 745.229,125.38 745.5,123.5C 745.5,122.833 745.5,122.167 745.5,121.5 Z"/></g>
<g><path style="opacity:0.573" fill="#7f7f7f" d="M 766.5,122.5 C 767.88,122.962 768.547,123.962 768.5,125.5C 768.439,127.653 767.439,128.986 765.5,129.5C 767.432,127.337 767.765,125.003 766.5,122.5 Z"/></g>
<g><path style="opacity:0.267" fill="#b8b8b8" d="M 173.5,122.5 C 173.598,124.553 172.931,126.22 171.5,127.5C 171.402,125.447 172.069,123.78 173.5,122.5 Z"/></g>
<g><path style="opacity:0.306" fill="#b7b7b7" d="M 363.5,124.5 C 364.906,124.973 365.573,125.973 365.5,127.5C 364.094,127.027 363.427,126.027 363.5,124.5 Z"/></g>
<g><path style="opacity:0.016" fill="#e5e5e5" d="M 490.5,125.5 C 492.732,126.869 495.066,127.869 497.5,128.5C 495.473,128.662 493.473,128.495 491.5,128C 490.748,127.329 490.414,126.496 490.5,125.5 Z"/></g>
<g><path style="opacity:0.635" fill="#808080" d="M 838.5,125.5 C 838.5,127.5 837.5,128.5 835.5,128.5C 836.167,127.167 837.167,126.167 838.5,125.5 Z"/></g>
<g><path style="opacity:0.021" fill="#d7d7d7" d="M 365.5,127.5 C 369.099,128.344 372.766,128.677 376.5,128.5C 373.36,129.641 370.027,129.808 366.5,129C 365.944,128.617 365.611,128.117 365.5,127.5 Z"/></g>
<g><path style="opacity:0.031" fill="#d1d1d1" d="M 835.5,128.5 C 834.22,129.931 832.553,130.598 830.5,130.5C 831.78,129.069 833.447,128.402 835.5,128.5 Z"/></g>
<g><path style="opacity:0.855" fill="#787878" d="M 601.5,128.5 C 602.71,128.932 603.71,129.599 604.5,130.5C 602.821,130.715 601.821,130.048 601.5,128.5 Z"/></g>
<g><path style="opacity:0.231" fill="#c5c5c5" d="M 52.5,128.5 C 53.9063,128.973 54.573,129.973 54.5,131.5C 53.0937,131.027 52.427,130.027 52.5,128.5 Z"/></g>
<g><path style="opacity:0.116" fill="#b2b2b2" d="M 617.5,129.5 C 615.366,131.033 612.866,131.7 610,131.5C 607.967,131.494 606.134,131.161 604.5,130.5C 608.881,130.628 613.215,130.295 617.5,129.5 Z"/></g>
<g><path style="opacity:0.094" fill="#bebebe" d="M 765.5,129.5 C 765.389,130.117 765.056,130.617 764.5,131C 760.167,131.667 755.833,131.667 751.5,131C 750.584,130.722 749.918,130.222 749.5,129.5C 754.526,130.719 759.86,130.719 765.5,129.5 Z"/></g>
<g><path style="opacity:0.153" fill="#bfbfbf" d="M 829.5,130.5 C 826.696,131.638 823.696,131.805 820.5,131C 819.944,130.617 819.611,130.117 819.5,129.5C 819.435,129.062 819.601,128.728 820,128.5C 820.689,129.357 821.522,130.023 822.5,130.5C 824.655,130.162 826.989,130.162 829.5,130.5 Z"/></g>
<g><path style="opacity:0.035" fill="#bbbbbb" d="M 161.5,129.5 C 159.02,133.109 156.52,136.776 154,140.5C 151.894,143.118 149.394,145.118 146.5,146.5C 151.267,142.231 155.1,137.231 158,131.5C 159.113,130.695 160.279,130.028 161.5,129.5 Z"/></g>
<g><path style="opacity:0.045" fill="#ebebeb" d="M 441.5,91.5 C 445.833,91.5 450.167,91.5 454.5,91.5C 450.702,92.4834 446.702,92.8168 442.5,92.5C 443.255,109.796 443.255,127.463 442.5,145.5C 442.5,144.833 442.167,144.5 441.5,144.5C 441.5,126.833 441.5,109.167 441.5,91.5 Z"/></g>
<g><path style="opacity:0.176" fill="#c1c1c1" d="M 169.5,131.5 C 169.573,133.027 168.906,134.027 167.5,134.5C 167.427,132.973 168.094,131.973 169.5,131.5 Z"/></g>
<g><path style="opacity:0.863" fill="#7f7f7f" d="M 46.5,134.5 C 48.4456,135.035 49.4456,136.368 49.5,138.5C 48.0256,137.564 47.0256,136.23 46.5,134.5 Z"/></g>
<g><path style="opacity:0.035" fill="#d2d2d2" d="M 339.5,125.5 C 340.91,131.647 343.91,136.98 348.5,141.5C 341.279,138.598 338.279,133.264 339.5,125.5 Z"/></g>
<g><path style="opacity:0.553" fill="#9a9a9a" d="M 55.5,133.5 C 57.2624,134.262 58.2624,135.596 58.5,137.5C 56.7376,136.738 55.7376,135.404 55.5,133.5 Z"/></g>
<g><path style="opacity:0.447" fill="#949494" d="M 503.5,128.5 C 503.5,132.167 503.5,135.833 503.5,139.5C 503.784,141.415 503.451,143.081 502.5,144.5C 502.5,139.167 502.5,133.833 502.5,128.5C 501.5,128.5 500.5,128.5 499.5,128.5C 500.665,125.978 501.998,125.978 503.5,128.5 Z"/></g>
<g><path style="opacity:0.569" fill="#a1a1a1" d="M 726.5,134.5 C 728.836,135.845 730.503,137.845 731.5,140.5C 729.164,139.155 727.497,137.155 726.5,134.5 Z"/></g>
<g><path style="opacity:0.039" fill="#d7d7d7" d="M 58.5,137.5 C 60.5,137.5 61.5,138.5 61.5,140.5C 60.1667,139.833 59.1667,138.833 58.5,137.5 Z"/></g>
<g><path style="opacity:0.043" fill="#cccccc" d="M 578.5,131.5 C 579.767,134.925 581.767,137.925 584.5,140.5C 580.339,139.109 578.339,136.109 578.5,131.5 Z"/></g>
<g><path style="opacity:0.012" fill="#d2d2d2" d="M 794.5,131.5 C 796.153,134.131 797.819,136.797 799.5,139.5C 798.5,139.5 797.5,139.5 796.5,139.5C 795.833,136.833 795.167,134.167 794.5,131.5 Z"/></g>
<g><path style="opacity:0.037" fill="#f0f0f0" d="M 653.5,137.5 C 653.5,139.833 653.5,142.167 653.5,144.5C 653.167,144.5 652.833,144.5 652.5,144.5C 650.956,141.828 651.289,139.495 653.5,137.5 Z"/></g>
<g><path style="opacity:0.137" fill="#d2d2d2" d="M 382.5,139.5 C 382.56,138.957 382.893,138.624 383.5,138.5C 384.386,139.325 384.719,140.325 384.5,141.5C 384.5,142.5 384.5,143.5 384.5,144.5C 383.655,143.329 382.989,141.995 382.5,140.5C 383.833,140.167 383.833,139.833 382.5,139.5 Z"/></g>
<g><path style="opacity:0.871" fill="#6d6d6d" d="M 584.5,140.5 C 586.404,140.738 587.738,141.738 588.5,143.5C 586.596,143.262 585.262,142.262 584.5,140.5 Z"/></g>
<g><path style="opacity:0.02" fill="#d2d2d2" d="M 799.5,139.5 C 800.833,140.167 801.833,141.167 802.5,142.5C 800.5,142.5 799.5,141.5 799.5,139.5 Z"/></g>
<g><path style="opacity:0.004" fill="#c7c7c7" d="M 61.5,140.5 C 63.1898,140.856 64.1898,141.856 64.5,143.5C 62.8102,143.144 61.8102,142.144 61.5,140.5 Z"/></g>
<g><path style="opacity:0.439" fill="#949494" d="M 472.5,140.5 C 474.027,140.427 475.027,141.094 475.5,142.5C 473.973,142.573 472.973,141.906 472.5,140.5 Z"/></g>
<g><path style="opacity:0.004" fill="#e9e9e9" d="M 624.5,140.5 C 625.623,139.243 626.289,139.576 626.5,141.5C 626.5,141.833 626.5,142.167 626.5,142.5C 625.833,141.833 625.167,141.167 624.5,140.5 Z"/></g>
<g><path style="opacity:0.014" fill="#e2e2e2" d="M 842.5,142.5 C 840.833,142.5 839.167,142.5 837.5,142.5C 838.406,141.035 839.739,140.035 841.5,139.5C 842.386,140.325 842.719,141.325 842.5,142.5 Z"/></g>
<g><path style="opacity:0.039" fill="#c9c9c9" d="M 164.5,139.5 C 163.92,141.749 162.587,143.415 160.5,144.5C 161.08,142.251 162.413,140.585 164.5,139.5 Z"/></g>
<g><path style="opacity:0.408" fill="#999999" d="M 348.5,141.5 C 350.027,141.427 351.027,142.094 351.5,143.5C 349.973,143.573 348.973,142.906 348.5,141.5 Z"/></g>
<g><path style="opacity:0.035" fill="#cecece" d="M 380.5,141.5 C 380.123,143.824 379.123,144.491 377.5,143.5C 377.973,142.094 378.973,141.427 380.5,141.5 Z"/></g>
<g><path style="opacity:0.184" fill="#c1c1c1" d="M 733.5,141.5 C 735.027,141.427 736.027,142.094 736.5,143.5C 734.973,143.573 733.973,142.906 733.5,141.5 Z"/></g>
<g><path style="opacity:0.031" fill="#c6c6c6" d="M 49.5,138.5 C 53.1384,142.474 56.8051,146.474 60.5,150.5C 56.1357,147.65 52.1357,144.15 48.5,140C 49.056,139.617 49.3893,139.117 49.5,138.5 Z"/></g>
<g><path style="opacity:0.745" fill="#393939" d="M 295.5,125.5 C 308.5,125.5 321.5,125.5 334.5,125.5C 334.833,125.5 335.167,125.5 335.5,125.5C 335.5,131.833 335.5,138.167 335.5,144.5C 314.5,144.5 293.5,144.5 272.5,144.5C 272.5,144.167 272.5,143.833 272.5,143.5C 293.167,143.5 313.833,143.5 334.5,143.5C 334.5,137.833 334.5,132.167 334.5,126.5C 321.323,126.829 308.323,126.495 295.5,125.5 Z"/></g>
<g><path style="opacity:0.737" fill="#3f3f3f" d="M 384.5,141.5 C 390.882,143.399 397.549,144.066 404.5,143.5C 398.021,144.491 391.354,144.824 384.5,144.5C 384.5,143.5 384.5,142.5 384.5,141.5 Z"/></g>
<g><path style="opacity:0.435" fill="#b4b4b4" d="M 475.5,142.5 C 484.357,144.304 493.357,144.971 502.5,144.5C 495.011,145.656 487.345,145.822 479.5,145C 477.934,144.392 476.6,143.558 475.5,142.5 Z"/></g>
<g><path style="opacity:0.743" fill="#424242" d="M 626.5,141.5 C 629.738,142.748 633.238,143.415 637,143.5C 640.352,143.498 643.518,143.165 646.5,142.5C 647.043,142.56 647.376,142.893 647.5,143.5C 640.866,144.497 634.2,144.83 627.5,144.5C 626.662,144.158 626.328,143.492 626.5,142.5C 626.5,142.167 626.5,141.833 626.5,141.5 Z"/></g>
<g><path style="opacity:0.725" fill="#9e9e9e" d="M 736.5,143.5 C 740.162,143.723 743.495,144.723 746.5,146.5C 742.786,146.41 739.452,145.41 736.5,143.5 Z"/></g>
<g><path style="opacity:0.016" fill="#bebebe" d="M 779.5,142.5 C 778.426,144.284 776.76,145.451 774.5,146C 769.663,147.299 764.829,148.466 760,149.5C 755.96,147.911 751.794,146.911 747.5,146.5C 754.841,146.666 762.174,146.5 769.5,146C 772.894,144.925 776.228,143.758 779.5,142.5 Z"/></g>
<g><path style="opacity:0.157" fill="#cacaca" d="M 802.5,142.5 C 804.027,142.427 805.027,143.094 805.5,144.5C 803.973,144.573 802.973,143.906 802.5,142.5 Z"/></g>
<g><path style="opacity:0.74" fill="#3c3c3c" d="M 862.5,142.5 C 862.833,142.5 863.167,142.5 863.5,142.5C 860.572,143.82 857.239,144.486 853.5,144.5C 849.982,144.498 846.649,144.165 843.5,143.5C 850.022,143.823 856.355,143.49 862.5,142.5 Z"/></g>
<g><path style="opacity:0.059" fill="#e6e6e6" d="M 335.5,125.5 C 336.42,132.242 337.086,138.575 337.5,144.5C 315.67,145.828 294.004,145.828 272.5,144.5C 293.5,144.5 314.5,144.5 335.5,144.5C 335.5,138.167 335.5,131.833 335.5,125.5 Z"/></g>
<g><path style="opacity:0.698" fill="#6d6d6d" d="M 351.5,143.5 C 353.898,143.259 355.898,143.926 357.5,145.5C 357.167,145.5 356.833,145.5 356.5,145.5C 354.447,145.598 352.78,144.931 351.5,143.5 Z"/></g>
<g><path style="opacity:0.028" fill="#fafafa" d="M 418.5,144.5 C 418.833,144.5 419.167,144.5 419.5,144.5C 426.833,144.5 434.167,144.5 441.5,144.5C 442.167,144.5 442.5,144.833 442.5,145.5C 442.265,146.097 441.765,146.43 441,146.5C 433.357,145.88 425.857,145.213 418.5,144.5 Z"/></g>
<g><path style="opacity:0.057" fill="#e8e8e8" d="M 507.5,144.5 C 515.167,144.5 522.833,144.5 530.5,144.5C 529.828,145.267 528.995,145.934 528,146.5C 521.068,145.85 514.234,145.183 507.5,144.5 Z"/></g>
<g><path style="opacity:0.122" fill="#cbcbcb" d="M 588.5,143.5 C 590.027,143.427 591.027,144.094 591.5,145.5C 589.973,145.573 588.973,144.906 588.5,143.5 Z"/></g>
<g><path style="opacity:0.058" fill="#ececec" d="M 646.5,139.5 C 648.085,140.474 649.085,141.974 649.5,144C 649.167,144.333 648.833,144.667 648.5,145C 641.321,145.821 634.321,145.655 627.5,144.5C 634.2,144.83 640.866,144.497 647.5,143.5C 647.376,142.893 647.043,142.56 646.5,142.5C 646.5,141.833 646.5,141.167 646.5,140.5C 646.5,140.167 646.5,139.833 646.5,139.5 Z"/></g>
<g><path style="opacity:0.01" fill="#fefffe" d="M 652.5,144.5 C 652.103,145.525 651.437,145.692 650.5,145C 651.094,144.536 651.761,144.369 652.5,144.5 Z"/></g>
<g><path style="opacity:0.032" fill="#f3f3f3" d="M 653.5,144.5 C 660.833,144.5 668.167,144.5 675.5,144.5C 668.766,145.183 661.932,145.85 655,146.5C 654.283,145.956 653.783,145.289 653.5,144.5 Z"/></g>
<g><path style="opacity:0.025" fill="#f7f7f7" d="M 696.5,144.5 C 703.833,144.5 711.167,144.5 718.5,144.5C 711.963,145.201 705.297,145.868 698.5,146.5C 697.478,146.145 696.811,145.478 696.5,144.5 Z"/></g>
<g><path style="opacity:0.046" fill="#eaeaea" d="M 863.5,142.5 C 864.404,143.209 864.737,144.209 864.5,145.5C 856.757,146.13 849.424,145.463 842.5,143.5C 842.833,143.5 843.167,143.5 843.5,143.5C 846.649,144.165 849.982,144.498 853.5,144.5C 857.239,144.486 860.572,143.82 863.5,142.5 Z"/></g>
<g><path style="opacity:0.004" fill="#cbcbcb" d="M 66.5,145.5 C 68.0269,145.427 69.0269,146.094 69.5,147.5C 67.9731,147.573 66.9731,146.906 66.5,145.5 Z"/></g>
<g><path style="opacity:0.141" fill="#b7b7b7" d="M 377.5,143.5 C 377.389,144.117 377.056,144.617 376.5,145C 372.602,146.356 368.602,147.189 364.5,147.5C 361.514,147.618 358.848,146.952 356.5,145.5C 356.833,145.5 357.167,145.5 357.5,145.5C 364.301,145.872 370.967,145.206 377.5,143.5 Z"/></g>
<g><path style="opacity:0.008" fill="#d9d9d9" d="M 618.5,144.5 C 616.237,146.383 613.57,147.716 610.5,148.5C 609.817,148.137 609.15,147.804 608.5,147.5C 608.5,147.167 608.5,146.833 608.5,146.5C 611.973,146.424 615.306,145.758 618.5,144.5 Z"/></g>
<g><path style="opacity:0.145" fill="#bdbdbd" d="M 834.5,144.5 C 833.22,145.931 831.553,146.598 829.5,146.5C 830.78,145.069 832.447,144.402 834.5,144.5 Z"/></g>
<g><path style="opacity:0.451" fill="#a7a7a7" d="M 592.5,145.5 C 597.797,146.275 603.13,146.608 608.5,146.5C 608.5,146.833 608.5,147.167 608.5,147.5C 602.826,148.974 597.493,148.307 592.5,145.5 Z"/></g>
<g><path style="opacity:0.604" fill="#a7a7a7" d="M 808.5,145.5 C 815.457,146.386 822.457,146.72 829.5,146.5C 824.465,147.501 819.465,148.168 814.5,148.5C 812.22,147.864 810.22,146.864 808.5,145.5 Z"/></g>
<g><path style="opacity:0.561" fill="#a0a0a0" d="M 146.5,146.5 C 146.027,147.906 145.027,148.573 143.5,148.5C 143.973,147.094 144.973,146.427 146.5,146.5 Z"/></g>
<g><path style="opacity:0.835" fill="#8d8d8d" d="M 69.5,147.5 C 71.2303,148.026 72.5637,149.026 73.5,150.5C 71.368,150.446 70.0347,149.446 69.5,147.5 Z"/></g>
<g><path style="opacity:0.459" fill="#b6b6b6" d="M 143.5,148.5 C 143.027,149.906 142.027,150.573 140.5,150.5C 140.973,149.094 141.973,148.427 143.5,148.5 Z"/></g>
<g><path style="opacity:0.831" fill="#7f7f7f" d="M 60.5,150.5 C 62.7488,151.08 64.4154,152.413 65.5,154.5C 63.2512,153.92 61.5846,152.587 60.5,150.5 Z"/></g>
<g><path style="opacity:0.063" fill="#dcdcdc" d="M 140.5,150.5 C 140.158,151.338 139.492,151.672 138.5,151.5C 138.409,149.302 139.075,148.969 140.5,150.5 Z"/></g>
<g><path style="opacity:0.031" fill="#dfdfdf" d="M 154.5,150.5 C 153.738,152.262 152.404,153.262 150.5,153.5C 151.262,151.738 152.596,150.738 154.5,150.5 Z"/></g>
<g><path style="opacity:0.165" fill="#bcbcbc" d="M 138.5,151.5 C 137.089,153.539 135.089,154.539 132.5,154.5C 134.181,152.992 136.181,151.992 138.5,151.5 Z"/></g>
<g><path style="opacity:0.216" fill="#b8b8b8" d="M 83.5,155.5 C 81.4471,155.598 79.7804,154.931 78.5,153.5C 80.3989,152.955 82.0655,153.622 83.5,155.5 Z"/></g>
<g><path style="opacity:0.478" fill="#9d9d9d" d="M 65.5,154.5 C 67.4044,154.738 68.7377,155.738 69.5,157.5C 67.5956,157.262 66.2623,156.262 65.5,154.5 Z"/></g>
<g><path style="opacity:0.325" fill="#aeaeae" d="M 83.5,155.5 C 87.0477,156.13 90.3811,157.13 93.5,158.5C 89.7144,158.68 86.381,157.68 83.5,155.5 Z"/></g>
<g><path style="opacity:0.608" fill="#999999" d="M 130.5,155.5 C 130.389,156.117 130.056,156.617 129.5,157C 125.246,158.314 120.913,159.147 116.5,159.5C 120.978,157.877 125.645,156.544 130.5,155.5 Z"/></g>
<g><path style="opacity:0.01" fill="#e9e9e9" d="M 71.5,158.5 C 72.7095,158.932 73.7095,159.599 74.5,160.5C 72.8212,160.715 71.8212,160.048 71.5,158.5 Z"/></g>
<g><path style="opacity:0.212" fill="#ababab" d="M 93.5,158.5 C 100.143,159.212 106.809,159.546 113.5,159.5C 110.854,160.164 108.021,160.498 105,160.5C 100.867,160.714 97.034,160.048 93.5,158.5 Z"/></g>
<g><path style="opacity:0.224" fill="#b8b8b8" d="M 142.5,158.5 C 140.661,161.135 137.994,162.468 134.5,162.5C 136.853,160.657 139.52,159.323 142.5,158.5 Z"/></g>
<g><path style="opacity:0.012" fill="#dadada" d="M 76.5,161.5 C 78.5529,161.402 80.2196,162.069 81.5,163.5C 79.302,163.88 77.6354,163.213 76.5,161.5 Z"/></g>
<g><path style="opacity:0.714" fill="#9b9b9b" d="M 81.5,163.5 C 85.1621,163.723 88.4954,164.723 91.5,166.5C 87.8379,166.277 84.5046,165.277 81.5,163.5 Z"/></g>
<g><path style="opacity:0.322" fill="#c5c5c5" d="M 129.5,164.5 C 123.818,166.944 117.818,168.611 111.5,169.5C 108.5,169.5 105.5,169.5 102.5,169.5C 100.974,169.006 99.6412,168.339 98.5,167.5C 108.98,167.866 119.313,166.866 129.5,164.5 Z"/></g>
</svg>
