<?xml version="1.0" encoding="UTF-8"?>
<!DOCTYPE svg PUBLIC "-//W3C//DTD SVG 1.1//EN" "http://www.w3.org/Graphics/SVG/1.1/DTD/svg11.dtd">
<svg xmlns="http://www.w3.org/2000/svg" version="1.1" width="303px" height="153px" style="shape-rendering:geometricPrecision; text-rendering:geometricPrecision; image-rendering:optimizeQuality; fill-rule:evenodd; clip-rule:evenodd" xmlns:xlink="http://www.w3.org/1999/xlink">
<g><path style="opacity:0.082" fill="#55666b" d="M 165.5,33.5 C 164.796,31.6558 163.463,31.1558 161.5,32C 157.233,34.7445 154.899,38.5779 154.5,43.5C 154.5,48.1667 154.5,52.8333 154.5,57.5C 154.167,58.1667 153.833,58.8333 153.5,59.5C 152.833,59.5 152.5,59.1667 152.5,58.5C 154.093,54.3866 153.426,50.72 150.5,47.5C 151.503,44.6662 152.503,41.8329 153.5,39C 152.548,36.3355 151.215,33.8355 149.5,31.5C 144.878,34.3371 144.212,38.0038 147.5,42.5C 147.457,43.4164 147.124,44.0831 146.5,44.5C 141.365,41.6603 136.365,41.9936 131.5,45.5C 131.937,43.9256 132.937,42.7589 134.5,42C 137.827,41.3897 141.161,40.8897 144.5,40.5C 144.396,29.9133 148.396,27.9133 156.5,34.5C 157.981,33.5197 159.315,32.353 160.5,31C 162.473,30.5045 164.473,30.3379 166.5,30.5C 166.737,31.791 166.404,32.791 165.5,33.5 Z"/></g>
<g><path style="opacity:0.967" fill="#03080a" d="M 150.5,47.5 C 149.05,46.3424 148.05,46.8424 147.5,49C 148.167,49.6667 148.833,50.3333 149.5,51C 147.527,51.4955 145.527,51.6621 143.5,51.5C 143.5,50.1667 143.5,48.8333 143.5,47.5C 142.5,47.5 141.5,47.5 140.5,47.5C 139.662,47.1583 139.328,46.4916 139.5,45.5C 141.999,44.6684 144.332,44.3351 146.5,44.5C 147.124,44.0831 147.457,43.4164 147.5,42.5C 144.212,38.0038 144.878,34.3371 149.5,31.5C 151.215,33.8355 152.548,36.3355 153.5,39C 152.503,41.8329 151.503,44.6662 150.5,47.5 Z"/></g>
<g><path style="opacity:1" fill="#040a0c" d="M 165.5,33.5 C 165.167,34.5 164.5,35.1667 163.5,35.5C 161.787,36.6354 161.12,38.302 161.5,40.5C 160.869,42.9028 159.869,45.2361 158.5,47.5C 157.119,46.1186 155.785,44.7853 154.5,43.5C 154.899,38.5779 157.233,34.7445 161.5,32C 163.463,31.1558 164.796,31.6558 165.5,33.5 Z"/></g>
<g><path style="opacity:0.986" fill="#030a0d" d="M 161.5,40.5 C 161.785,45.8968 161.451,51.2302 160.5,56.5C 161.995,56.4779 163.662,56.8113 165.5,57.5C 163.167,58.8322 161.834,60.8322 161.5,63.5C 159.557,62.9217 159.223,61.9217 160.5,60.5C 159.366,57.2637 157.366,56.2637 154.5,57.5C 154.5,52.8333 154.5,48.1667 154.5,43.5C 155.785,44.7853 157.119,46.1186 158.5,47.5C 159.869,45.2361 160.869,42.9028 161.5,40.5 Z"/></g>
<g><path style="opacity:0.939" fill="#010a0d" d="M 146.5,44.5 C 144.332,44.3351 141.999,44.6684 139.5,45.5C 138.5,45.5 137.5,45.5 136.5,45.5C 136.665,48.5184 136.498,51.5184 136,54.5C 134.385,53.6138 132.885,52.6138 131.5,51.5C 131.5,49.5 131.5,47.5 131.5,45.5C 136.365,41.9936 141.365,41.6603 146.5,44.5 Z"/></g>
<g><path style="opacity:0.088" fill="#53656a" d="M 139.5,45.5 C 139.328,46.4916 139.662,47.1583 140.5,47.5C 142.138,48.7046 142.471,50.0379 141.5,51.5C 139.186,53.4773 136.853,55.4773 134.5,57.5C 133.264,56.7542 131.93,56.4208 130.5,56.5C 130.5,55.5 130.5,54.5 130.5,53.5C 131.338,53.1583 131.672,52.4916 131.5,51.5C 132.885,52.6138 134.385,53.6138 136,54.5C 136.498,51.5184 136.665,48.5184 136.5,45.5C 137.5,45.5 138.5,45.5 139.5,45.5 Z"/></g>
<g><path style="opacity:1" fill="#02090b" d="M 150.5,47.5 C 153.426,50.72 154.093,54.3866 152.5,58.5C 150.585,58.7845 148.919,58.4511 147.5,57.5C 148.239,57.631 148.906,57.4643 149.5,57C 148.695,55.0283 147.361,53.5283 145.5,52.5C 143.814,53.8569 142.148,55.1902 140.5,56.5C 140.629,54.7839 140.962,53.1172 141.5,51.5C 142.471,50.0379 142.138,48.7046 140.5,47.5C 141.5,47.5 142.5,47.5 143.5,47.5C 143.5,48.8333 143.5,50.1667 143.5,51.5C 145.527,51.6621 147.527,51.4955 149.5,51C 148.833,50.3333 148.167,49.6667 147.5,49C 148.05,46.8424 149.05,46.3424 150.5,47.5 Z"/></g>
<g><path style="opacity:0.937" fill="#040a0e" d="M 130.5,53.5 C 130.5,54.5 130.5,55.5 130.5,56.5C 131.93,56.4208 133.264,56.7542 134.5,57.5C 136.853,55.4773 139.186,53.4773 141.5,51.5C 140.962,53.1172 140.629,54.7839 140.5,56.5C 142.607,57.4682 144.941,57.8016 147.5,57.5C 148.919,58.4511 150.585,58.7845 152.5,58.5C 152.5,59.1667 152.833,59.5 153.5,59.5C 156.097,59.7208 156.097,60.2208 153.5,61C 154.416,61.2784 155.082,61.7784 155.5,62.5C 148.787,63.9787 141.787,64.6454 134.5,64.5C 135.952,63.6981 137.618,63.1981 139.5,63C 140.451,62.2825 140.617,61.4491 140,60.5C 137.273,59.8118 134.606,59.4785 132,59.5C 131.055,59.9054 130.388,60.572 130,61.5C 129.667,58.5 129.333,55.5 129,52.5C 128.283,53.0442 127.783,53.7109 127.5,54.5C 124.452,51.4965 125.118,50.3298 129.5,51C 130.252,51.6708 130.586,52.5041 130.5,53.5 Z"/></g>
<g><path style="opacity:0.075" fill="#54666a" d="M 147.5,57.5 C 144.941,57.8016 142.607,57.4682 140.5,56.5C 142.148,55.1902 143.814,53.8569 145.5,52.5C 147.361,53.5283 148.695,55.0283 149.5,57C 148.906,57.4643 148.239,57.631 147.5,57.5 Z"/></g>
<g><path style="opacity:0.082" fill="#516166" d="M 163.5,35.5 C 162.582,41.7748 162.249,48.1082 162.5,54.5C 163.552,54.3505 164.552,54.5172 165.5,55C 166.155,56.4866 167.155,57.6533 168.5,58.5C 176.52,56.0156 179.187,58.6823 176.5,66.5C 176.5,65.8333 176.5,65.1667 176.5,64.5C 176.984,61.4334 175.818,59.4334 173,58.5C 170.78,60.1931 168.28,61.1931 165.5,61.5C 165.853,63.6348 165.02,64.9681 163,65.5C 161.97,65.1639 161.47,64.4972 161.5,63.5C 161.834,60.8322 163.167,58.8322 165.5,57.5C 163.662,56.8113 161.995,56.4779 160.5,56.5C 161.451,51.2302 161.785,45.8968 161.5,40.5C 161.12,38.302 161.787,36.6354 163.5,35.5 Z"/></g>
<g><path style="opacity:0.978" fill="#04070b" d="M 161.5,63.5 C 161.47,64.4972 161.97,65.1639 163,65.5C 165.02,64.9681 165.853,63.6348 165.5,61.5C 168.28,61.1931 170.78,60.1931 173,58.5C 175.818,59.4334 176.984,61.4334 176.5,64.5C 174.396,64.2011 172.396,64.5344 170.5,65.5C 171.167,66.1667 171.833,66.8333 172.5,67.5C 171.224,68.6446 169.891,68.6446 168.5,67.5C 168.984,68.7808 168.317,69.7808 166.5,70.5C 165.895,68.5188 164.895,68.1854 163.5,69.5C 160.216,70.7379 158.716,69.4045 159,65.5C 158.617,66.056 158.117,66.3893 157.5,66.5C 157.715,64.8212 157.048,63.8212 155.5,63.5C 155.5,63.1667 155.5,62.8333 155.5,62.5C 155.082,61.7784 154.416,61.2784 153.5,61C 156.097,60.2208 156.097,59.7208 153.5,59.5C 153.833,58.8333 154.167,58.1667 154.5,57.5C 157.366,56.2637 159.366,57.2637 160.5,60.5C 159.223,61.9217 159.557,62.9217 161.5,63.5 Z"/></g>
<g><path style="opacity:0.959" fill="#040709" d="M 134.5,64.5 C 133.833,64.5 133.5,64.1667 133.5,63.5C 133.631,62.7611 133.464,62.0944 133,61.5C 131.416,62.8613 129.582,63.528 127.5,63.5C 127.5,60.5 127.5,57.5 127.5,54.5C 127.783,53.7109 128.283,53.0442 129,52.5C 129.333,55.5 129.667,58.5 130,61.5C 130.388,60.572 131.055,59.9054 132,59.5C 134.606,59.4785 137.273,59.8118 140,60.5C 140.617,61.4491 140.451,62.2825 139.5,63C 137.618,63.1981 135.952,63.6981 134.5,64.5 Z"/></g>
<g><path style="opacity:0.07" fill="#56656a" d="M 155.5,62.5 C 155.5,62.8333 155.5,63.1667 155.5,63.5C 155.389,64.1174 155.056,64.6174 154.5,65C 147.882,66.3776 141.215,66.7109 134.5,66C 131.598,65.0814 131.265,64.2481 133.5,63.5C 133.5,64.1667 133.833,64.5 134.5,64.5C 141.787,64.6454 148.787,63.9787 155.5,62.5 Z"/></g>
<g><path style="opacity:0.989" fill="#03090d" d="M 133.5,63.5 C 131.265,64.2481 131.598,65.0814 134.5,66C 141.215,66.7109 147.882,66.3776 154.5,65C 155.056,64.6174 155.389,64.1174 155.5,63.5C 157.048,63.8212 157.715,64.8212 157.5,66.5C 155.983,66.5106 154.816,67.1772 154,68.5C 153.667,67.8333 153.333,67.1667 153,66.5C 149.844,68.2341 146.677,69.0675 143.5,69C 146.59,70.0128 148.59,71.5128 149.5,73.5C 152.424,77.2835 153.257,81.6169 152,86.5C 151.617,87.056 151.117,87.3893 150.5,87.5C 147.896,86.7849 145.563,86.7849 143.5,87.5C 140.772,87.8294 138.438,87.1628 136.5,85.5C 140.514,85.6655 144.514,85.4988 148.5,85C 149.446,82.7017 148.779,80.8684 146.5,79.5C 150.541,79.4261 151.208,78.0928 148.5,75.5C 147.817,75.8627 147.15,76.1961 146.5,76.5C 146.5,75.1667 146.5,73.8333 146.5,72.5C 145.167,72.5 143.833,72.5 142.5,72.5C 141.833,72.5 141.167,72.5 140.5,72.5C 138.712,72.2148 137.045,72.5481 135.5,73.5C 135.855,74.5223 136.522,75.189 137.5,75.5C 136.09,76.8284 134.924,76.4951 134,74.5C 132.961,75.7101 131.794,76.7101 130.5,77.5C 131.203,75.2843 132.536,73.451 134.5,72C 133.062,71.7811 131.729,71.2811 130.5,70.5C 129.965,68.739 128.965,67.4057 127.5,66.5C 127.5,65.5 127.5,64.5 127.5,63.5C 129.582,63.528 131.416,62.8613 133,61.5C 133.464,62.0944 133.631,62.7611 133.5,63.5 Z"/></g>
<g><path style="opacity:0.078" fill="#616262" d="M 166.5,70.5 C 165.798,71.1157 164.798,71.1157 163.5,70.5C 163.5,70.1667 163.5,69.8333 163.5,69.5C 164.895,68.1854 165.895,68.5188 166.5,70.5 Z"/></g>
<g><path style="opacity:1" fill="#040709" d="M 163.5,69.5 C 163.5,69.8333 163.5,70.1667 163.5,70.5C 163.5,72.8333 163.5,75.1667 163.5,77.5C 162.691,75.7078 162.191,73.7078 162,71.5C 161.503,74.146 161.336,76.8127 161.5,79.5C 159.255,79.5412 158.588,80.3745 159.5,82C 158.354,82.6449 157.354,83.4783 156.5,84.5C 156.167,83.6667 155.833,82.8333 155.5,82C 157.153,79.3988 157.653,76.5655 157,73.5C 155.005,70.1942 152.838,69.8609 150.5,72.5C 149.833,72.5 149.5,72.8333 149.5,73.5C 148.59,71.5128 146.59,70.0128 143.5,69C 146.677,69.0675 149.844,68.2341 153,66.5C 153.333,67.1667 153.667,67.8333 154,68.5C 154.816,67.1772 155.983,66.5106 157.5,66.5C 158.117,66.3893 158.617,66.056 159,65.5C 158.716,69.4045 160.216,70.7379 163.5,69.5 Z"/></g>
<g><path style="opacity:0.071" fill="#526268" d="M 131.5,45.5 C 131.5,47.5 131.5,49.5 131.5,51.5C 131.672,52.4916 131.338,53.1583 130.5,53.5C 130.586,52.5041 130.252,51.6708 129.5,51C 125.118,50.3298 124.452,51.4965 127.5,54.5C 127.5,57.5 127.5,60.5 127.5,63.5C 127.5,64.5 127.5,65.5 127.5,66.5C 126.022,66.238 124.689,66.5713 123.5,67.5C 125.025,73.5085 126.025,79.5085 126.5,85.5C 126.525,88.179 127.858,89.5123 130.5,89.5C 130.577,90.7498 131.244,91.5831 132.5,92C 134.473,92.4955 136.473,92.6621 138.5,92.5C 139.167,93.1667 139.833,93.8333 140.5,94.5C 135.016,95.2895 134.35,97.4561 138.5,101C 138.272,101.399 137.938,101.565 137.5,101.5C 136.5,101.5 135.5,101.5 134.5,101.5C 134.795,99.2646 134.461,97.2646 133.5,95.5C 129.858,93.3557 127.025,90.3557 125,86.5C 124.187,80.5647 123.354,74.398 122.5,68C 124.245,65.9168 125.578,63.5835 126.5,61C 125.833,58 125.167,55 124.5,52C 124.833,51.1667 125.167,50.3333 125.5,49.5C 128.225,49.063 130.225,47.7296 131.5,45.5 Z"/></g>
<g><path style="opacity:0.09" fill="#546565" d="M 140.5,72.5 C 140.144,74.1898 139.144,75.1898 137.5,75.5C 136.522,75.189 135.855,74.5223 135.5,73.5C 137.045,72.5481 138.712,72.2148 140.5,72.5 Z"/></g>
<g><path style="opacity:0.082" fill="#586566" d="M 142.5,72.5 C 143.833,72.5 145.167,72.5 146.5,72.5C 146.5,73.8333 146.5,75.1667 146.5,76.5C 144.833,75.5 143.5,74.1667 142.5,72.5 Z"/></g>
<g><path style="opacity:0.99" fill="#060c11" d="M 176.5,64.5 C 176.5,65.1667 176.5,65.8333 176.5,66.5C 175.215,68.4516 173.549,70.1182 171.5,71.5C 170.167,71.5 168.833,71.5 167.5,71.5C 168.997,78.5469 168.83,85.5469 167,92.5C 166.184,93.8228 165.017,94.4894 163.5,94.5C 165.64,92.1007 166.307,89.434 165.5,86.5C 163.041,87.791 161.541,89.791 161,92.5C 159.171,92.4351 157.338,92.1018 155.5,91.5C 160.569,89.6007 164.236,86.1007 166.5,81C 165.29,79.9609 164.29,78.7942 163.5,77.5C 163.5,75.1667 163.5,72.8333 163.5,70.5C 164.798,71.1157 165.798,71.1157 166.5,70.5C 168.317,69.7808 168.984,68.7808 168.5,67.5C 169.891,68.6446 171.224,68.6446 172.5,67.5C 171.833,66.8333 171.167,66.1667 170.5,65.5C 172.396,64.5344 174.396,64.2011 176.5,64.5 Z"/></g>
<g><path style="opacity:0.954" fill="#000a0f" d="M 127.5,66.5 C 127.717,72.0984 128.717,77.4317 130.5,82.5C 129.448,82.3505 128.448,82.5172 127.5,83C 127.833,83.3333 128.167,83.6667 128.5,84C 127.584,84.2784 126.918,84.7784 126.5,85.5C 126.025,79.5085 125.025,73.5085 123.5,67.5C 124.689,66.5713 126.022,66.238 127.5,66.5 Z"/></g>
<g><path style="opacity:0.059" fill="#586466" d="M 150.5,72.5 C 151.833,72.5 153.167,72.5 154.5,72.5C 154.999,78.0585 154.333,83.3918 152.5,88.5C 151.094,88.9731 150.427,89.9731 150.5,91.5C 149.448,91.6495 148.448,91.4828 147.5,91C 148.71,89.9609 149.71,88.7942 150.5,87.5C 151.117,87.3893 151.617,87.056 152,86.5C 153.257,81.6169 152.424,77.2835 149.5,73.5C 149.5,72.8333 149.833,72.5 150.5,72.5 Z"/></g>
<g><path style="opacity:1" fill="#04070b" d="M 140.5,72.5 C 141.167,72.5 141.833,72.5 142.5,72.5C 143.5,74.1667 144.833,75.5 146.5,76.5C 147.15,76.1961 147.817,75.8627 148.5,75.5C 151.208,78.0928 150.541,79.4261 146.5,79.5C 145.163,80.3149 144.163,81.4815 143.5,83C 143,83.1667 142.5,83.3333 142,83.5C 140.832,82.4911 139.665,81.4911 138.5,80.5C 137.167,81.5 135.833,82.5 134.5,83.5C 132.722,81.736 131.389,79.736 130.5,77.5C 131.794,76.7101 132.961,75.7101 134,74.5C 134.924,76.4951 136.09,76.8284 137.5,75.5C 139.144,75.1898 140.144,74.1898 140.5,72.5 Z"/></g>
<g><path style="opacity:0.082" fill="#54666a" d="M 127.5,66.5 C 128.965,67.4057 129.965,68.739 130.5,70.5C 131.729,71.2811 133.062,71.7811 134.5,72C 132.536,73.451 131.203,75.2843 130.5,77.5C 131.389,79.736 132.722,81.736 134.5,83.5C 135.833,82.5 137.167,81.5 138.5,80.5C 139.665,81.4911 140.832,82.4911 142,83.5C 142.5,83.3333 143,83.1667 143.5,83C 144.163,81.4815 145.163,80.3149 146.5,79.5C 148.779,80.8684 149.446,82.7017 148.5,85C 144.514,85.4988 140.514,85.6655 136.5,85.5C 134.033,85.2451 132.033,84.2451 130.5,82.5C 128.717,77.4317 127.717,72.0984 127.5,66.5 Z"/></g>
<g><path style="opacity:1" fill="#02090d" d="M 161.5,79.5 C 161.061,84.2559 158.728,87.5892 154.5,89.5C 153.833,89.1667 153.167,88.8333 152.5,88.5C 154.333,83.3918 154.999,78.0585 154.5,72.5C 153.167,72.5 151.833,72.5 150.5,72.5C 152.838,69.8609 155.005,70.1942 157,73.5C 157.653,76.5655 157.153,79.3988 155.5,82C 155.833,82.8333 156.167,83.6667 156.5,84.5C 157.354,83.4783 158.354,82.6449 159.5,82C 158.588,80.3745 159.255,79.5412 161.5,79.5 Z"/></g>
<g><path style="opacity:0.085" fill="#51656a" d="M 171.5,71.5 C 170.645,72.5307 169.978,73.6974 169.5,75C 170.597,80.4599 170.764,85.9599 170,91.5C 168.691,93.9757 166.858,95.9757 164.5,97.5C 167.266,99.1287 170.266,99.7954 173.5,99.5C 173.5,100.5 173.5,101.5 173.5,102.5C 172.833,102.833 172.167,103.167 171.5,103.5C 168.55,100.962 165.217,100.295 161.5,101.5C 160.77,99.9938 160.437,98.6605 160.5,97.5C 160.5,96.8333 160.833,96.5 161.5,96.5C 162.5,96.1667 163.167,95.5 163.5,94.5C 165.017,94.4894 166.184,93.8228 167,92.5C 168.83,85.5469 168.997,78.5469 167.5,71.5C 168.833,71.5 170.167,71.5 171.5,71.5 Z"/></g>
<g><path style="opacity:0.073" fill="#53676a" d="M 163.5,77.5 C 164.29,78.7942 165.29,79.9609 166.5,81C 164.236,86.1007 160.569,89.6007 155.5,91.5C 153.302,91.5912 152.969,90.9245 154.5,89.5C 158.728,87.5892 161.061,84.2559 161.5,79.5C 161.336,76.8127 161.503,74.146 162,71.5C 162.191,73.7078 162.691,75.7078 163.5,77.5 Z"/></g>
<g><path style="opacity:1" fill="#060609" d="M 130.5,82.5 C 132.033,84.2451 134.033,85.2451 136.5,85.5C 138.438,87.1628 140.772,87.8294 143.5,87.5C 140.048,89.1734 136.214,90.1734 132,90.5C 131.617,89.944 131.117,89.6107 130.5,89.5C 127.858,89.5123 126.525,88.179 126.5,85.5C 126.918,84.7784 127.584,84.2784 128.5,84C 128.167,83.6667 127.833,83.3333 127.5,83C 128.448,82.5172 129.448,82.3505 130.5,82.5 Z"/></g>
<g><path style="opacity:0.953" fill="#02090a" d="M 150.5,87.5 C 149.71,88.7942 148.71,89.9609 147.5,91C 148.448,91.4828 149.448,91.6495 150.5,91.5C 151.234,92.8775 151.901,94.3775 152.5,96C 155.707,96.0873 158.707,96.254 161.5,96.5C 160.833,96.5 160.5,96.8333 160.5,97.5C 156.818,97.6653 153.152,97.4986 149.5,97C 148.616,95.2802 147.283,94.1135 145.5,93.5C 143.393,92.5318 141.059,92.1984 138.5,92.5C 136.473,92.6621 134.473,92.4955 132.5,92C 131.244,91.5831 130.577,90.7498 130.5,89.5C 131.117,89.6107 131.617,89.944 132,90.5C 136.214,90.1734 140.048,89.1734 143.5,87.5C 145.563,86.7849 147.896,86.7849 150.5,87.5 Z"/></g>
<g><path style="opacity:1" fill="#050609" d="M 163.5,94.5 C 163.167,95.5 162.5,96.1667 161.5,96.5C 158.707,96.254 155.707,96.0873 152.5,96C 151.901,94.3775 151.234,92.8775 150.5,91.5C 150.427,89.9731 151.094,88.9731 152.5,88.5C 153.167,88.8333 153.833,89.1667 154.5,89.5C 152.969,90.9245 153.302,91.5912 155.5,91.5C 157.338,92.1018 159.171,92.4351 161,92.5C 161.541,89.791 163.041,87.791 165.5,86.5C 166.307,89.434 165.64,92.1007 163.5,94.5 Z"/></g>
<g><path style="opacity:0.031" fill="#53626a" d="M 109.5,99.5 C 110.167,100.167 110.833,100.833 111.5,101.5C 109.167,101.5 106.833,101.5 104.5,101.5C 104.439,98.2699 102.772,96.4365 99.5,96C 94.1771,95.5006 88.8437,95.334 83.5,95.5C 85.2834,102.339 85.95,109.339 85.5,116.5C 85.5,118.167 85.5,119.833 85.5,121.5C 84.9299,112.551 83.9299,103.551 82.5,94.5C 88.8421,94.3338 95.1754,94.5005 101.5,95C 103.455,95.9533 105.122,97.2866 106.5,99C 107.448,99.4828 108.448,99.6495 109.5,99.5 Z"/></g>
<g><path style="opacity:0.937" fill="#02080b" d="M 140.5,94.5 C 143.081,96.6076 143.081,98.7743 140.5,101C 141,101.5 141.5,102 142,102.5C 142.333,107.5 142.667,112.5 143,117.5C 143.278,118.416 143.778,119.082 144.5,119.5C 144.5,120.5 144.5,121.5 144.5,122.5C 142.143,122.663 139.81,122.497 137.5,122C 136.663,120.989 136.33,119.822 136.5,118.5C 137.217,119.461 138.383,120.461 140,121.5C 140.991,120.57 141.491,119.404 141.5,118C 139.442,112.346 138.109,106.846 137.5,101.5C 137.938,101.565 138.272,101.399 138.5,101C 134.35,97.4561 135.016,95.2895 140.5,94.5 Z"/></g>
<g><path style="opacity:0.055" fill="#52676a" d="M 200.5,100.5 C 200.5,101.167 200.5,101.833 200.5,102.5C 198.393,101.7 196.226,101.033 194,100.5C 192.93,100.528 192.097,100.861 191.5,101.5C 189.847,101.66 188.514,102.326 187.5,103.5C 186.596,102.791 186.263,101.791 186.5,100.5C 184.833,100.5 183.167,100.5 181.5,100.5C 181.39,95.5964 180.057,95.263 177.5,99.5C 176.167,100.5 174.833,101.5 173.5,102.5C 173.5,101.5 173.5,100.5 173.5,99.5C 175.354,97.4041 177.687,96.0707 180.5,95.5C 183.237,96.9509 186.07,98.2842 189,99.5C 193.029,98.006 196.863,98.3393 200.5,100.5 Z"/></g>
<g><path style="opacity:0.098" fill="#51696a" d="M 133.5,95.5 C 134.461,97.2646 134.795,99.2646 134.5,101.5C 134.833,102.833 135.167,104.167 135.5,105.5C 134.833,107.167 134.167,108.833 133.5,110.5C 134.032,101.617 130.199,98.9507 122,102.5C 118.449,99.8937 114.949,99.8937 111.5,102.5C 111.5,102.167 111.5,101.833 111.5,101.5C 110.833,100.833 110.167,100.167 109.5,99.5C 117.174,99.6664 124.841,99.4997 132.5,99C 133.337,97.9887 133.67,96.8221 133.5,95.5 Z"/></g>
<g><path style="opacity:0.975" fill="#03080b" d="M 171.5,103.5 C 171.5,103.833 171.5,104.167 171.5,104.5C 170.778,110.904 171.778,116.904 174.5,122.5C 170.401,122.142 166.401,122.142 162.5,122.5C 156.432,120.913 154.932,117.246 158,111.5C 160.925,109.956 163.758,108.289 166.5,106.5C 166.167,105.5 165.5,104.833 164.5,104.5C 163.167,105.5 161.833,106.5 160.5,107.5C 159.051,105.088 159.384,103.088 161.5,101.5C 165.217,100.295 168.55,100.962 171.5,103.5 Z"/></g>
<g><path style="opacity:0.993" fill="#02090a" d="M 148.5,101.5 C 151.674,101.998 155.007,101.998 158.5,101.5C 158.799,103.604 158.466,105.604 157.5,107.5C 155.958,106.253 154.458,106.253 153,107.5C 152.352,112.204 152.519,116.871 153.5,121.5C 151.372,122.629 149.039,122.796 146.5,122C 145.748,121.329 145.414,120.496 145.5,119.5C 145.666,114.156 145.499,108.823 145,103.5C 144.5,103 144,102.5 143.5,102C 145.134,101.506 146.801,101.34 148.5,101.5 Z"/></g>
<g><path style="opacity:0.998" fill="#02080c" d="M 111.5,101.5 C 111.5,101.833 111.5,102.167 111.5,102.5C 111.5,103.5 111.5,104.5 111.5,105.5C 111.559,110.781 111.226,115.781 110.5,120.5C 108.775,118.908 107.775,119.242 107.5,121.5C 106.913,115.573 106.08,109.573 105,103.5C 101.285,100.924 97.118,99.9239 92.5,100.5C 91.7659,99.2921 91.4326,97.9587 91.5,96.5C 90.5,96.5 89.5,96.5 88.5,96.5C 88.6715,98.4918 88.0049,100.158 86.5,101.5C 88.4872,107.108 88.8206,112.775 87.5,118.5C 87.5654,118.938 87.3988,119.272 87,119.5C 86.7679,118.263 86.2679,117.263 85.5,116.5C 85.95,109.339 85.2834,102.339 83.5,95.5C 88.8437,95.334 94.1771,95.5006 99.5,96C 102.772,96.4365 104.439,98.2699 104.5,101.5C 106.833,101.5 109.167,101.5 111.5,101.5 Z M 101.5,109.5 C 102.163,107.958 102.83,106.291 103.5,104.5C 105.466,107.549 105.966,110.882 105,114.5C 101.679,115.971 98.1791,116.637 94.5,116.5C 94.5,114.5 94.5,112.5 94.5,110.5C 97.2148,112.076 99.5481,111.742 101.5,109.5 Z"/></g>
<g><path style="opacity:1" fill="#05070b" d="M 187.5,103.5 C 188.695,103.866 189.361,104.699 189.5,106C 188.579,108.617 188.579,111.283 189.5,114C 189.325,115.658 188.658,116.991 187.5,118C 188.5,118.333 189.5,118.667 190.5,119C 190.167,119.333 189.833,119.667 189.5,120C 190.416,120.278 191.082,120.778 191.5,121.5C 186.406,120.512 184.073,117.345 184.5,112C 184.58,110.106 184.913,108.273 185.5,106.5C 184.672,105.585 183.672,104.919 182.5,104.5C 181.508,108.783 181.174,113.116 181.5,117.5C 180.533,118.806 179.199,119.473 177.5,119.5C 176.559,112.794 176.559,106.128 177.5,99.5C 180.057,95.263 181.39,95.5964 181.5,100.5C 183.167,100.5 184.833,100.5 186.5,100.5C 186.263,101.791 186.596,102.791 187.5,103.5 Z"/></g>
<g><path style="opacity:0.988" fill="#02090c" d="M 200.5,102.5 C 200.5,104.5 200.5,106.5 200.5,108.5C 199.647,110.893 197.981,112.226 195.5,112.5C 194.5,111.833 193.5,111.167 192.5,110.5C 194.188,108.523 194.521,106.523 193.5,104.5C 192.094,104.027 191.427,103.027 191.5,101.5C 192.097,100.861 192.93,100.528 194,100.5C 196.226,101.033 198.393,101.7 200.5,102.5 Z"/></g>
<g><path style="opacity:1" fill="#05070a" d="M 133.5,110.5 C 133.264,113.609 133.597,116.609 134.5,119.5C 132.202,121.86 130.202,121.36 128.5,118C 129.825,114.085 129.492,110.252 127.5,106.5C 122.208,105.505 116.875,105.172 111.5,105.5C 111.5,104.5 111.5,103.5 111.5,102.5C 114.949,99.8937 118.449,99.8937 122,102.5C 130.199,98.9507 134.032,101.617 133.5,110.5 Z"/></g>
<g><path style="opacity:0.951" fill="#01090d" d="M 207.5,105.5 C 206.133,104.147 205.133,104.481 204.5,106.5C 205.63,107.622 206.297,108.956 206.5,110.5C 206.5,111.5 206.5,112.5 206.5,113.5C 203.833,112.833 202.167,111.167 201.5,108.5C 201.993,101.247 205.66,99.0804 212.5,102C 213.76,103.814 213.76,105.647 212.5,107.5C 211.374,104.797 209.707,104.13 207.5,105.5 Z"/></g>
<g><path style="opacity:0.973" fill="#02080d" d="M 111.5,105.5 C 116.875,105.172 122.208,105.505 127.5,106.5C 129.492,110.252 129.825,114.085 128.5,118C 130.202,121.36 132.202,121.86 134.5,119.5C 135.711,121.563 134.877,122.563 132,122.5C 129.966,122.646 128.299,121.98 127,120.5C 126.501,115.845 126.334,111.179 126.5,106.5C 125.178,106.33 124.011,106.663 123,107.5C 121.805,112.6 122.638,117.267 125.5,121.5C 122.628,122.783 119.795,122.783 117,121.5C 116.667,116.833 116.333,112.167 116,107.5C 114.989,106.663 113.822,106.33 112.5,106.5C 112.014,111.699 112.681,116.699 114.5,121.5C 112.257,122.474 109.924,122.808 107.5,122.5C 107.5,122.167 107.5,121.833 107.5,121.5C 107.775,119.242 108.775,118.908 110.5,120.5C 111.226,115.781 111.559,110.781 111.5,105.5 Z"/></g>
<g><path style="opacity:0.078" fill="#586464" d="M 193.5,104.5 C 194.521,106.523 194.188,108.523 192.5,110.5C 191.479,108.477 191.812,106.477 193.5,104.5 Z"/></g>
<g><path style="opacity:1" fill="#03070d" d="M 134.5,101.5 C 135.5,101.5 136.5,101.5 137.5,101.5C 138.109,106.846 139.442,112.346 141.5,118C 141.491,119.404 140.991,120.57 140,121.5C 138.383,120.461 137.217,119.461 136.5,118.5C 136.818,113.968 136.485,109.634 135.5,105.5C 135.167,104.167 134.833,102.833 134.5,101.5 Z"/></g>
<g><path style="opacity:0.063" fill="#53656c" d="M 145.5,93.5 C 147.283,94.1135 148.616,95.2802 149.5,97C 153.152,97.4986 156.818,97.6653 160.5,97.5C 160.437,98.6605 160.77,99.9938 161.5,101.5C 159.384,103.088 159.051,105.088 160.5,107.5C 161.833,106.5 163.167,105.5 164.5,104.5C 165.5,104.833 166.167,105.5 166.5,106.5C 163.758,108.289 160.925,109.956 158,111.5C 154.932,117.246 156.432,120.913 162.5,122.5C 166.401,122.142 170.401,122.142 174.5,122.5C 175.167,122.5 175.5,122.833 175.5,123.5C 168.529,124.064 161.529,123.397 154.5,121.5C 154.167,121.5 153.833,121.5 153.5,121.5C 152.519,116.871 152.352,112.204 153,107.5C 154.458,106.253 155.958,106.253 157.5,107.5C 158.466,105.604 158.799,103.604 158.5,101.5C 155.007,101.998 151.674,101.998 148.5,101.5C 150.097,99.2436 149.431,97.9103 146.5,97.5C 146.158,96.6618 145.492,96.3284 144.5,96.5C 144.263,95.209 144.596,94.209 145.5,93.5 Z"/></g>
<g><path style="opacity:1" fill="#050709" d="M 92.5,100.5 C 93.2341,101.708 93.5674,103.041 93.5,104.5C 97.7464,103.761 100.413,105.427 101.5,109.5C 98.8728,108.908 96.2062,108.575 93.5,108.5C 93.5,111.5 93.5,114.5 93.5,117.5C 91.9007,119.729 89.9007,120.062 87.5,118.5C 88.8206,112.775 88.4872,107.108 86.5,101.5C 88.0049,100.158 88.6715,98.4918 88.5,96.5C 89.5,96.5 90.5,96.5 91.5,96.5C 91.4326,97.9587 91.7659,99.2921 92.5,100.5 Z"/></g>
<g><path style="opacity:0.086" fill="#51666a" d="M 138.5,92.5 C 141.059,92.1984 143.393,92.5318 145.5,93.5C 144.596,94.209 144.263,95.209 144.5,96.5C 144.345,99.8531 145.012,100.186 146.5,97.5C 149.431,97.9103 150.097,99.2436 148.5,101.5C 146.801,101.34 145.134,101.506 143.5,102C 144,102.5 144.5,103 145,103.5C 145.499,108.823 145.666,114.156 145.5,119.5C 145.167,119.5 144.833,119.5 144.5,119.5C 143.778,119.082 143.278,118.416 143,117.5C 142.667,112.5 142.333,107.5 142,102.5C 141.5,102 141,101.5 140.5,101C 143.081,98.7743 143.081,96.6076 140.5,94.5C 139.833,93.8333 139.167,93.1667 138.5,92.5 Z"/></g>
<g><path style="opacity:0.004" fill="#000000" d="M 154.5,112.5 C 154.783,111.711 155.283,111.044 156,110.5C 156.528,111.816 156.028,112.483 154.5,112.5 Z"/></g>
<g><path style="opacity:0.075" fill="#566369" d="M 212.5,122.5 C 212.5,122.167 212.5,121.833 212.5,121.5C 214.652,118.876 215.485,115.876 215,112.5C 212.858,109.559 210.358,107.226 207.5,105.5C 209.707,104.13 211.374,104.797 212.5,107.5C 213.76,105.647 213.76,103.814 212.5,102C 205.66,99.0804 201.993,101.247 201.5,108.5C 201.167,108.5 200.833,108.5 200.5,108.5C 200.5,106.5 200.5,104.5 200.5,102.5C 200.5,101.833 200.5,101.167 200.5,100.5C 203.311,100.429 205.978,99.762 208.5,98.5C 210.697,98.8481 212.53,99.8481 214,101.5C 214.183,106.202 215.017,110.702 216.5,115C 216.587,118.329 215.254,120.829 212.5,122.5 Z"/></g>
<g><path style="opacity:0.039" fill="#52656b" d="M 200.5,108.5 C 200.833,108.5 201.167,108.5 201.5,108.5C 202.167,111.167 203.833,112.833 206.5,113.5C 208.895,115.249 208.895,116.916 206.5,118.5C 202.602,115.31 200.935,116.31 201.5,121.5C 204.852,122.707 208.186,122.707 211.5,121.5C 211.833,121.5 212.167,121.5 212.5,121.5C 212.5,121.833 212.5,122.167 212.5,122.5C 208.065,123.266 203.731,123.599 199.5,123.5C 199.167,122.833 198.833,122.167 198.5,121.5C 199.649,121.209 200.316,120.376 200.5,119C 200.167,118.167 199.833,117.333 199.5,116.5C 196.61,119.472 194.276,119.139 192.5,115.5C 193.77,114.712 194.77,113.712 195.5,112.5C 197.981,112.226 199.647,110.893 200.5,108.5 Z"/></g>
<g><path style="opacity:1" fill="#03060c" d="M 207.5,105.5 C 210.358,107.226 212.858,109.559 215,112.5C 215.485,115.876 214.652,118.876 212.5,121.5C 212.167,121.5 211.833,121.5 211.5,121.5C 211.36,119.876 212.027,118.71 213.5,118C 211.996,116.509 211.163,114.676 211,112.5C 209.371,112.836 207.871,112.17 206.5,110.5C 206.297,108.956 205.63,107.622 204.5,106.5C 205.133,104.481 206.133,104.147 207.5,105.5 Z"/></g>
<g><path style="opacity:0.051" fill="#536367" d="M 92.5,100.5 C 97.118,99.9239 101.285,100.924 105,103.5C 106.08,109.573 106.913,115.573 107.5,121.5C 107.5,121.833 107.5,122.167 107.5,122.5C 106.167,122.5 104.833,122.5 103.5,122.5C 104.73,120.703 105.396,118.703 105.5,116.5C 101.548,117.272 97.5483,117.605 93.5,117.5C 93.5,114.5 93.5,111.5 93.5,108.5C 96.2062,108.575 98.8728,108.908 101.5,109.5C 100.413,105.427 97.7464,103.761 93.5,104.5C 93.5674,103.041 93.2341,101.708 92.5,100.5 Z M 101.5,109.5 C 99.5481,111.742 97.2148,112.076 94.5,110.5C 94.5,112.5 94.5,114.5 94.5,116.5C 98.1791,116.637 101.679,115.971 105,114.5C 105.966,110.882 105.466,107.549 103.5,104.5C 102.83,106.291 102.163,107.958 101.5,109.5 Z"/></g>
<g><path style="opacity:0.055" fill="#56666b" d="M 163.5,112.5 C 165.976,114.121 166.142,116.121 164,118.5C 162.2,116.635 162.034,114.635 163.5,112.5 Z"/></g>
<g><path style="opacity:0.047" fill="#51656a" d="M 171.5,104.5 C 172.833,104.5 174.167,104.5 175.5,104.5C 175.334,110.176 175.501,115.843 176,121.5C 178.795,122.783 181.628,122.783 184.5,121.5C 183.476,120.148 182.476,118.815 181.5,117.5C 181.174,113.116 181.508,108.783 182.5,104.5C 183.672,104.919 184.672,105.585 185.5,106.5C 184.913,108.273 184.58,110.106 184.5,112C 184.073,117.345 186.406,120.512 191.5,121.5C 193.726,122.756 196.059,122.756 198.5,121.5C 198.833,122.167 199.167,122.833 199.5,123.5C 195.124,123.886 190.957,123.219 187,121.5C 186.5,122 186,122.5 185.5,123C 182.183,123.498 178.85,123.665 175.5,123.5C 175.5,122.833 175.167,122.5 174.5,122.5C 171.778,116.904 170.778,110.904 171.5,104.5 Z M 172.5,107.5 C 175.001,107.511 175.168,108.178 173,109.5C 172.536,108.906 172.369,108.239 172.5,107.5 Z"/></g>
<g><path style="opacity:1" fill="#02090a" d="M 191.5,101.5 C 191.427,103.027 192.094,104.027 193.5,104.5C 191.812,106.477 191.479,108.477 192.5,110.5C 193.5,111.167 194.5,111.833 195.5,112.5C 194.77,113.712 193.77,114.712 192.5,115.5C 194.276,119.139 196.61,119.472 199.5,116.5C 199.833,117.333 200.167,118.167 200.5,119C 200.316,120.376 199.649,121.209 198.5,121.5C 196.059,122.756 193.726,122.756 191.5,121.5C 191.082,120.778 190.416,120.278 189.5,120C 189.833,119.667 190.167,119.333 190.5,119C 189.5,118.667 188.5,118.333 187.5,118C 188.658,116.991 189.325,115.658 189.5,114C 188.579,111.283 188.579,108.617 189.5,106C 189.361,104.699 188.695,103.866 187.5,103.5C 188.514,102.326 189.847,101.66 191.5,101.5 Z"/></g>
<g><path style="opacity:0.988" fill="#02090b" d="M 206.5,110.5 C 207.871,112.17 209.371,112.836 211,112.5C 211.163,114.676 211.996,116.509 213.5,118C 212.027,118.71 211.36,119.876 211.5,121.5C 208.186,122.707 204.852,122.707 201.5,121.5C 200.935,116.31 202.602,115.31 206.5,118.5C 208.895,116.916 208.895,115.249 206.5,113.5C 206.5,112.5 206.5,111.5 206.5,110.5 Z"/></g>
<g><path style="opacity:0.991" fill="#12181a" d="M 85.5,116.5 C 86.2679,117.263 86.7679,118.263 87,119.5C 87.3988,119.272 87.5654,118.938 87.5,118.5C 89.9007,120.062 91.9007,119.729 93.5,117.5C 97.5483,117.605 101.548,117.272 105.5,116.5C 105.396,118.703 104.73,120.703 103.5,122.5C 100.686,123.165 97.6862,123.498 94.5,123.5C 91.0866,123.483 88.0866,122.816 85.5,121.5C 85.5,119.833 85.5,118.167 85.5,116.5 Z"/></g>
<g><path style="opacity:0.053" fill="#526468" d="M 135.5,105.5 C 136.485,109.634 136.818,113.968 136.5,118.5C 136.33,119.822 136.663,120.989 137.5,122C 139.81,122.497 142.143,122.663 144.5,122.5C 144.5,121.5 144.5,120.5 144.5,119.5C 144.833,119.5 145.167,119.5 145.5,119.5C 145.414,120.496 145.748,121.329 146.5,122C 149.039,122.796 151.372,122.629 153.5,121.5C 153.833,121.5 154.167,121.5 154.5,121.5C 150.386,122.826 145.886,123.493 141,123.5C 129.636,123.511 118.469,123.177 107.5,122.5C 109.924,122.808 112.257,122.474 114.5,121.5C 112.681,116.699 112.014,111.699 112.5,106.5C 113.822,106.33 114.989,106.663 116,107.5C 116.333,112.167 116.667,116.833 117,121.5C 119.795,122.783 122.628,122.783 125.5,121.5C 122.638,117.267 121.805,112.6 123,107.5C 124.011,106.663 125.178,106.33 126.5,106.5C 126.334,111.179 126.501,115.845 127,120.5C 128.299,121.98 129.966,122.646 132,122.5C 134.877,122.563 135.711,121.563 134.5,119.5C 133.597,116.609 133.264,113.609 133.5,110.5C 134.167,108.833 134.833,107.167 135.5,105.5 Z"/></g>
<g><path style="opacity:0.969" fill="#010a0c" d="M 177.5,99.5 C 176.559,106.128 176.559,112.794 177.5,119.5C 179.199,119.473 180.533,118.806 181.5,117.5C 182.476,118.815 183.476,120.148 184.5,121.5C 181.628,122.783 178.795,122.783 176,121.5C 175.501,115.843 175.334,110.176 175.5,104.5C 174.167,104.5 172.833,104.5 171.5,104.5C 171.5,104.167 171.5,103.833 171.5,103.5C 172.167,103.167 172.833,102.833 173.5,102.5C 174.833,101.5 176.167,100.5 177.5,99.5 Z"/></g>
</svg>
