<?xml version="1.0" encoding="UTF-8"?>
<!DOCTYPE svg PUBLIC "-//W3C//DTD SVG 1.1//EN" "http://www.w3.org/Graphics/SVG/1.1/DTD/svg11.dtd">
<svg xmlns="http://www.w3.org/2000/svg" version="1.1" width="303px" height="153px" style="shape-rendering:geometricPrecision; text-rendering:geometricPrecision; image-rendering:optimizeQuality; fill-rule:evenodd; clip-rule:evenodd" xmlns:xlink="http://www.w3.org/1999/xlink">
<g><path style="opacity:0.075" fill="#506468" d="M 199.5,102.5 C 200.708,103.234 202.041,103.567 203.5,103.5C 203.759,107.068 205.759,108.401 209.5,107.5C 209.5,108.5 209.5,109.5 209.5,110.5C 215.842,110.666 222.175,110.5 228.5,110C 229.035,107.891 230.035,107.391 231.5,108.5C 236.694,106.033 240.361,102.033 242.5,96.5C 244.145,92.6804 244.811,88.6804 244.5,84.5C 236.606,84.4733 236.606,83.8066 244.5,82.5C 241.78,80.8893 238.78,80.056 235.5,80C 236,79.5 236.5,79 237,78.5C 239.2,79.9901 241.034,79.6568 242.5,77.5C 238.888,76.4532 235.221,75.6198 231.5,75C 232.416,74.6258 233.25,74.1258 234,73.5C 236.139,74.7691 238.305,74.7691 240.5,73.5C 240.167,72.8333 239.833,72.1667 239.5,71.5C 241.167,70.3333 242.833,69.1667 244.5,68C 249.853,67.1547 254.52,64.9881 258.5,61.5C 257.833,61.1667 257.167,60.8333 256.5,60.5C 253.662,62.1015 250.662,62.6015 247.5,62C 249.818,60.0073 252.484,58.8406 255.5,58.5C 255.5,57.5 255.5,56.5 255.5,55.5C 252.11,56.0233 248.777,56.8566 245.5,58C 242.268,60.1139 238.935,61.9472 235.5,63.5C 238.14,60.7436 241.14,58.2436 244.5,56C 248.017,54.2658 251.684,53.5992 255.5,54C 257.212,56.366 258.878,58.6994 260.5,61C 260.415,62.1074 260.081,63.1074 259.5,64C 254.338,66.6654 249.171,69.1654 244,71.5C 245.516,77.5168 246.35,83.5168 246.5,89.5C 245.439,100.386 239.772,107.553 229.5,111C 223.629,111.231 217.796,111.731 212,112.5C 206.166,111.158 201.999,107.824 199.5,102.5 Z"/></g>
<g><path style="opacity:0.102" fill="#55676f" d="M 209.5,63.5 C 218.302,62.3381 226.968,62.3381 235.5,63.5C 234,65.1786 232.167,66.5119 230,67.5C 229.51,66.2068 229.343,64.8734 229.5,63.5C 222.833,63.5 216.167,63.5 209.5,63.5 Z"/></g>
<g><path style="opacity:0.122" fill="#556669" d="M 209.5,63.5 C 209.5,64.5 209.5,65.5 209.5,66.5C 207.5,66.5 205.5,66.5 203.5,66.5C 205.033,64.7549 207.033,63.7549 209.5,63.5 Z"/></g>
<g><path style="opacity:0.153" fill="#53636d" d="M 76.5,66.5 C 71.4376,66.2743 66.4376,66.6076 61.5,67.5C 61.6107,66.8826 61.944,66.3826 62.5,66C 67.3522,65.1849 72.0189,65.3516 76.5,66.5 Z"/></g>
<g><path style="opacity:0.082" fill="#586767" d="M 76.5,66.5 C 78.3797,66.2291 79.713,66.8958 80.5,68.5C 78.847,68.3404 77.5137,67.6737 76.5,66.5 Z"/></g>
<g><path style="opacity:0.145" fill="#566369" d="M 61.5,67.5 C 61.0269,68.9063 60.0269,69.573 58.5,69.5C 58.9731,68.0937 59.9731,67.427 61.5,67.5 Z"/></g>
<g><path style="opacity:0.997" fill="#05080b" d="M 199.5,102.5 C 199.5,101.167 199.5,99.8333 199.5,98.5C 198.5,98.5 197.5,98.5 196.5,98.5C 195.257,90.5367 195.257,82.8701 196.5,75.5C 197.5,75.5 198.5,75.5 199.5,75.5C 199.5,74.1667 199.5,72.8333 199.5,71.5C 208.173,71.6664 216.84,71.4998 225.5,71C 218.174,70.5003 210.841,70.3337 203.5,70.5C 203.5,69.1667 203.5,67.8333 203.5,66.5C 205.5,66.5 207.5,66.5 209.5,66.5C 209.5,65.5 209.5,64.5 209.5,63.5C 216.167,63.5 222.833,63.5 229.5,63.5C 229.343,64.8734 229.51,66.2068 230,67.5C 232.167,66.5119 234,65.1786 235.5,63.5C 238.935,61.9472 242.268,60.1139 245.5,58C 248.777,56.8566 252.11,56.0233 255.5,55.5C 255.5,56.5 255.5,57.5 255.5,58.5C 252.484,58.8406 249.818,60.0073 247.5,62C 250.662,62.6015 253.662,62.1015 256.5,60.5C 257.167,60.8333 257.833,61.1667 258.5,61.5C 254.52,64.9881 249.853,67.1547 244.5,68C 242.833,69.1667 241.167,70.3333 239.5,71.5C 239.833,72.1667 240.167,72.8333 240.5,73.5C 238.305,74.7691 236.139,74.7691 234,73.5C 233.25,74.1258 232.416,74.6258 231.5,75C 235.221,75.6198 238.888,76.4532 242.5,77.5C 241.034,79.6568 239.2,79.9901 237,78.5C 236.5,79 236,79.5 235.5,80C 238.78,80.056 241.78,80.8893 244.5,82.5C 236.606,83.8066 236.606,84.4733 244.5,84.5C 244.811,88.6804 244.145,92.6804 242.5,96.5C 240.361,102.033 236.694,106.033 231.5,108.5C 230.035,107.391 229.035,107.891 228.5,110C 222.175,110.5 215.842,110.666 209.5,110.5C 209.5,109.5 209.5,108.5 209.5,107.5C 205.759,108.401 203.759,107.068 203.5,103.5C 202.041,103.567 200.708,103.234 199.5,102.5 Z"/></g>
<g><path style="opacity:0.078" fill="#59636c" d="M 82.5,69.5 C 83.5,69.8333 84.1667,70.5 84.5,71.5C 83.7611,71.631 83.0944,71.4643 82.5,71C 81.2617,70.31 81.2617,69.81 82.5,69.5 Z"/></g>
<g><path style="opacity:0.125" fill="#536169" d="M 56.5,71.5 C 56.573,73.0269 55.9063,74.0269 54.5,74.5C 54.427,72.9731 55.0937,71.9731 56.5,71.5 Z"/></g>
<g><path style="opacity:1" fill="#0c1012" d="M 137.5,66.5 C 138.301,68.0418 138.634,69.7085 138.5,71.5C 135.5,71.5 132.5,71.5 129.5,71.5C 129.5,80.1667 129.5,88.8333 129.5,97.5C 127.167,97.5 124.833,97.5 122.5,97.5C 122.5,88.8333 122.5,80.1667 122.5,71.5C 119.833,71.5 117.167,71.5 114.5,71.5C 114.5,69.8333 114.5,68.1667 114.5,66.5C 122.167,65.1667 129.833,65.1667 137.5,66.5 Z"/></g>
<g><path style="opacity:0.098" fill="#51646a" d="M 203.5,66.5 C 203.5,67.8333 203.5,69.1667 203.5,70.5C 210.841,70.3337 218.174,70.5003 225.5,71C 216.84,71.4998 208.173,71.6664 199.5,71.5C 199.5,72.8333 199.5,74.1667 199.5,75.5C 198.5,75.5 197.5,75.5 196.5,75.5C 195.257,82.8701 195.257,90.5367 196.5,98.5C 197.5,98.5 198.5,98.5 199.5,98.5C 199.5,99.8333 199.5,101.167 199.5,102.5C 198.115,101.386 196.615,100.386 195,99.5C 194.667,99.8333 194.333,100.167 194,100.5C 192.633,104.7 192.133,109.033 192.5,113.5C 183.23,113.657 173.897,113.824 164.5,114C 157.675,115.838 150.842,115.671 144,113.5C 140.393,114.107 136.893,114.44 133.5,114.5C 133.5,113.833 133.5,113.167 133.5,112.5C 136.214,102.405 137.547,102.405 137.5,112.5C 143.325,113.494 145.492,111.161 144,105.5C 143.25,104.874 142.416,104.374 141.5,104C 144.19,103.665 144.857,102.499 143.5,100.5C 144.338,100.158 144.672,99.4916 144.5,98.5C 146.698,99.0671 149.031,99.0671 151.5,98.5C 151.5,99.1667 151.5,99.8333 151.5,100.5C 149.833,100.5 148.167,100.5 146.5,100.5C 146.48,102.143 147.147,103.476 148.5,104.5C 146.771,106.851 146.104,109.518 146.5,112.5C 151.046,112.84 155.546,113.507 160,114.5C 161.059,114.37 161.892,113.87 162.5,113C 172.161,112.5 181.828,112.334 191.5,112.5C 191.5,108.833 191.5,105.167 191.5,101.5C 186.246,100.769 184.079,103.102 185,108.5C 184.667,106.167 184.333,103.833 184,101.5C 181.8,100.01 179.966,100.343 178.5,102.5C 179.376,103.251 180.376,103.751 181.5,104C 179.667,104.5 178.5,105.667 178,107.5C 177.626,106.584 177.126,105.75 176.5,105C 173.183,104.502 169.85,104.335 166.5,104.5C 166.768,102.901 166.434,101.568 165.5,100.5C 167.398,99.515 168.898,100.182 170,102.5C 170.278,101.584 170.778,100.918 171.5,100.5C 172.665,103.022 173.998,103.022 175.5,100.5C 176.167,100.5 176.5,100.167 176.5,99.5C 177.906,99.0269 178.573,98.0269 178.5,96.5C 178.938,96.5654 179.272,96.3988 179.5,96C 177.232,94.4423 176.066,92.2756 176,89.5C 175.623,90.9423 174.79,91.9423 173.5,92.5C 173.336,89.8127 173.503,87.146 174,84.5C 176.833,88.6667 179.667,92.8333 182.5,97C 185.482,97.498 188.482,97.6646 191.5,97.5C 189.037,92.5952 186.037,87.9286 182.5,83.5C 188.907,79.1315 189.907,73.7982 185.5,67.5C 188.346,68.8134 190.013,71.1467 190.5,74.5C 189.717,78.2809 188.05,81.6142 185.5,84.5C 187.006,88.8981 189.839,90.8981 194,90.5C 194.227,85.1028 194.894,79.7695 196,74.5C 198.436,71.7151 200.936,69.0485 203.5,66.5 Z M 153.5,99.5 C 153.56,98.9569 153.893,98.6236 154.5,98.5C 156.225,99.0149 157.892,99.6816 159.5,100.5C 157.099,103.152 155.099,102.819 153.5,99.5 Z M 171.5,100.5 C 172.833,100.5 174.167,100.5 175.5,100.5C 173.998,103.022 172.665,103.022 171.5,100.5 Z"/></g>
<g><path style="opacity:0.09" fill="#54666c" d="M 84.5,71.5 C 85.7899,72.0577 86.6232,73.0577 87,74.5C 87.3511,79.1976 87.8511,83.8642 88.5,88.5C 87.1667,88.5 86.5,87.8333 86.5,86.5C 86.8175,81.3284 86.1508,76.3284 84.5,71.5 Z"/></g>
<g><path style="opacity:0.106" fill="#506669" d="M 100.5,66.5 C 97.9589,74.5753 94.6255,82.2419 90.5,89.5C 90.5,88.8333 90.5,88.1667 90.5,87.5C 93.0836,80.0046 96.4169,73.0046 100.5,66.5 Z"/></g>
<g><path style="opacity:0.993" fill="#050a0d" d="M 152.5,67.5 C 156.304,77.5797 160.304,87.5797 164.5,97.5C 161.5,97.5 158.5,97.5 155.5,97.5C 155.266,88.7784 151.099,86.1117 143,89.5C 142.548,92.1494 141.714,94.6494 140.5,97C 138.421,97.8077 136.421,97.641 134.5,96.5C 139.304,87.069 143.304,77.4024 146.5,67.5C 148.5,64.8333 150.5,64.8333 152.5,67.5 Z"/></g>
<g><path style="opacity:0.994" fill="#03080c" d="M 76.5,66.5 C 77.5137,67.6737 78.847,68.3404 80.5,68.5C 81.4916,68.3284 82.1583,68.6618 82.5,69.5C 81.2617,69.81 81.2617,70.31 82.5,71C 83.0944,71.4643 83.7611,71.631 84.5,71.5C 86.1508,76.3284 86.8175,81.3284 86.5,86.5C 85.596,87.209 85.2627,88.209 85.5,89.5C 84.2699,92.4039 82.2699,94.7373 79.5,96.5C 82.3387,97.8056 84.6721,99.8056 86.5,102.5C 84.891,103.888 83.0577,104.888 81,105.5C 77.6088,104.114 74.7754,101.948 72.5,99C 68.3709,98.6735 64.3709,97.8402 60.5,96.5C 60.0269,95.0937 59.0269,94.427 57.5,94.5C 53.4301,88.42 52.4301,81.7533 54.5,74.5C 55.9063,74.0269 56.573,73.0269 56.5,71.5C 56.8333,70.5 57.5,69.8333 58.5,69.5C 60.0269,69.573 61.0269,68.9063 61.5,67.5C 66.4376,66.6076 71.4376,66.2743 76.5,66.5 Z M 68.5,72.5 C 73.7061,73.3707 77.0394,76.3707 78.5,81.5C 78.0066,86.8451 75.3399,90.5118 70.5,92.5C 65.0282,91.1891 62.3616,87.6891 62.5,82C 62.2749,77.2017 64.2749,74.035 68.5,72.5 Z"/></g>
<g><path style="opacity:0.094" fill="#506268" d="M 68.5,70.5 C 76.8997,71.9426 80.3997,76.9426 79,85.5C 76.878,93.47 72.0447,95.6367 64.5,92C 61.1612,86.446 60.6612,80.6127 63,74.5C 64.4998,72.5313 66.3331,71.198 68.5,70.5 Z M 68.5,72.5 C 64.2749,74.035 62.2749,77.2017 62.5,82C 62.3616,87.6891 65.0282,91.1891 70.5,92.5C 75.3399,90.5118 78.0066,86.8451 78.5,81.5C 77.0394,76.3707 73.7061,73.3707 68.5,72.5 Z"/></g>
<g><path style="opacity:0.137" fill="#556567" d="M 215.5,93.5 C 217.229,90.0352 218.395,86.3685 219,82.5C 219.745,84.2029 220.579,85.8695 221.5,87.5C 219.791,89.8756 217.791,91.8756 215.5,93.5 Z"/></g>
<g><path style="opacity:0.065" fill="#3c4547" d="M 86.5,86.5 C 86.5,87.8333 87.1667,88.5 88.5,88.5C 89.1667,88.1667 89.8333,87.8333 90.5,87.5C 90.5,88.1667 90.5,88.8333 90.5,89.5C 90.6716,90.4916 90.3382,91.1583 89.5,91.5C 88.3478,92.625 87.3478,92.625 86.5,91.5C 87.8333,91.1667 87.8333,90.8333 86.5,90.5C 86.5,89.8333 86.1667,89.5 85.5,89.5C 85.2627,88.209 85.596,87.209 86.5,86.5 Z"/></g>
<g><path style="opacity:0.129" fill="#53666c" d="M 54.5,74.5 C 52.4301,81.7533 53.4301,88.42 57.5,94.5C 55.5491,93.2842 54.0491,91.6175 53,89.5C 52.3333,84.8333 52.3333,80.1667 53,75.5C 53.3826,74.944 53.8826,74.6107 54.5,74.5 Z"/></g>
<g><path style="opacity:1" fill="#090c0f" d="M 185.5,67.5 C 189.907,73.7982 188.907,79.1315 182.5,83.5C 186.037,87.9286 189.037,92.5952 191.5,97.5C 188.482,97.6646 185.482,97.498 182.5,97C 179.667,92.8333 176.833,88.6667 174,84.5C 173.503,87.146 173.336,89.8127 173.5,92.5C 174.038,94.1172 174.371,95.7839 174.5,97.5C 172.167,97.5 169.833,97.5 167.5,97.5C 167.5,87.1667 167.5,76.8333 167.5,66.5C 172.65,65.3493 177.984,65.1826 183.5,66C 184.416,66.2784 185.082,66.7784 185.5,67.5 Z M 174.5,73.5 C 175.5,73.5 176.5,73.5 177.5,73.5C 177.5,74.5 177.5,75.5 177.5,76.5C 176.5,76.5 175.5,76.5 174.5,76.5C 174.5,75.5 174.5,74.5 174.5,73.5 Z"/></g>
<g><path style="opacity:0.106" fill="#4f6369" d="M 173.5,71.5 C 180.779,70.2802 182.779,72.7802 179.5,79C 177.655,80.128 175.655,80.628 173.5,80.5C 173.5,77.5 173.5,74.5 173.5,71.5 Z M 174.5,73.5 C 174.5,74.5 174.5,75.5 174.5,76.5C 175.5,76.5 176.5,76.5 177.5,76.5C 177.5,75.5 177.5,74.5 177.5,73.5C 176.5,73.5 175.5,73.5 174.5,73.5 Z"/></g>
<g><path style="opacity:0.133" fill="#576266" d="M 57.5,94.5 C 59.0269,94.427 60.0269,95.0937 60.5,96.5C 58.9731,96.573 57.9731,95.9063 57.5,94.5 Z"/></g>
<g><path style="opacity:1" fill="#050a0d" d="M 105.5,66.5 C 109.198,76.6272 113.198,86.6272 117.5,96.5C 114.463,97.7412 111.463,97.7412 108.5,96.5C 107.68,94.1877 106.847,91.8543 106,89.5C 103.263,88.3895 100.429,88.2228 97.5,89C 95.8899,91.3114 94.5565,93.8114 93.5,96.5C 91.9547,97.4519 90.288,97.7852 88.5,97.5C 88.5172,95.4352 88.8505,93.4352 89.5,91.5C 90.3382,91.1583 90.6716,90.4916 90.5,89.5C 94.6255,82.2419 97.9589,74.5753 100.5,66.5C 102.167,65.1667 103.833,65.1667 105.5,66.5 Z"/></g>
<g><path style="opacity:0.09" fill="#56636a" d="M 100.5,79.5 C 102.185,80.1837 103.185,81.517 103.5,83.5C 98.361,85.0615 97.361,83.7282 100.5,79.5 Z"/></g>
<g><path style="opacity:0.077" fill="#50656a" d="M 105.5,66.5 C 110.916,76.344 115.583,86.6773 119.5,97.5C 121.475,89.9598 121.975,82.2931 121,74.5C 118.544,72.6787 115.711,72.012 112.5,72.5C 112.054,69.9899 112.72,67.9899 114.5,66.5C 114.5,68.1667 114.5,69.8333 114.5,71.5C 117.167,71.5 119.833,71.5 122.5,71.5C 122.5,80.1667 122.5,88.8333 122.5,97.5C 124.833,97.5 127.167,97.5 129.5,97.5C 129.5,88.8333 129.5,80.1667 129.5,71.5C 132.5,71.5 135.5,71.5 138.5,71.5C 138.634,69.7085 138.301,68.0418 137.5,66.5C 139.969,67.6067 140.969,69.6067 140.5,72.5C 137.421,72.2601 134.421,72.5934 131.5,73.5C 130.336,79.4724 130.17,85.4724 131,91.5C 131.689,92.3567 132.522,93.0233 133.5,93.5C 137.923,86.7362 141.09,79.4028 143,71.5C 144.405,70.2695 145.571,68.9361 146.5,67.5C 143.304,77.4024 139.304,87.069 134.5,96.5C 136.421,97.641 138.421,97.8077 140.5,97C 141.714,94.6494 142.548,92.1494 143,89.5C 151.099,86.1117 155.266,88.7784 155.5,97.5C 158.5,97.5 161.5,97.5 164.5,97.5C 160.304,87.5797 156.304,77.5797 152.5,67.5C 153.804,68.9869 154.97,70.6536 156,72.5C 158.703,77.9156 160.87,83.5823 162.5,89.5C 163.325,90.3857 164.325,90.719 165.5,90.5C 166.073,82.355 166.74,74.355 167.5,66.5C 167.5,76.8333 167.5,87.1667 167.5,97.5C 169.833,97.5 172.167,97.5 174.5,97.5C 174.371,95.7839 174.038,94.1172 173.5,92.5C 174.79,91.9423 175.623,90.9423 176,89.5C 176.066,92.2756 177.232,94.4423 179.5,96C 179.272,96.3988 178.938,96.5654 178.5,96.5C 177.883,96.3893 177.383,96.056 177,95.5C 176.51,96.7932 176.343,98.1266 176.5,99.5C 175.833,99.5 175.5,99.8333 175.5,100.5C 174.167,100.5 172.833,100.5 171.5,100.5C 170.778,100.918 170.278,101.584 170,102.5C 168.898,100.182 167.398,99.515 165.5,100.5C 163.21,103.22 160.21,104.72 156.5,105C 155.663,106.011 155.33,107.178 155.5,108.5C 154.5,108.5 153.5,108.5 152.5,108.5C 152.599,105.763 152.265,103.096 151.5,100.5C 151.5,99.8333 151.5,99.1667 151.5,98.5C 152.695,98.1344 153.361,97.301 153.5,96C 153.487,92.1979 151.654,90.3646 148,90.5C 146.342,90.6752 145.009,91.3418 144,92.5C 143.211,94.7116 143.378,96.7116 144.5,98.5C 144.672,99.4916 144.338,100.158 143.5,100.5C 139.889,100.044 136.556,100.711 133.5,102.5C 132.158,100.995 130.492,100.328 128.5,100.5C 128.167,104.5 127.833,104.5 127.5,100.5C 124.833,100.5 122.167,100.5 119.5,100.5C 119.657,101.873 119.49,103.207 119,104.5C 116.667,99.1667 114.333,99.1667 112,104.5C 111.51,103.207 111.343,101.873 111.5,100.5C 110.5,100.5 109.5,100.5 108.5,100.5C 108.631,99.6236 108.298,98.9569 107.5,98.5C 106.005,99.7053 104.672,99.7053 103.5,98.5C 105.144,98.1898 106.144,97.1898 106.5,95.5C 107.167,95.8333 107.833,96.1667 108.5,96.5C 111.463,97.7412 114.463,97.7412 117.5,96.5C 113.198,86.6272 109.198,76.6272 105.5,66.5 Z M 151.5,98.5 C 149.031,99.0671 146.698,99.0671 144.5,98.5C 143.378,96.7116 143.211,94.7116 144,92.5C 145.009,91.3418 146.342,90.6752 148,90.5C 151.654,90.3646 153.487,92.1979 153.5,96C 153.361,97.301 152.695,98.1344 151.5,98.5 Z M 153.5,99.5 C 155.099,102.819 157.099,103.152 159.5,100.5C 157.892,99.6816 156.225,99.0149 154.5,98.5C 153.893,98.6236 153.56,98.9569 153.5,99.5 Z"/></g>
<g><path style="opacity:0.137" fill="#56646a" d="M 147.5,77.5 C 149.293,79.4261 150.293,81.7594 150.5,84.5C 148.801,84.6602 147.134,84.4935 145.5,84C 146.397,81.9129 147.064,79.7463 147.5,77.5 Z"/></g>
<g><path style="opacity:0.137" fill="#5a6363" d="M 215.5,93.5 C 215.483,95.0281 214.816,95.5281 213.5,95C 214.044,94.2828 214.711,93.7828 215.5,93.5 Z"/></g>
<g><path style="opacity:0.137" fill="#52666c" d="M 108.5,96.5 C 107.833,96.1667 107.167,95.8333 106.5,95.5C 105.166,91.1601 102.166,89.6601 97.5,91C 94.2207,97.2198 96.2207,99.7198 103.5,98.5C 104.672,99.7053 106.005,99.7053 107.5,98.5C 108.298,98.9569 108.631,99.6236 108.5,100.5C 105.833,100.5 103.167,100.5 100.5,100.5C 100.817,103.572 100.484,106.572 99.5,109.5C 98.4911,106.527 98.4911,103.527 99.5,100.5C 98.1667,100.5 96.8333,100.5 95.5,100.5C 95.907,109.24 94.907,109.573 92.5,101.5C 91.3493,100.269 90.1827,100.269 89,101.5C 87.7048,105.215 86.5381,108.882 85.5,112.5C 87.9732,112.264 89.6399,110.931 90.5,108.5C 92.0182,111.441 94.5182,112.774 98,112.5C 100.302,112.4 102.302,111.733 104,110.5C 105.444,112.155 107.278,112.822 109.5,112.5C 109.5,111.5 109.5,110.5 109.5,109.5C 110.404,110.209 110.737,111.209 110.5,112.5C 113.346,112.191 114.846,110.525 115,107.5C 115.265,109.651 116.265,111.318 118,112.5C 119.69,111.851 121.523,111.851 123.5,112.5C 124.114,107.397 125.448,107.23 127.5,112C 128.448,112.483 129.448,112.649 130.5,112.5C 130.302,110.425 130.135,108.425 130,106.5C 130.739,108.889 131.905,110.889 133.5,112.5C 133.5,113.167 133.5,113.833 133.5,114.5C 117.166,114.128 100.833,113.794 84.5,113.5C 84.5,111.5 84.5,109.5 84.5,107.5C 78.991,107.078 74.6577,104.578 71.5,100C 69.1667,99.6667 66.8333,99.3333 64.5,99C 62.6803,98.7996 61.347,97.9663 60.5,96.5C 64.3709,97.8402 68.3709,98.6735 72.5,99C 74.7754,101.948 77.6088,104.114 81,105.5C 83.0577,104.888 84.891,103.888 86.5,102.5C 84.6721,99.8056 82.3387,97.8056 79.5,96.5C 82.2699,94.7373 84.2699,92.4039 85.5,89.5C 86.1667,89.5 86.5,89.8333 86.5,90.5C 86.5,90.8333 86.5,91.1667 86.5,91.5C 87.3478,92.625 88.3478,92.625 89.5,91.5C 88.8505,93.4352 88.5172,95.4352 88.5,97.5C 90.288,97.7852 91.9547,97.4519 93.5,96.5C 94.5565,93.8114 95.8899,91.3114 97.5,89C 100.429,88.2228 103.263,88.3895 106,89.5C 106.847,91.8543 107.68,94.1877 108.5,96.5 Z"/></g>
<g><path style="opacity:1" fill="#03090d" d="M 108.5,100.5 C 109.5,100.5 110.5,100.5 111.5,100.5C 111.343,101.873 111.51,103.207 112,104.5C 114.333,99.1667 116.667,99.1667 119,104.5C 119.49,103.207 119.657,101.873 119.5,100.5C 122.167,100.5 124.833,100.5 127.5,100.5C 127.833,104.5 128.167,104.5 128.5,100.5C 130.492,100.328 132.158,100.995 133.5,102.5C 136.556,100.711 139.889,100.044 143.5,100.5C 144.857,102.499 144.19,103.665 141.5,104C 142.416,104.374 143.25,104.874 144,105.5C 145.492,111.161 143.325,113.494 137.5,112.5C 137.547,102.405 136.214,102.405 133.5,112.5C 131.905,110.889 130.739,108.889 130,106.5C 130.135,108.425 130.302,110.425 130.5,112.5C 129.448,112.649 128.448,112.483 127.5,112C 125.448,107.23 124.114,107.397 123.5,112.5C 121.523,111.851 119.69,111.851 118,112.5C 116.265,111.318 115.265,109.651 115,107.5C 114.846,110.525 113.346,112.191 110.5,112.5C 110.737,111.209 110.404,110.209 109.5,109.5C 109.5,110.5 109.5,111.5 109.5,112.5C 107.278,112.822 105.444,112.155 104,110.5C 102.302,111.733 100.302,112.4 98,112.5C 94.5182,112.774 92.0182,111.441 90.5,108.5C 89.6399,110.931 87.9732,112.264 85.5,112.5C 86.5381,108.882 87.7048,105.215 89,101.5C 90.1827,100.269 91.3493,100.269 92.5,101.5C 94.907,109.573 95.907,109.24 95.5,100.5C 96.8333,100.5 98.1667,100.5 99.5,100.5C 98.4911,103.527 98.4911,106.527 99.5,109.5C 100.484,106.572 100.817,103.572 100.5,100.5C 103.167,100.5 105.833,100.5 108.5,100.5 Z"/></g>
<g><path style="opacity:0.114" fill="#596667" d="M 109.5,109.5 C 106.535,108.418 106.035,106.751 108,104.5C 108.608,106.154 109.108,107.821 109.5,109.5 Z"/></g>
<g><path style="opacity:0.139" fill="#536363" d="M 138.5,108.5 C 139.497,107.287 140.497,107.454 141.5,109C 140.423,109.47 139.423,109.303 138.5,108.5 Z"/></g>
<g><path style="opacity:1" fill="#040b0d" d="M 151.5,100.5 C 152.265,103.096 152.599,105.763 152.5,108.5C 153.5,108.5 154.5,108.5 155.5,108.5C 155.33,107.178 155.663,106.011 156.5,105C 160.21,104.72 163.21,103.22 165.5,100.5C 166.434,101.568 166.768,102.901 166.5,104.5C 169.85,104.335 173.183,104.502 176.5,105C 177.126,105.75 177.626,106.584 178,107.5C 178.5,105.667 179.667,104.5 181.5,104C 180.376,103.751 179.376,103.251 178.5,102.5C 179.966,100.343 181.8,100.01 184,101.5C 184.333,103.833 184.667,106.167 185,108.5C 184.079,103.102 186.246,100.769 191.5,101.5C 191.5,105.167 191.5,108.833 191.5,112.5C 181.828,112.334 172.161,112.5 162.5,113C 161.892,113.87 161.059,114.37 160,114.5C 155.546,113.507 151.046,112.84 146.5,112.5C 146.104,109.518 146.771,106.851 148.5,104.5C 147.147,103.476 146.48,102.143 146.5,100.5C 148.167,100.5 149.833,100.5 151.5,100.5 Z M 171.5,100.5 C 172.833,100.5 174.167,100.5 175.5,100.5C 173.998,103.022 172.665,103.022 171.5,100.5 Z"/></g>
</svg>
